<svg xmlns="http://www.w3.org/2000/svg" width="256" height="256" viewBox="0 0 256 256"><path fill="#828181" stroke="#595650" stroke-miterlimit="10" stroke-width=".38" d="M103 14.3c-13 0-12.7 7-9.5 19.8 1.7 6.6-2.2 2.4-3 8.9s2.6 4.9 2.6 9.3-1.8 36.4-8.4 51.8c-17.6 41-22.5 93.4-7.7 138.2 2.1 6.4 5.9 6.5 6.4 7.2 9.5.3 14.6.5 19.6.5s10.2-.2 19.7-.5c.5-.7 4.3-.8 6.4-7.2 14.8-44.8 9.8-97.2-7.7-138.2-6.6-15.4-8.4-45.7-8.4-50.1s5.2-4 4.4-10.4-6.7-1.4-5.1-8c3.3-12.9 3.8-21.3-9.3-21.3z"/><path fill="#828181" stroke="#595650" stroke-miterlimit="10" stroke-width=".38" d="M96.8 15.7c-4.6 2.6-5.2 8.9-3.3 18.4 1.3 6.6-2.4 2.4-3 8.9s2.6 4.9 2.6 9.3.8 36.4-4.3 51.8c-13.7 41-17.5 93.3-6.1 138.2 1.1 2.9 5.1 2.1 4.8 0-8.3-45.2-5.3-97.5 4.8-138.6 3.9-15.7 3.2-48.1 3.2-52.6s-2.3-3-1.9-9.5 3.2-2.3 2.3-9-1.1-13.7.9-16.9z"/><path fill="#828181" stroke="#595650" stroke-miterlimit="10" stroke-width=".38" d="M109.1 249.9l13.6-.4c.5-.7 4.3-.8 6.4-7.2 14.8-44.8 9.8-97.2-7.7-138.2-6.6-15.4-7.2-46.8-7.2-51.2s4-2.9 3.2-9.3-5.5-2.3-3.8-8.8c2.6-10.6 3.4-17.1-4.3-19.1-5.4 2-6.4 7.9-4.6 18.4 1.2 6.6-2.2 2.4-2.7 8.9s2.3 4.9 2.3 9.3.8 36.4-3.9 51.8c-12.3 41-15.8 93.4-5.4 138.2 1.5 6.4 4.2 6.5 4.5 7.2l9.6.4z"/><path fill="#828181" stroke="#595650" stroke-miterlimit="10" stroke-width=".38" d="M123.3 242.3c11.5-44.9 7.7-97.2-6-138.2-5.1-15.4-4.3-47.4-4.3-51.8s3.1-2.9 2.6-9.3-4.3-2.3-3-8.9c1.9-9.5 1.2-15.8-3.3-18.4 2 3.2 2.1 9 .9 16.9s1.8 2.5 2.3 9-2 5-2 9.5-.6 36.9 3.2 52.6c10.2 41.1 13.1 93.4 4.9 138.6-.6 2.6 4 2.7 4.7 0z"/><path fill="#828181" stroke="#595650" stroke-miterlimit="10" stroke-width=".38" d="M103 223c17.1 0 31-16.8 31-37.4s-13.9-37.5-31-37.5-31 16.9-31 37.5S86 223 103 223z"/><path fill="#828181" stroke="#595650" stroke-miterlimit="10" stroke-width=".38" d="M103 165c7 0 12.6-7.6 12.6-16.9s-5.6-16.9-12.6-16.9-12.5 7.6-12.5 16.9S96.1 165 103 165zm0-150.7c-13 0-15.4 7-12.2 19.8 1.6 6.6-3.1 2.4-3.9 8.9s3.3 4.9 3.3 9.3.9 28.4-3.2 44.9a18.4 18.4 0 0 0 16 8.6c6.9 0 13-3.4 16.1-8.6-4.1-16.5-3.3-41.1-3.3-44.9s4.1-2.9 3.4-9.3-5.5-2.3-3.9-8.9c3.2-12.8.8-19.8-12.3-19.8z"/><path fill="#828181" stroke="#595650" stroke-miterlimit="10" stroke-width=".38" d="M89.8 100.7a13.9 13.9 0 0 0 2.7 2.1c3.7-15.9 3-47.3 3-51.7s-2.3-3-1.9-9.5 3.2-2.3 2.3-9-1.1-13.7.9-16.9c-4.6 2.6-5.2 8.9-3.3 18.4 1.3 6.6-2.4 2.4-3 8.9s2.6 4.9 2.6 9.3.7 32.1-3.3 48.4zm29.3-3.5c-3.4-13.7-3.4-29.9-3.3-44.5v-.4c0-4.4 4.1-2.9 3.4-9.3s-5.6-1.7-3.8-9.4c1.4-5.4 2.6-13.3-2.7-17-1-.7-3.4-2.3-8.8-2.3-.9 5.5-1 9.3.8 19.8 1.2 6.6-2.2 2.4-2.7 8.9s2.3 4.9 2.3 9.3.8 36.4-3.9 51.8l-.4 1.5c7.7 1.2 15.4-2.2 19.1-8.4z"/><path fill="#828181" stroke="#595650" stroke-miterlimit="10" stroke-width=".38" d="M113.5 102.8a12.1 12.1 0 0 0 2.8-2.1c-4-16.3-3.3-44.3-3.3-48.4s3.1-2.9 2.6-9.3-4.3-2.3-3-8.9c1.9-9.5 1.2-15.8-3.3-18.4 2 3.2 2.1 9 .9 16.9s1.8 2.5 2.3 9-2 5-2 9.5-.6 35.8 3 51.7z"/><path fill="#828181" stroke="#595650" stroke-miterlimit="10" stroke-width=".38" d="M91.1 35.6c.2 1.5-.1 2.2-.7 2.6h25.3c-.6-.4-.9-1.1-.7-2.6zm-1.2 14.7a4.6 4.6 0 0 1 .3 2v.6h25.6v-.6a4.9 4.9 0 0 1 .5-2z"/><path fill="#828181" stroke="#595650" stroke-miterlimit="10" stroke-width=".38" d="M112.9 38.2c-.4-.4-.7-1.1-.5-2.6H110c.2 1.6 1 1.4 1.7 2.6zm.1 14.7v-.6a6.9 6.9 0 0 1 .3-2h-2.7a2.2 2.2 0 0 0-.1.8v1.8zM93.2 38.2h1.2c.7-1.2 1.5-1 1.6-2.6h-2.3c.2 1.5-.1 2.2-.5 2.6zm-.1 14.7h2.5a13.6 13.6 0 0 1-.1-1.8 2.2 2.2 0 0 0 0-.8h-2.7a6.9 6.9 0 0 1 .3 2zM148.9 250h23.6a2.6 2.6 0 0 0 2.6-2.6 2.6 2.6 0 0 0-2.6-2.6h-23.6a2.6 2.6 0 0 0 0 5.2z"/><path fill="#828181" stroke="#595650" stroke-miterlimit="10" stroke-width=".38" d="M165.6 246.2c-1.3-2.2-3.2-3.5-3.2-11.1v-39.3c0-8.1 2.6-12.1 5.3-15.4h-14.2c2.8 3.3 5.4 7.3 5.4 15.4v39.3c0 7.6-1.9 8.9-3.2 11.1 1.9 3 7.6 1.9 9.9 0z"/><path fill="#828181" stroke="#595650" stroke-miterlimit="10" stroke-width=".38" d="M153.8 180.7c2.7 3.2 5.1 7.2 5.1 15.1v39.3c0 5.9-1.2 8.1-2.3 9.8 3.9.4 3.7-9.9 3.7-13.1v-39.2c0-3.6 0-10.2-1.4-12.2s-3.4.9-5.1.3zm-6 69.3h25.7c.8 0 1.6-1.2 1.6-2.6h-28.8c0 1.4.7 2.6 1.5 2.6z"/><path fill="#828181" stroke="#595650" stroke-miterlimit="10" stroke-width=".38" d="M172.7 99.5h-24.1c-1.2 8-7.7 34.5-4.3 57.4 2.5 17.2 9.3 27 16.4 27s13.8-9.8 16.3-27c3.4-22.9-3.1-49.4-4.3-57.4z"/><path fill="#828181" stroke="#595650" stroke-miterlimit="10" stroke-width=".38" d="M153.2 99.5h-2.1c-1 7.7-6.1 33.2-3.5 55.3 1.1 8.8 3.2 15.6 5.6 20a97.3 97.3 0 0 1-2.7-16.6c-2.2-23.5 1.9-50.5 2.7-58.7z"/><path fill="#828181" stroke="#595650" stroke-miterlimit="10" stroke-width=".38" d="M144.2 127.2c-1 9.4-1.4 19.9.1 29.7 2.5 17.2 9.3 27 16.4 27s13.8-9.8 16.3-27c1.5-9.8 1.1-20.3.1-29.7z"/><path fill="#828181" stroke="#595650" stroke-miterlimit="10" stroke-width=".38" d="M172.7 99.5h-15.1c-.9 8-5.4 34.5-3 57.4 1.4 14.6 5.1 23.9 9.2 26.3 5.8-2.4 11.1-11.7 13.2-26.3a96.9 96.9 0 0 0 1-14.2c0-18.7-4.3-36.8-5.3-43.2z"/><path fill="#828181" stroke="#595650" stroke-miterlimit="10" stroke-width=".38" d="M170.2 99.5h-2c.7 8.2 4.7 35.2 2.7 58.7a86.6 86.6 0 0 1-2.9 16.6c2.6-4.4 4.6-11.2 5.7-20 2.6-22.1-2.5-47.6-3.5-55.3z"/><path fill="#828181" stroke="#595650" stroke-miterlimit="10" stroke-width=".38" d="M154.5 127.2a163.8 163.8 0 0 0 .1 29.7c1.4 14.6 5.1 23.9 9.2 26.3 5.8-2.4 11.1-11.7 13.2-26.3a96.9 96.9 0 0 0 1-14.2 133 133 0 0 0-.9-15.5zm-7 0a141.5 141.5 0 0 0 .1 27.6c1.1 9.1 3.2 15.6 5.6 20a97.3 97.3 0 0 1-2.7-16.6 200.7 200.7 0 0 1-.1-31z"/><path fill="#828181" stroke="#595650" stroke-miterlimit="10" stroke-width=".38" d="M170.9 127.2a213.8 213.8 0 0 1 0 31 86.6 86.6 0 0 1-2.9 16.6c2.6-4.4 4.6-11.2 5.7-20a149.7 149.7 0 0 0 .1-27.6zm-6.9 51.1a.9.9 0 0 0 .9-.8.9.9 0 0 0-.9-.9.8.8 0 0 0-.8.9.8.8 0 0 0 .8.8zm-4.4-2.4a1 1 0 0 0 1-.9.9.9 0 0 0-.9-.9.8.8 0 0 0-.9.8.9.9 0 0 0 .8.9zm2.2-2.4a.8.8 0 0 0 1-.8 1.1 1.1 0 0 0-.9-1 .9.9 0 0 0-.9.9.9.9 0 0 0 .8.9zm-3-4.3a.9.9 0 0 0 .9-.9.8.8 0 0 0-.8-.9.8.8 0 0 0-1 .8 1.1 1.1 0 0 0 .8.9zm2-3.3a.9.9 0 0 0 .9-.8.9.9 0 0 0-1.8 0 .9.9 0 0 0 .9.8zm-1.9-2.6a.8.8 0 0 0 1-.8 1 1 0 0 0-.9-1 .9.9 0 0 0-.9.9.9.9 0 0 0 .8.9zm2.8-1.1a.9.9 0 0 0 .9-.9.8.8 0 0 0-.8-.9.8.8 0 0 0-1 .8c0 .6.4.9.9 1zm-3.4-7.2a.9.9 0 0 0 .9-.9.9.9 0 0 0-.9-.8.9.9 0 0 0-.8.8.9.9 0 0 0 .8.9zm3.1-2a.9.9 0 0 0 .7-1.1 1 1 0 0 0-.7-.7 1 1 0 0 0-1.1.7 1 1 0 0 0 .8 1.1z"/><path fill="#828181" stroke="#595650" stroke-miterlimit="10" stroke-width=".38" d="M160.5 153a1.1 1.1 0 0 0 1-.9 1 1 0 0 0-1.9-.1c.1.6.4 1 .9 1zm-1.3-1.8a.9.9 0 0 0 .9-.9.9.9 0 0 0-.9-.8.9.9 0 0 0-.9.8.9.9 0 0 0 .9.9zm3.1-4.2a.9.9 0 0 0 .9-.9.9.9 0 0 0-1.8 0 .9.9 0 0 0 .9.9zm-3.8-5.6a.7.7 0 0 0 .8-.8.8.8 0 0 0-.8-.9.9.9 0 0 0-.9.9.8.8 0 0 0 .9.8zm2.5-1.8a.9.9 0 0 0 0-1.8.8.8 0 0 0-.9.8.9.9 0 0 0 .9 1zm-2.4-2.2a1 1 0 0 0 1-.9.9.9 0 0 0-.9-.9.8.8 0 0 0-.9.8.8.8 0 0 0 .8.9zm3.1-1.5a.8.8 0 0 0 .8-.9.8.8 0 0 0-.8-.8.9.9 0 0 0-.9.8.9.9 0 0 0 .9.9zm-.7-3.5a.9.9 0 0 0 .8-.9.9.9 0 0 0-.8-.8.9.9 0 0 0-.9.8.9.9 0 0 0 .9.9zm1-2.9a.9.9 0 0 0 .9-.9.8.8 0 0 0-.8-.9 1 1 0 0 0-1 .9.9.9 0 0 0 .8.9zm-4.5.3a.9.9 0 0 0 0-1.8.9.9 0 0 0-.9.9.9.9 0 0 0 .9.9z"/></svg>