<svg xmlns="http://www.w3.org/2000/svg"><symbol id="beer" viewBox="0 0 256 256"><path fill="#828181" stroke="#595650" stroke-miterlimit="10" stroke-width=".34" d="M74.5 238c-7.4 0-13.4-4.4-13.4-9.7V119.5c0-21.3 18.6-36.8 19.2-44.3l2.9-48.1h20l2.9 48.1c.5 7.5 19.2 23 19.2 44.3v108.8c0 5.3-6.1 9.7-13.5 9.7z" opacity=".64" style="isolation:isolate"/><path fill="#828181" stroke="#595650" stroke-miterlimit="10" stroke-width=".34" d="M96.6 27.1h6.6l2.9 48.1c.5 7.5 19.2 23 19.2 44.3v108.8c0 5.3-6.1 9.7-13.5 9.7h-21a9.5 9.5 0 0 1-9.2-9.7V119.5c0-21.3 12.7-36.8 13-44.3z" opacity=".64" style="isolation:isolate"/><path fill="#828181" stroke="#595650" stroke-miterlimit="10" stroke-width=".34" d="M99.6 26.9h1.4l1.9 48.3c.3 7.5 14.4 23 14.4 44.3v108.8c0 4.9-4.9 7.8-4.9 1.9v-111c0-21.7-11.3-37.5-11.5-45.1zM69 228.3V119.5c0-21.3 14-36.8 14.5-44.3l3.4-48.9h1.5l-3 47.8c-.3 7.6-11.5 23.4-11.5 45.1v111c0 5.9-4.9 3-4.9-1.9z" opacity=".64" style="isolation:isolate"/><path fill="#828181" stroke="#595650" stroke-miterlimit="10" stroke-width=".34" d="M86.3 23.7H100a4.5 4.5 0 0 1 4.5 4.5v3H81.8v-3a4.5 4.5 0 0 1 4.5-4.5zm6.9 183.2c15.1 0 27.5-18 27.5-40s-12.4-40.1-27.5-40.1-27.5 18-27.5 40.1 12.3 40 27.5 40z" opacity=".64" style="isolation:isolate"/><path fill="#828181" stroke="#595650" stroke-miterlimit="10" stroke-width=".34" d="M69 186.1v-38.4a42.1 42.1 0 0 1 4.9-9.4v57.1a41.4 41.4 0 0 1-4.9-9.3zm24.2-59.3c15.2 0 27.5 18 27.5 40.1s-12.3 40-27.5 40a20.2 20.2 0 0 1-11.6-3.7v-72.7a21 21 0 0 1 11.6-3.7z" opacity=".64" style="isolation:isolate"/><path fill="#828181" stroke="#595650" stroke-miterlimit="10" stroke-width=".34" d="M117.3 147.7v38.4a37.7 37.7 0 0 1-4.9 9.3v-57.1a38.3 38.3 0 0 1 4.9 9.4zm-23.6-124h6.3a4.5 4.5 0 0 1 4.5 4.5v3H89.2v-3a4.5 4.5 0 0 1 4.5-4.5z" opacity=".64" style="isolation:isolate"/><path fill="#828181" stroke="#595650" stroke-miterlimit="10" stroke-width=".34" d="M89.9 23.7h1.8a4.6 4.6 0 0 0-4.6 4.5v3h-1.8v-3a4.6 4.6 0 0 1 4.6-4.5zm7.6 0h-1.8a4.5 4.5 0 0 1 4.5 4.5v3h1.8v-3a4.5 4.5 0 0 0-4.5-4.5zm97.3 103.5a64.8 64.8 0 0 0-2.4-19c-2.6-7.2-48.1-7.2-49.4 0a71.7 71.7 0 0 0-2.3 19z" opacity=".64" style="isolation:isolate"/><path fill="#828181" stroke="#595650" stroke-miterlimit="10" stroke-width=".34" d="M182.7 238c10.4 0 1.1-20.7.8-27.5-2.3-38.9 18.1-70.3 8.9-101.3H143c-9.2 31 11.3 62.4 9.1 101.3-.5 6.8-9.7 27.5.7 27.5z" opacity=".64" style="isolation:isolate"/><path fill="#828181" stroke="#595650" stroke-miterlimit="10" stroke-width=".34" d="M182.7 238c10.4 0 1.1-20.7.8-27.5-2.3-38.9 18.1-70.3 8.9-101.3h-35.8c-6.8 31 8.3 62.4 6.6 101.3-.3 6.8-7.1 27.5.6 27.5z" opacity=".64" style="isolation:isolate"/><path fill="#828181" stroke="#595650" stroke-miterlimit="10" stroke-width=".34" d="M151.9 109.2h-3.4c-7.1 31 8.8 62.4 7 101.3-.2 4.6-3.6 15.7-3.2 22.3a1.4 1.4 0 1 0 2.8 0c-.1-6.8 2.5-17.4 2.6-21.9 1.5-39-11.3-70.5-5.8-101.7zm31.3 123.6c.4-6.6-3-17.7-3.2-22.3-1.8-38.9 14.1-70.3 7-101.3h-3.4c5.5 31.2-7.3 62.7-5.9 101.7.2 4.5 2.8 15.3 2.7 22-.1 1.9 2.7 1.8 2.8-.1z" opacity=".64" style="isolation:isolate"/><path fill="#828181" stroke="#595650" stroke-miterlimit="10" stroke-width=".34" d="M184.6 216.5a28.6 28.6 0 0 1-1.1-6c-1.9-31.4 11.1-57.9 11.3-83.3h-54.1c.2 25.4 13.2 51.9 11.4 83.3a57.1 57.1 0 0 1-1.2 6z" opacity=".64" style="isolation:isolate"/><path fill="#828181" stroke="#595650" stroke-miterlimit="10" stroke-width=".34" d="M146.6 127.2c.2 25.4 10.4 51.9 8.9 83.3a41.4 41.4 0 0 1-.9 6h2.5a53.2 53.2 0 0 0 .6-5.6c1.2-31.5-6.9-58.2-7.2-83.7zm38 89.3v-7.7a4.9 4.9 0 0 1-.1-1.2v-2.2a6.1 6.1 0 0 1 .1-1.4v-5.7a6.2 6.2 0 0 0 .1-1.3v-.3c0-.6.1-1.1.1-1.7v-.2c.1-.5.1-.9.2-1.4v-.7a6.2 6.2 0 0 1 .1-1.3v-.4c.1-.4.1-.9.2-1.3v-.3c.1-1 .3-2.1.4-3.2v-.3l.2-1.3v-.3c.2-1.7.5-3.3.8-4.9l.3-1.5c3-16.2 7.6-31.1 8.5-45.7.1-1.5.2-3.1.2-4.7h-40.9c.2 25.5 9.8 52 8.4 83.4a44.4 44.4 0 0 1-.8 5.9z" opacity=".64" style="isolation:isolate"/><path fill="#828181" stroke="#595650" stroke-miterlimit="10" stroke-width=".34" d="M180.9 216.5a33.6 33.6 0 0 1-.9-6c-1.5-31.4 8.7-57.9 8.8-83.3H185c-.2 25.5-8.4 52.2-7.3 83.7.2 1.9.4 3.7.7 5.6zm13.9-89.3a58.3 58.3 0 0 0-2.4-18c-2.6-6.9-48.1-6.9-49.4 0a64 64 0 0 0-2.3 18z" opacity=".64" style="isolation:isolate"/><path fill="#828181" stroke="#595650" stroke-miterlimit="10" stroke-width=".34" d="M194.8 127.2v-3.7c0-.2-.1-.5-.1-.8v-3.4a5 5 0 0 1-.2-1.2v-.3l-.2-1.2a7.8 7.8 0 0 1-.2-1.4l-.3-1.4-.3-1.4-.3-1.4-.5-1.5H143l-.4 1.5-.3 1.4-.3 1.4-.3 1.4-.2 1.4c-.1.4-.1.8-.2 1.2v.3c0 .4-.1.8-.1 1.2v.3a4.1 4.1 0 0 0-.1 1.1v2a2.2 2.2 0 0 1-.1.8v3.7z" opacity=".64" style="isolation:isolate"/><path fill="#828181" stroke="#595650" stroke-miterlimit="10" stroke-width=".34" d="M194.8 127.2v-3.7a2.2 2.2 0 0 1 0-.8v-.6c0-.3-.1-.6-.1-1v-3.3c-.1-.4-.1-.8-.2-1.2 0-.5-.1-1-.1-1.4l-.2-1.4-.3-1.4a5.9 5.9 0 0 0-.2-1.4l-.3-1.5h-36.7l-.3 1.5-.3 1.4a5.9 5.9 0 0 0-.2 1.4l-.2 1.4a5.9 5.9 0 0 0-.2 1.4c0 .4-.1.8-.1 1.2v.3a4.9 4.9 0 0 0-.1 1.2v1.8a3.8 3.8 0 0 0-.1 1v1.4c0 .2-.1.5-.1.7v3z" opacity=".64" style="isolation:isolate"/><path fill="#828181" stroke="#595650" stroke-miterlimit="10" stroke-width=".34" d="M187 109.2h-3.4a97.9 97.9 0 0 1 1.4 18h3.8a77.5 77.5 0 0 0-1.8-18z" opacity=".64" style="isolation:isolate"/></symbol><symbol id="facebook" viewBox="0 0 256 256"><circle cx="123.5" cy="128.4" r="121.4" fill="#fff" transform="rotate(-.8 128.013 129.813)"/><path fill="#d3d3d3" d="M134.2 100V88.5c0-5.6 3.8-6.9 6.4-6.9h16.1V56.9h-22.2c-24.7 0-30.3 18.4-30.3 30.2v13H90v28.7h14.4v71.9h28.7v-72h21.4l1-11.3 1.6-17.4z"/></symbol><symbol id="champagne" viewBox="0 0 256 256"><path fill="#828181" stroke="#595650" stroke-miterlimit="10" stroke-width=".38" d="M103 14.3c-13 0-12.7 7-9.5 19.8 1.7 6.6-2.2 2.4-3 8.9s2.6 4.9 2.6 9.3-1.8 36.4-8.4 51.8c-17.6 41-22.5 93.4-7.7 138.2 2.1 6.4 5.9 6.5 6.4 7.2 9.5.3 14.6.5 19.6.5s10.2-.2 19.7-.5c.5-.7 4.3-.8 6.4-7.2 14.8-44.8 9.8-97.2-7.7-138.2-6.6-15.4-8.4-45.7-8.4-50.1s5.2-4 4.4-10.4-6.7-1.4-5.1-8c3.3-12.9 3.8-21.3-9.3-21.3z"/><path fill="#828181" stroke="#595650" stroke-miterlimit="10" stroke-width=".38" d="M96.8 15.7c-4.6 2.6-5.2 8.9-3.3 18.4 1.3 6.6-2.4 2.4-3 8.9s2.6 4.9 2.6 9.3.8 36.4-4.3 51.8c-13.7 41-17.5 93.3-6.1 138.2 1.1 2.9 5.1 2.1 4.8 0-8.3-45.2-5.3-97.5 4.8-138.6 3.9-15.7 3.2-48.1 3.2-52.6s-2.3-3-1.9-9.5 3.2-2.3 2.3-9-1.1-13.7.9-16.9z"/><path fill="#828181" stroke="#595650" stroke-miterlimit="10" stroke-width=".38" d="M109.1 249.9l13.6-.4c.5-.7 4.3-.8 6.4-7.2 14.8-44.8 9.8-97.2-7.7-138.2-6.6-15.4-7.2-46.8-7.2-51.2s4-2.9 3.2-9.3-5.5-2.3-3.8-8.8c2.6-10.6 3.4-17.1-4.3-19.1-5.4 2-6.4 7.9-4.6 18.4 1.2 6.6-2.2 2.4-2.7 8.9s2.3 4.9 2.3 9.3.8 36.4-3.9 51.8c-12.3 41-15.8 93.4-5.4 138.2 1.5 6.4 4.2 6.5 4.5 7.2l9.6.4z"/><path fill="#828181" stroke="#595650" stroke-miterlimit="10" stroke-width=".38" d="M123.3 242.3c11.5-44.9 7.7-97.2-6-138.2-5.1-15.4-4.3-47.4-4.3-51.8s3.1-2.9 2.6-9.3-4.3-2.3-3-8.9c1.9-9.5 1.2-15.8-3.3-18.4 2 3.2 2.1 9 .9 16.9s1.8 2.5 2.3 9-2 5-2 9.5-.6 36.9 3.2 52.6c10.2 41.1 13.1 93.4 4.9 138.6-.6 2.6 4 2.7 4.7 0z"/><path fill="#828181" stroke="#595650" stroke-miterlimit="10" stroke-width=".38" d="M103 223c17.1 0 31-16.8 31-37.4s-13.9-37.5-31-37.5-31 16.9-31 37.5S86 223 103 223z"/><path fill="#828181" stroke="#595650" stroke-miterlimit="10" stroke-width=".38" d="M103 165c7 0 12.6-7.6 12.6-16.9s-5.6-16.9-12.6-16.9-12.5 7.6-12.5 16.9S96.1 165 103 165zm0-150.7c-13 0-15.4 7-12.2 19.8 1.6 6.6-3.1 2.4-3.9 8.9s3.3 4.9 3.3 9.3.9 28.4-3.2 44.9a18.4 18.4 0 0 0 16 8.6c6.9 0 13-3.4 16.1-8.6-4.1-16.5-3.3-41.1-3.3-44.9s4.1-2.9 3.4-9.3-5.5-2.3-3.9-8.9c3.2-12.8.8-19.8-12.3-19.8z"/><path fill="#828181" stroke="#595650" stroke-miterlimit="10" stroke-width=".38" d="M89.8 100.7a13.9 13.9 0 0 0 2.7 2.1c3.7-15.9 3-47.3 3-51.7s-2.3-3-1.9-9.5 3.2-2.3 2.3-9-1.1-13.7.9-16.9c-4.6 2.6-5.2 8.9-3.3 18.4 1.3 6.6-2.4 2.4-3 8.9s2.6 4.9 2.6 9.3.7 32.1-3.3 48.4zm29.3-3.5c-3.4-13.7-3.4-29.9-3.3-44.5v-.4c0-4.4 4.1-2.9 3.4-9.3s-5.6-1.7-3.8-9.4c1.4-5.4 2.6-13.3-2.7-17-1-.7-3.4-2.3-8.8-2.3-.9 5.5-1 9.3.8 19.8 1.2 6.6-2.2 2.4-2.7 8.9s2.3 4.9 2.3 9.3.8 36.4-3.9 51.8l-.4 1.5c7.7 1.2 15.4-2.2 19.1-8.4z"/><path fill="#828181" stroke="#595650" stroke-miterlimit="10" stroke-width=".38" d="M113.5 102.8a12.1 12.1 0 0 0 2.8-2.1c-4-16.3-3.3-44.3-3.3-48.4s3.1-2.9 2.6-9.3-4.3-2.3-3-8.9c1.9-9.5 1.2-15.8-3.3-18.4 2 3.2 2.1 9 .9 16.9s1.8 2.5 2.3 9-2 5-2 9.5-.6 35.8 3 51.7z"/><path fill="#828181" stroke="#595650" stroke-miterlimit="10" stroke-width=".38" d="M91.1 35.6c.2 1.5-.1 2.2-.7 2.6h25.3c-.6-.4-.9-1.1-.7-2.6zm-1.2 14.7a4.6 4.6 0 0 1 .3 2v.6h25.6v-.6a4.9 4.9 0 0 1 .5-2z"/><path fill="#828181" stroke="#595650" stroke-miterlimit="10" stroke-width=".38" d="M112.9 38.2c-.4-.4-.7-1.1-.5-2.6H110c.2 1.6 1 1.4 1.7 2.6zm.1 14.7v-.6a6.9 6.9 0 0 1 .3-2h-2.7a2.2 2.2 0 0 0-.1.8v1.8zM93.2 38.2h1.2c.7-1.2 1.5-1 1.6-2.6h-2.3c.2 1.5-.1 2.2-.5 2.6zm-.1 14.7h2.5a13.6 13.6 0 0 1-.1-1.8 2.2 2.2 0 0 0 0-.8h-2.7a6.9 6.9 0 0 1 .3 2zM148.9 250h23.6a2.6 2.6 0 0 0 2.6-2.6 2.6 2.6 0 0 0-2.6-2.6h-23.6a2.6 2.6 0 0 0 0 5.2z"/><path fill="#828181" stroke="#595650" stroke-miterlimit="10" stroke-width=".38" d="M165.6 246.2c-1.3-2.2-3.2-3.5-3.2-11.1v-39.3c0-8.1 2.6-12.1 5.3-15.4h-14.2c2.8 3.3 5.4 7.3 5.4 15.4v39.3c0 7.6-1.9 8.9-3.2 11.1 1.9 3 7.6 1.9 9.9 0z"/><path fill="#828181" stroke="#595650" stroke-miterlimit="10" stroke-width=".38" d="M153.8 180.7c2.7 3.2 5.1 7.2 5.1 15.1v39.3c0 5.9-1.2 8.1-2.3 9.8 3.9.4 3.7-9.9 3.7-13.1v-39.2c0-3.6 0-10.2-1.4-12.2s-3.4.9-5.1.3zm-6 69.3h25.7c.8 0 1.6-1.2 1.6-2.6h-28.8c0 1.4.7 2.6 1.5 2.6z"/><path fill="#828181" stroke="#595650" stroke-miterlimit="10" stroke-width=".38" d="M172.7 99.5h-24.1c-1.2 8-7.7 34.5-4.3 57.4 2.5 17.2 9.3 27 16.4 27s13.8-9.8 16.3-27c3.4-22.9-3.1-49.4-4.3-57.4z"/><path fill="#828181" stroke="#595650" stroke-miterlimit="10" stroke-width=".38" d="M153.2 99.5h-2.1c-1 7.7-6.1 33.2-3.5 55.3 1.1 8.8 3.2 15.6 5.6 20a97.3 97.3 0 0 1-2.7-16.6c-2.2-23.5 1.9-50.5 2.7-58.7z"/><path fill="#828181" stroke="#595650" stroke-miterlimit="10" stroke-width=".38" d="M144.2 127.2c-1 9.4-1.4 19.9.1 29.7 2.5 17.2 9.3 27 16.4 27s13.8-9.8 16.3-27c1.5-9.8 1.1-20.3.1-29.7z"/><path fill="#828181" stroke="#595650" stroke-miterlimit="10" stroke-width=".38" d="M172.7 99.5h-15.1c-.9 8-5.4 34.5-3 57.4 1.4 14.6 5.1 23.9 9.2 26.3 5.8-2.4 11.1-11.7 13.2-26.3a96.9 96.9 0 0 0 1-14.2c0-18.7-4.3-36.8-5.3-43.2z"/><path fill="#828181" stroke="#595650" stroke-miterlimit="10" stroke-width=".38" d="M170.2 99.5h-2c.7 8.2 4.7 35.2 2.7 58.7a86.6 86.6 0 0 1-2.9 16.6c2.6-4.4 4.6-11.2 5.7-20 2.6-22.1-2.5-47.6-3.5-55.3z"/><path fill="#828181" stroke="#595650" stroke-miterlimit="10" stroke-width=".38" d="M154.5 127.2a163.8 163.8 0 0 0 .1 29.7c1.4 14.6 5.1 23.9 9.2 26.3 5.8-2.4 11.1-11.7 13.2-26.3a96.9 96.9 0 0 0 1-14.2 133 133 0 0 0-.9-15.5zm-7 0a141.5 141.5 0 0 0 .1 27.6c1.1 9.1 3.2 15.6 5.6 20a97.3 97.3 0 0 1-2.7-16.6 200.7 200.7 0 0 1-.1-31z"/><path fill="#828181" stroke="#595650" stroke-miterlimit="10" stroke-width=".38" d="M170.9 127.2a213.8 213.8 0 0 1 0 31 86.6 86.6 0 0 1-2.9 16.6c2.6-4.4 4.6-11.2 5.7-20a149.7 149.7 0 0 0 .1-27.6zm-6.9 51.1a.9.9 0 0 0 .9-.8.9.9 0 0 0-.9-.9.8.8 0 0 0-.8.9.8.8 0 0 0 .8.8zm-4.4-2.4a1 1 0 0 0 1-.9.9.9 0 0 0-.9-.9.8.8 0 0 0-.9.8.9.9 0 0 0 .8.9zm2.2-2.4a.8.8 0 0 0 1-.8 1.1 1.1 0 0 0-.9-1 .9.9 0 0 0-.9.9.9.9 0 0 0 .8.9zm-3-4.3a.9.9 0 0 0 .9-.9.8.8 0 0 0-.8-.9.8.8 0 0 0-1 .8 1.1 1.1 0 0 0 .8.9zm2-3.3a.9.9 0 0 0 .9-.8.9.9 0 0 0-1.8 0 .9.9 0 0 0 .9.8zm-1.9-2.6a.8.8 0 0 0 1-.8 1 1 0 0 0-.9-1 .9.9 0 0 0-.9.9.9.9 0 0 0 .8.9zm2.8-1.1a.9.9 0 0 0 .9-.9.8.8 0 0 0-.8-.9.8.8 0 0 0-1 .8c0 .6.4.9.9 1zm-3.4-7.2a.9.9 0 0 0 .9-.9.9.9 0 0 0-.9-.8.9.9 0 0 0-.8.8.9.9 0 0 0 .8.9zm3.1-2a.9.9 0 0 0 .7-1.1 1 1 0 0 0-.7-.7 1 1 0 0 0-1.1.7 1 1 0 0 0 .8 1.1z"/><path fill="#828181" stroke="#595650" stroke-miterlimit="10" stroke-width=".38" d="M160.5 153a1.1 1.1 0 0 0 1-.9 1 1 0 0 0-1.9-.1c.1.6.4 1 .9 1zm-1.3-1.8a.9.9 0 0 0 .9-.9.9.9 0 0 0-.9-.8.9.9 0 0 0-.9.8.9.9 0 0 0 .9.9zm3.1-4.2a.9.9 0 0 0 .9-.9.9.9 0 0 0-1.8 0 .9.9 0 0 0 .9.9zm-3.8-5.6a.7.7 0 0 0 .8-.8.8.8 0 0 0-.8-.9.9.9 0 0 0-.9.9.8.8 0 0 0 .9.8zm2.5-1.8a.9.9 0 0 0 0-1.8.8.8 0 0 0-.9.8.9.9 0 0 0 .9 1zm-2.4-2.2a1 1 0 0 0 1-.9.9.9 0 0 0-.9-.9.8.8 0 0 0-.9.8.8.8 0 0 0 .8.9zm3.1-1.5a.8.8 0 0 0 .8-.9.8.8 0 0 0-.8-.8.9.9 0 0 0-.9.8.9.9 0 0 0 .9.9zm-.7-3.5a.9.9 0 0 0 .8-.9.9.9 0 0 0-.8-.8.9.9 0 0 0-.9.8.9.9 0 0 0 .9.9zm1-2.9a.9.9 0 0 0 .9-.9.8.8 0 0 0-.8-.9 1 1 0 0 0-1 .9.9.9 0 0 0 .8.9zm-4.5.3a.9.9 0 0 0 0-1.8.9.9 0 0 0-.9.9.9.9 0 0 0 .9.9z"/></symbol><symbol id="instagram" viewBox="0 0 256 256"><path fill="#fff" d="M253.1 127A124.1 124.1 0 1 1 129 3a124.1 124.1 0 0 1 124.1 124z"/><path fill="#d3d3d3" d="M173.7 53.3l-90.1.5a28.5 28.5 0 0 0-28.3 28.6l.2 30v11l.3 49.1a28.4 28.4 0 0 0 28.6 28.2l90.1-.5a28.3 28.3 0 0 0 28.2-28.5l-.2-49.1v-11l-.2-30a28.4 28.4 0 0 0-28.6-28.3zm8.2 16.9h3.3v24.9l-24.8.2-.2-24.9zM108 112.1a25.8 25.8 0 0 1 41.9-.3c.6.8 1.1 1.7 1.6 2.5a25.5 25.5 0 0 1 3.4 12.6 25.9 25.9 0 1 1-48.5-12.4zm80.4 59.7a14 14 0 0 1-14 14.1l-90.1.5a14.1 14.1 0 0 1-14.2-14l-.3-52.5v-7.6h21.9c-.5 1.3-1 2.7-1.4 4.1a39.8 39.8 0 0 0-1.4 10.9 40.2 40.2 0 1 0 80.3-.4 39.4 39.4 0 0 0-1.6-10.9c-.4-1.4-.9-2.8-1.4-4.1l21.9-.2v7.7z"/></symbol><symbol id="twitter" viewBox="0 0 256 256"><path fill="#fff" d="M256.5 127.4A126.4 126.4 0 1 1 130.2 1a126.3 126.3 0 0 1 126.3 126.4z"/><path fill="#d3d3d3" d="M205 88.8a64.5 64.5 0 0 1-17.6 4.8 30.8 30.8 0 0 0 13.5-16.8 62 62 0 0 1-19.5 7.4 30.9 30.9 0 0 0-22.4-9.6 30.5 30.5 0 0 0-30.7 30.3 30.8 30.8 0 0 0 .8 6.8 87.6 87.6 0 0 1-63.3-31.5 28.9 28.9 0 0 0-4.2 15.2 30.2 30.2 0 0 0 13.7 25.1 29.8 29.8 0 0 1-13.9-3.8v.4a28.7 28.7 0 0 0 2.1 11A30.6 30.6 0 0 0 86 146.8a35.9 35.9 0 0 1-8.1 1 36.8 36.8 0 0 1-5.8-.5 30.8 30.8 0 0 0 28.7 21 62.1 62.1 0 0 1-38.1 12.9 61.2 61.2 0 0 1-7.4-.4 88 88 0 0 0 47.1 13.6c48 0 77.5-33.3 85.3-67.8a81.4 81.4 0 0 0 2.1-18.2c0-1.3 0-2.6-.1-3.9A61.7 61.7 0 0 0 205 88.8z"/></symbol><symbol id="wine" viewBox="0 0 256 256"><path fill="#828181" stroke="#595650" stroke-miterlimit="10" stroke-width=".37" d="M83.7 241.6c-6.9 0-12.5-5.1-12.5-11.3V103.4c0-24.9 17.3-26.9 17.8-35.7l2.7-49.9h18.6l2.7 49.9c.5 8.8 17.8 10.8 17.8 35.7v126.9c0 6.2-5.6 11.3-12.5 11.3z"/><path fill="#828181" stroke="#595650" stroke-miterlimit="10" stroke-width=".37" d="M113 67.7v.4a.8.8 0 0 1 .1.4c0 .2 0 .3.1.4V70l.2.4.2.4.2.3a.8.8 0 0 1 .2.4l.3.3c.1.1.1.2.2.4l.3.3.3.3.3.4.3.3.3.4.4.3.3.3.4.4.3.4.4.3.4.3.4.4.3.4.4.3.4.5.4.4.4.4.5.4.4.4.4.4.4.5.4.4.4.5.4.5.4.5.4.5.4.6.4.5.4.6.3.5a1.6 1.6 0 0 1 .4.7l.4.5.3.7.4.7.3.7.3.7.3.7.3.7a2.4 2.4 0 0 1 .2.8l.3.8a3.1 3.1 0 0 1 .2.8l.3.9a2.9 2.9 0 0 0 .2.9l.2.9c0 .3.1.6.1.9s.1.7.2 1 .1.6.1 1v1a3.4 3.4 0 0 1 .1 1 3.7 3.7 0 0 0 .1 1.1v129.2c0 6.2-5.6 11.3-12.5 11.3H96.6c-5.8 0-9.2-6.4-9.2-10.6V103.4c0-24.9 11.5-26.9 11.5-35.7l.2-49.9h11.2z"/><path fill="#828181" stroke="#595650" stroke-miterlimit="10" stroke-width=".37" d="M77.9 230.3V103.4c0-14.4 4.5-21.1 8.4-25.9l1.4-1.8c1.8-2.2 4.2-2.4 3.1 0-.3.7-.8 1.3-1.1 2-2.7 4.8-5.4 11.7-5.4 25.2v127.7c0 5.9-6.4 3.7-6.4-.3zM91.8 65.1l2-47.3h1.9l-1.4 47.3c0 2.5-2.4 2.3-2.5 0zm14.5-47.3h1.9l2 47.3c.1 2.1-2.5 2.3-2.5 0l-1.4-47.3zm8 57.9c.6.7 1.2 1.3 1.7 2 3.8 4.8 8.1 11.6 8.1 25.7v126.9c0 6.4-6.3 5.6-6.3.7V102.9c0-13.3-2.8-20.1-5.3-25a5.6 5.6 0 0 1-1.3-2.2c-.4-2.5 1.3-1.8 3.1 0z"/><path fill="#828181" stroke="#595650" stroke-miterlimit="10" stroke-width=".37" d="M74.1 106.5H128v75H74.1z"/><path fill="#828181" stroke="#595650" stroke-miterlimit="10" stroke-width=".37" d="M77.9 106.5h6.4v75h-6.4zm9.5 0h40.5v75H87.4z"/><path fill="#828181" stroke="#595650" stroke-miterlimit="10" stroke-width=".37" d="M117.8 106.5h6.3v75h-6.3zM89.9 52.2l1.8-34.4h18.6l1.8 34.4z"/><path fill="#828181" stroke="#595650" stroke-miterlimit="10" stroke-width=".37" d="M93.8 17.8h1.9l-1 34.4h-2.3l1.4-34.4z"/><path fill="#828181" stroke="#595650" stroke-miterlimit="10" stroke-width=".37" d="M91.4 23.7l.3-5.9h18.6l.3 5.9z"/><path fill="#828181" stroke="#595650" stroke-miterlimit="10" stroke-width=".37" d="M93.8 17.8h1.9v5.9h-2l.2-5.9z"/><rect width="26.4" height="10.07" x="87.8" y="12.6" fill="#828181" stroke="#595650" stroke-miterlimit="10" stroke-width=".37" rx="2.1" ry="2.1"/><path fill="#828181" stroke="#595650" stroke-miterlimit="10" stroke-width=".37" d="M110.5 22.7l1.6 29.5H98.9V22.7a2.2 2.2 0 0 1-1.8-2.1v-5.9a2 2 0 0 1 1.8-2h12.9a2.2 2.2 0 0 1 2.3 2.1v5.8a2.3 2.3 0 0 1-2.3 2.2z"/><path fill="#828181" stroke="#595650" stroke-miterlimit="10" stroke-width=".37" d="M109.7 52.2h-2.4l-1-29.5h1.9l1.5 29.5z"/><path fill="#828181" stroke="#595650" stroke-miterlimit="10" stroke-width=".37" d="M110.5 22.7v1H99v-1z"/><path fill="#828181" stroke="#595650" stroke-miterlimit="10" stroke-width=".37" d="M108.3 23.7h-2v-1h1.9v1zm.8-11.1v10.1h2.3V12.6zm-15.4 0v10.1h-2.3V12.6zm57.1 229H191a2.4 2.4 0 1 0 0-4.7h-40.2a2.4 2.4 0 0 0 0 4.7z"/><path fill="#828181" stroke="#595650" stroke-miterlimit="10" stroke-width=".37" d="M178.6 238.2c-2-2-4.9-3.2-4.9-10.2v-36c0-7.4 4-11.1 8.3-14.1h-22.2c4.4 3 8.3 6.7 8.3 14.1v36c0 7-2.9 8.2-4.9 10.2 2.9 2.7 11.9 1.8 15.4 0z"/><path fill="#828181" stroke="#595650" stroke-miterlimit="10" stroke-width=".37" d="M160.2 178.2c4.2 2.9 7.9 6.6 7.9 13.8v36c0 5.5-1.7 7.4-3.5 8.9 6.1.4 5.7-9 5.7-11.9v-35.9c0-3.3 0-9.3-2.1-11.2s-5.4.9-8 .3zm-9.4 63.4H191a2.3 2.3 0 0 0 2.4-2.3h-44.9a2.3 2.3 0 0 0 2.3 2.3z"/><path fill="#828181" stroke="#595650" stroke-miterlimit="10" stroke-width=".37" d="M189.7 103.8h-37.6c-1.9 7.4-12.1 31.6-6.8 52.6 4 15.7 14.6 24.7 25.6 24.7s21.7-9 25.6-24.7c5.3-21-4.8-45.2-6.8-52.6z"/><path fill="#828181" stroke="#595650" stroke-miterlimit="10" stroke-width=".37" d="M159.2 103.8H156c-1.6 7.1-9.6 30.4-5.4 50.7 1.6 8 4.8 14.3 8.8 18.3a54 54 0 0 1-4.4-15.2c-3.3-21.5 3-46.3 4.2-53.8z"/><path fill="#828181" stroke="#595650" stroke-miterlimit="10" stroke-width=".37" d="M145.2 129.2c-1.6 8.6-2.1 18.2.1 27.2 4 15.7 14.6 24.7 25.6 24.7s21.7-9 25.6-24.7c2.3-9 1.7-18.6.1-27.2z"/><path fill="#828181" stroke="#595650" stroke-miterlimit="10" stroke-width=".37" d="M189.7 103.8h-23.6c-1.3 7.4-8.4 31.6-4.7 52.6 2.3 13.4 8 21.9 14.4 24.1 9.1-2.2 17.4-10.7 20.7-24.1a57.6 57.6 0 0 0 1.5-13c0-17.2-6.8-33.7-8.3-39.6z"/><path fill="#828181" stroke="#595650" stroke-miterlimit="10" stroke-width=".37" d="M185.9 103.8h-3.3c1.2 7.5 7.5 32.3 4.3 53.8a57.5 57.5 0 0 1-4.4 15.2c3.9-4 7.1-10.3 8.7-18.3 4.2-20.3-3.8-43.6-5.3-50.7z"/><path fill="#828181" stroke="#595650" stroke-miterlimit="10" stroke-width=".37" d="M161.3 129.2c-1.1 8.6-1.5 18.2.1 27.2 2.3 13.4 8 21.9 14.4 24.1 9.1-2.2 17.4-10.7 20.7-24.1a57.6 57.6 0 0 0 1.5-13 75.1 75.1 0 0 0-1.4-14.2zm-11 0c-1.1 8-1.4 16.9.3 25.3s4.8 14.3 8.8 18.3a54 54 0 0 1-4.4-15.2c-1.5-9.4-1.1-19.5 0-28.4z"/><path fill="#828181" stroke="#595650" stroke-miterlimit="10" stroke-width=".37" d="M186.9 129.2c1 8.9 1.4 19 0 28.4a57.5 57.5 0 0 1-4.4 15.2c3.9-4 7.1-10.3 8.7-18.3s1.4-17.3.3-25.3z"/></symbol><symbol id="logo-32" viewBox="0 0 32 32"><path fill="#363740" fill-rule="evenodd" d="M20.7 5.8a14 14 0 0 0-.6-4.5C19.5-.4 8.8-.4 8.5 1.3a14 14 0 0 0-.6 4.5z" opacity=".64"/><path fill="#363740" fill-rule="evenodd" d="M17.8 32c2.5 0 .3-4.9.2-6.5-.5-9.2 4.3-16.6 2.1-24H8.5c-2.2 7.4 2.6 14.8 2.1 24-.1 1.6-2.3 6.5.2 6.5z" opacity=".64"/><path fill="#363740" fill-rule="evenodd" d="M17.8 32c2.5 0 .3-4.9.2-6.5-.5-9.2 4.3-16.6 2.1-24h-8.4c-1.6 7.4 1.9 14.8 1.5 24 0 1.6-1.6 6.5.2 6.5z" opacity=".64"/><path fill="#363740" fill-rule="evenodd" d="M10.5 1.5h-.8c-1.6 7.4 2.1 14.8 1.7 24 0 1.1-.8 3.7-.8 5.3s.7.5.7 0 .6-4.1.6-5.2c.4-9.2-2.7-16.7-1.4-24.1zm7.4 29.3c.1-1.6-.7-4.2-.7-5.3-.4-9.2 3.3-16.6 1.6-24H18c1.4 7.4-1.7 14.9-1.3 24.1 0 1.1.6 3.6.6 5.2a.3.3 0 0 0 .6 0z" opacity=".64"/><path fill="#363740" fill-rule="evenodd" d="M18.3 26.9c-.1-.6-.3-1.1-.3-1.4-.4-7.4 2.7-13.7 2.7-19.7H7.9c0 6 3.1 12.3 2.7 19.7 0 .3-.2.8-.3 1.4z" opacity=".64"/><path fill="#363740" fill-rule="evenodd" d="M9.3 5.8c0 6 2.4 12.3 2.1 19.7a11.5 11.5 0 0 1-.2 1.4h.6a6.6 6.6 0 0 0 .1-1.3c.3-7.5-1.6-13.8-1.7-19.8zm9 21.1H18v-4.5c0-.1.1-.2.1-.4v-1h.1v-.4c0-.3.1-.5.1-.8a.4.4 0 0 1 .1-.3 5 5 0 0 1 .2-1.2v-.4a97.3 97.3 0 0 0 2.1-11V5.8h-9.5c.1 6 2.4 12.3 2 19.7a11.5 11.5 0 0 1-.2 1.4z" opacity=".64"/><path fill="#363740" fill-rule="evenodd" d="M17.4 26.9a11.5 11.5 0 0 1-.2-1.4c-.3-7.4 2-13.7 2.1-19.7h-.9c-.1 6-2 12.3-1.7 19.8a6.6 6.6 0 0 0 .1 1.3zm3.3-21.1a12.4 12.4 0 0 0-.6-4.3C19.5-.1 8.8-.1 8.5 1.5a12.4 12.4 0 0 0-.6 4.3z" opacity=".64"/><path fill="#363740" fill-rule="evenodd" d="M20.7 5.8V4.3h-.1v-.7a.3.3 0 0 1-.1-.2v-.5a.4.4 0 0 1-.1-.3.4.4 0 0 0-.1-.3.4.4 0 0 0-.1-.3c0-.2 0-.3-.1-.4H8.5c-.1.1-.1.2-.1.4a.4.4 0 0 0-.1.3.4.4 0 0 0-.1.3c0 .1-.1.2-.1.3v.3a.3.3 0 0 0-.1.2v1.8h12.7z" opacity=".64"/><path fill="#363740" fill-rule="evenodd" d="M20.7 5.8V4.3c0-.1 0-.1-.1-.2v-.8c0-.1-.1-.2-.1-.3v-.4c0-.1-.1-.2-.1-.3v-.4a.8.8 0 0 1-.1-.4h-8.6c0 .1-.1.2-.1.4a.4.4 0 0 1-.1.3v.3a.4.4 0 0 1-.1.3v.5a.4.4 0 0 0-.1.3v1.5h9.4z" opacity=".64"/><path fill="#363740" fill-rule="evenodd" d="M18.8 1.5H18a20.2 20.2 0 0 1 .4 4.3h.9a15.4 15.4 0 0 0-.5-4.3z" opacity=".64"/><path fill="#5c6373" stroke="#fff" stroke-miterlimit="10" stroke-width=".25" d="M14.9 17.7c-2.6 0-4.4-1.5-4.4-4.1s1.7-4.2 4.5-4.2a6.4 6.4 0 0 1 3.1.7l-.8 2a4.9 4.9 0 0 0-2.2-.6 1.9 1.9 0 0 0-2.1 2c0 1.4.6 2.2 2 2.2l1-.2v-.8h-1.8v-1.9h4v4.1a6.4 6.4 0 0 1-3.3.8z"/></symbol><symbol id="logo-64" viewBox="0 0 64 64"><path fill="#363740" fill-rule="evenodd" d="M41.5 13a31.5 31.5 0 0 0-1.1-8.5c-1.1-3.2-21.6-3.2-22.2 0a31.5 31.5 0 0 0-1.1 8.5h24.4z" opacity=".64"/><path fill="#363740" fill-rule="evenodd" d="M36.1 62.9c4.6 0 .5-9.3.3-12.4-1-17.2 7.8-31.1 4.3-44.8H18c-3.6 13.7 5.2 27.6 4.2 44.8-.1 3.1-4.3 12.4.4 12.4z" opacity=".64"/><path fill="#363740" fill-rule="evenodd" d="M36.1 62.9c4.6 0 .5-9.3.3-12.4-1-17.5 8.2-31.6 4-45.6H24.3c-3.1 14 3.7 28.1 3 45.6-.2 3.1-3.2 12.4.2 12.4z" opacity=".64"/><path fill="#363740" fill-rule="evenodd" d="M22.2 4.9h-1.6c-3.2 14 4 28.1 3.2 45.6-.1 2.1-1.6 7.1-1.4 10 0 .9 1.2 1 1.2 0 0-3 1.1-7.8 1.2-9.8.7-17.6-5.1-31.8-2.6-45.8zm14.1 55.7c.1-3-1.4-8-1.5-10.1C34 33 41.2 18.9 38 4.9h-1.6c2.5 14-3.2 28.2-2.6 45.8.1 2 1.3 6.9 1.2 9.9 0 .9 1.2.8 1.3 0z" opacity=".64"/><path fill="#363740" fill-rule="evenodd" d="M36.8 53.2c.1 0 .1 0 .1-.1a9.8 9.8 0 0 1-.5-2.6c-.8-14.1 5-26 5.1-37.5H17.1c.1 11.5 6 23.4 5.1 37.5a9.8 9.8 0 0 1-.5 2.6c0 .1 0 .1.1.1z" opacity=".64"/><path fill="#363740" fill-rule="evenodd" d="M19.9 13h-.1c.1 11.5 4.6 23.4 4 37.5a17.6 17.6 0 0 1-.4 2.7h1.1a13.8 13.8 0 0 0 .3-2.5c.5-14.2-3.1-26.2-3.3-37.7h-1.6zm17 40.2h-.3V53h-.1v-.5a1.7 1.7 0 0 0-.1-.7v-6.3a.7.7 0 0 0 .1-.5v-.8c0-.3.1-.5.1-.8a1.3 1.3 0 0 1 .1-.6v-.9a1.3 1.3 0 0 0 .1-.6 7.7 7.7 0 0 0 .2-1.5 1.3 1.3 0 0 0 .1-.6h.1l.3-2.2a6.4 6.4 0 0 1 .2-.7c1.3-7.2 3.4-14 3.8-20.6a14.8 14.8 0 0 0 .1-2.1h-18c.1 11.5 4.4 23.4 3.8 37.5a15.1 15.1 0 0 1-.4 2.6h10z" opacity=".64"/><path fill="#363740" fill-rule="evenodd" d="M35.2 53.2a17.6 17.6 0 0 1-.4-2.7c-.6-14.1 3.9-26 4-37.5h-1.7c-.1 11.5-3.8 23.5-3.3 37.7 0 .6.2 1.5.3 2.5zM41.5 13a27.1 27.1 0 0 0-1.1-8c-1.1-3.1-21.6-3.1-22.2 0a27.1 27.1 0 0 0-1.1 8h24.4z" opacity=".64"/><path fill="#363740" fill-rule="evenodd" d="M41.5 13v-2.8a1.3 1.3 0 0 0-.1-.6v-.7a1.3 1.3 0 0 1-.1-.6 1.3 1.3 0 0 1-.1-.6c-.1-.2-.1-.4-.2-.6 0-.2-.1-.4-.1-.6a6.4 6.4 0 0 1-.2-.7H18a6.4 6.4 0 0 1-.2.7c0 .2-.1.4-.1.6a1.3 1.3 0 0 0-.1.6 1.3 1.3 0 0 0-.1.6h-.1v.6h-.1v.5a1.3 1.3 0 0 0-.1.6v.7a.8.8 0 0 0-.1.4V13h24.4z" opacity=".64"/><path fill="#363740" fill-rule="evenodd" d="M41.5 13v-2.3c0-.2-.1-.3-.1-.5v-.7a.9.9 0 0 0-.1-.5v-.8a1.3 1.3 0 0 1-.1-.6 1.3 1.3 0 0 1-.1-.6 1.3 1.3 0 0 1-.1-.6 1.5 1.5 0 0 1-.1-.7.4.4 0 0 1-.1-.3H24.3a.4.4 0 0 0-.1.3 2 2 0 0 0-.1.7 1.3 1.3 0 0 0-.1.6 1.3 1.3 0 0 0-.1.6 1.3 1.3 0 0 0-.1.6c0 .2-.1.4-.1.6v.5h-.1V11a.4.4 0 0 0-.1.3V13h18z" opacity=".64"/><path fill="#363740" fill-rule="evenodd" d="M38 4.9h-1.6a42.5 42.5 0 0 1 .7 8h1.7a35.6 35.6 0 0 0-.8-8z" opacity=".64"/><path fill="#5c6373" stroke="#fff" stroke-miterlimit="10" stroke-width=".25" d="M30.5 35.6c-5 0-8.3-2.8-8.3-7.8s3.2-7.9 8.4-7.9a13.2 13.2 0 0 1 6 1.3l-1.5 3.9a8.5 8.5 0 0 0-4.3-1.3 3.6 3.6 0 0 0-3.9 3.9c0 2.7 1.1 4.1 3.8 4.1a5.8 5.8 0 0 0 1.9-.3V30h-3.4v-3.6h7.6v7.8a13.1 13.1 0 0 1-6.3 1.4z"/></symbol><symbol id="logo-256" viewBox="0 0 256 256"><path fill="#363740" fill-rule="evenodd" d="M170.1 48a.2.2 0 0 0 .2-.2 125.4 125.4 0 0 0-4.4-34.8C161-.4 76.9-.3 74.5 13a129.3 129.3 0 0 0-4.4 34.8c0 .1.1.2.3.2z" opacity=".64"/><path fill="#363740" fill-rule="evenodd" d="M147.9 253c19.1 0 2.1-38.3 1.3-50.8-4.1-70.6 32.2-127.8 17.6-184.1H73.6C59 74.4 95.3 131.6 91.2 202.2c-.8 12.5-17.8 50.8 1.3 50.8z" opacity=".64"/><path fill="#363740" fill-rule="evenodd" d="M147.9 253c19.1 0 2.1-38.3 1.3-50.8-4.2-71.9 33.7-130 16.7-187.4H99.6C87.1 72.2 115 130.3 111.9 202.2c-.6 12.5-13.1 50.8 1 50.8z" opacity=".64"/><path fill="#363740" fill-rule="evenodd" d="M90.9 14.8h-6.1l-.2.2c-13.1 57.4 16.3 115.3 13 187.2-.4 8.5-6.6 28.9-5.9 41.1.2 3.5 5.2 3.9 5.1 0-.2-12.5 4.6-32.1 4.9-40.4 2.7-72.2-21-130.5-10.8-188.1zm57.8 228.6c.8-12.2-5.5-32.7-5.9-41.2-3.3-71.9 26.1-129.8 13-187.2l-.2-.2h-6.1c10.2 57.6-13.5 115.9-10.8 188.1.3 8.4 5.2 28.2 4.9 40.6-.1 3.5 4.9 3.3 5.1-.1z" opacity=".64"/><path fill="#363740" fill-rule="evenodd" d="M151.2 213.2c.1 0 .2-.2.2-.3a72.7 72.7 0 0 1-2.2-10.7c-3.4-58 20.6-107 21.1-153.9a.3.3 0 0 0-.3-.3H70.4a.3.3 0 0 0-.3.3c.5 46.9 24.5 95.9 21.1 153.9a61.5 61.5 0 0 1-2.2 10.7.3.3 0 0 0 .3.3z" opacity=".64"/><path fill="#363740" fill-rule="evenodd" d="M81.4 48c-.1 0-.2.1-.2.3.4 46.9 19 95.9 16.4 153.9a78.9 78.9 0 0 1-1.7 11h4.6c.6-4.2 1.1-7.8 1.2-10.3 2.2-58.3-12.9-107.5-13.4-154.6 0-.2-.1-.3-.2-.3zm70.1 165.2v-2.9h-.1v-2.5l-.2-.7c0-.2-.1-.5-.1-.8v-.6h-.1v-.6h-.1c0-.4-.1-.8-.1-1.2a1.3 1.3 0 0 0-.1-.6c0-1.1-.1-2.1-.1-3.1v-1a14.8 14.8 0 0 1-.1-2.1V196a15.5 15.5 0 0 1-.1-2.2v-3.9c0-1 0-2 .1-3v-1a12.7 12.7 0 0 1 .1-2v-1.1c0-.7.1-1.3.1-2v-1c0-.8.1-1.6.1-2.4v-.6c0-1 .1-2 .2-3v-.4l.3-2.6V169l.3-2.3v-.8l.3-2.5v-.4c.2-2 .5-4 .8-6v-.6l.3-2.3v-.7l1.5-8.9.6-2.9c5.6-29.8 14-57.5 15.8-84.4V57c.2-2.9.3-5.8.4-8.7H96.6c-.1 0-.2.1-.2.3.3 46.9 18 95.9 15.5 153.9a87.2 87.2 0 0 1-1.6 10.7c0 .1.1.3.2.3z" opacity=".64"/><path fill="#363740" fill-rule="evenodd" d="M144.5 213.2a78.9 78.9 0 0 1-1.7-11c-2.6-58 16-107 16.4-153.9 0-.2-.1-.3-.2-.3h-6.7c-.1 0-.2.1-.2.3-.5 47.1-15.6 96.3-13.4 154.6a92.5 92.5 0 0 0 1.3 10.3z" opacity=".64"/><path fill="#363740" fill-rule="evenodd" d="M170.1 48a.2.2 0 0 0 .2-.2 113.1 113.1 0 0 0-4.4-33c-4.9-12.7-89-12.7-91.4 0a116.6 116.6 0 0 0-4.4 33c0 .1.1.2.3.2z" opacity=".64"/><path fill="#363740" fill-rule="evenodd" d="M170.3 48v-2.7a6.6 6.6 0 0 0-.1-1.4v-2.7a7.6 7.6 0 0 1-.1-1.5v-1c0-.7-.1-1.3-.1-1.9v-.7a18 18 0 0 0-.2-2.2v-.5l-.3-2.2v-.5l-.3-2.3v-.2c-.2-.9-.3-1.7-.4-2.5v-.2a18.4 18.4 0 0 0-.5-2.5v-.2l-.6-2.6c-.2-.8-.4-1.7-.7-2.6 0-.2-.1-.4-.1-.6L74 16.7c-.1.3-.1.5-.2.8-.2.9-.5 1.8-.7 2.6l-.6 2.6v.3c-.2.8-.3 1.6-.5 2.5v.2c-.2.8-.3 1.6-.5 2.5v.2l-.3 2.3v.5l-.3 2.2v.5a18 18 0 0 0-.2 2.2v.7c0 .6-.1 1.2-.1 1.9v2.5a5.7 5.7 0 0 0-.1 1.3v1.4a6.6 6.6 0 0 1-.1 1.4V48h99.9z" opacity=".64"/><path fill="#363740" fill-rule="evenodd" d="M170.3 48v-4.1c0-.4-.1-.9-.1-1.4v-1.3a7.6 7.6 0 0 0-.1-1.5v-1c0-.7-.1-1.3-.1-1.9v-.7c-.1-.7-.1-1.4-.2-2.2v-.5a15 15 0 0 1-.2-2.2v-.5c-.1-.7-.1-1.5-.2-2.3v-.2l-.3-2.5v-.2a18.7 18.7 0 0 0-.4-2.5v-.2c-.1-.8-.3-1.7-.4-2.6-.2-.8-.3-1.7-.5-2.6l-.3-1.3h-68l-.3 1.3c-.2.9-.4 1.8-.5 2.6-.2.9-.3 1.8-.4 2.6v.2l-.3 2.5v.2l-.3 2.5v.2a19.5 19.5 0 0 0-.2 2.3v.5c-.1.8-.1 1.5-.2 2.2v.5c-.1.8-.1 1.5-.2 2.2v.7a11.5 11.5 0 0 0-.1 1.9v2.5a5.7 5.7 0 0 1-.1 1.3V48h73.8z" opacity=".64"/><path fill="#363740" fill-rule="evenodd" d="M155.8 14.8h-6.3a174.2 174.2 0 0 1 2.6 33 .2.2 0 0 0 .2.2h6.7a.2.2 0 0 0 .2-.2 141.8 141.8 0 0 0-3.4-33z" opacity=".64"/><path fill="#5c6373" stroke="#fff" stroke-miterlimit="10" stroke-width="1.03" d="M125.2 140.9c-20.6 0-34.3-11.3-34.3-32s13.1-32.5 34.5-32.5c8.3 0 18.2 1.7 24.5 5.3l-6 16c-6.4-3.6-12-5-17.7-5-10 0-16 6.5-16 15.8 0 10.9 4.8 16.9 15.6 16.9a24.5 24.5 0 0 0 8-1.2V118h-14.1v-14.9H151v32.2c-6.8 3.5-15.7 5.6-25.8 5.6z"/></symbol><symbol id="logo-16" viewBox="0 0 16 16"><path fill="#363740" fill-rule="evenodd" d="M11.2 2.9a9.1 9.1 0 0 0-.3-2.3c-.3-.8-5.7-.8-5.8 0a9.1 9.1 0 0 0-.3 2.3z" opacity=".64"/><path fill="#363740" fill-rule="evenodd" d="M9.8 16c1.2 0 .1-2.5.1-3.3-.3-4.6 2.1-8.3 1-11.9H5.1C4 4.4 6.4 8.1 6.2 12.7c-.1.8-1.2 3.3 0 3.3z" opacity=".64"/><path fill="#363740" fill-rule="evenodd" d="M9.8 16c1.2 0 .1-2.5.1-3.3-.3-4.6 2.1-8.3 1-11.9H6.7c-.8 3.6 1 7.3.8 11.9-.1.8-.9 3.3 0 3.3z" opacity=".64"/><path fill="#363740" fill-rule="evenodd" d="M6.1.8h-.4c-.8 3.6 1.1 7.3.9 11.9a11 11 0 0 0-.4 2.7.2.2 0 1 0 .3 0c0-.8.3-2.1.3-2.6.2-4.6-1.3-8.4-.7-12zm3.7 14.6a20.2 20.2 0 0 0-.3-2.7c-.2-4.6 1.6-8.3.8-11.9h-.4c.6 3.6-.9 7.4-.7 12 0 .5.3 1.8.3 2.6a.2.2 0 0 0 .3 0z" opacity=".64"/><path fill="#363740" fill-rule="evenodd" d="M10 13.5a2.5 2.5 0 0 1-.1-.8c-.2-3.7 1.3-6.8 1.3-9.8H4.8c0 3 1.6 6.1 1.4 9.8-.1.2-.1.5-.2.8z" opacity=".64"/><path fill="#363740" fill-rule="evenodd" d="M5.5 2.9c0 3 1.2 6.1 1.1 9.8 0 .2-.1.5-.1.8h.2a2 2 0 0 0 .1-.7C7 9.1 6 5.9 6 2.9zM10 13.5h-.1v-.4c-.1-.1-.1-.1 0-.2v-.4h.1V9.9a1.1 1.1 0 0 0 .1-.5v-.5c.3-2 .9-3.7 1-5.4v-.6H6.5c0 3 1.1 6.1 1 9.8 0 .2-.1.5-.1.8z" opacity=".64"/><path fill="#363740" fill-rule="evenodd" d="M9.6 13.5a2.5 2.5 0 0 1-.1-.8c-.2-3.7 1-6.8 1-9.8h-.4c-.1 3-1 6.2-.9 9.9a2 2 0 0 0 .1.7z" opacity=".64"/><path fill="#363740" fill-rule="evenodd" d="M11.2 2.9a7.6 7.6 0 0 0-.3-2.1c-.3-.9-5.7-.9-5.8 0a7.6 7.6 0 0 0-.3 2.1z" opacity=".64"/><path fill="#363740" fill-rule="evenodd" d="M11.2 2.9V1.6c0-.1-.1-.1-.1-.2V.9H5v.4h-.1v.2h6.3z" opacity=".64"/><path fill="#363740" fill-rule="evenodd" d="M11.2 2.9V1.6a.1.1 0 0 1-.1-.1v-.4c0-.1 0-.1-.1-.2H6.7c0 .1-.1.1-.1.2v.2c0 .1-.1.1-.1.2h4.7z" opacity=".64"/><path fill="#363740" fill-rule="evenodd" d="M10.3.8h-.4a14.9 14.9 0 0 1 .2 2.1h.4a7.5 7.5 0 0 0-.2-2.1z" opacity=".64"/><path fill="#5c6373" stroke="#fff" stroke-miterlimit="10" stroke-width=".25" d="M8.3 8.8a1.9 1.9 0 0 1-2.2-2 2 2 0 0 1 2.2-2.1 3.8 3.8 0 0 1 1.6.3l-.4 1.1a1.7 1.7 0 0 0-1.1-.4 1 1 0 0 0-1 1.1.9.9 0 0 0 1 1h.5v-.4H8v-1h2v2.1a4.3 4.3 0 0 1-1.7.3z"/></symbol></svg>