<svg xmlns="http://www.w3.org/2000/svg" id="Layer_1" width="64" height="64" viewBox="0 0 64 64"><path fill="#363740" fill-rule="evenodd" d="M41.5 13a31.5 31.5 0 0 0-1.1-8.5c-1.1-3.2-21.6-3.2-22.2 0a31.5 31.5 0 0 0-1.1 8.5h24.4z" opacity=".64"/><path fill="#363740" fill-rule="evenodd" d="M36.1 62.9c4.6 0 .5-9.3.3-12.4-1-17.2 7.8-31.1 4.3-44.8H18c-3.6 13.7 5.2 27.6 4.2 44.8-.1 3.1-4.3 12.4.4 12.4z" opacity=".64"/><path fill="#363740" fill-rule="evenodd" d="M36.1 62.9c4.6 0 .5-9.3.3-12.4-1-17.5 8.2-31.6 4-45.6H24.3c-3.1 14 3.7 28.1 3 45.6-.2 3.1-3.2 12.4.2 12.4z" opacity=".64"/><path fill="#363740" fill-rule="evenodd" d="M22.2 4.9h-1.6c-3.2 14 4 28.1 3.2 45.6-.1 2.1-1.6 7.1-1.4 10 0 .9 1.2 1 1.2 0 0-3 1.1-7.8 1.2-9.8.7-17.6-5.1-31.8-2.6-45.8zm14.1 55.7c.1-3-1.4-8-1.5-10.1C34 33 41.2 18.9 38 4.9h-1.6c2.5 14-3.2 28.2-2.6 45.8.1 2 1.3 6.9 1.2 9.9 0 .9 1.2.8 1.3 0z" opacity=".64"/><path fill="#363740" fill-rule="evenodd" d="M36.8 53.2c.1 0 .1 0 .1-.1a9.8 9.8 0 0 1-.5-2.6c-.8-14.1 5-26 5.1-37.5H17.1c.1 11.5 6 23.4 5.1 37.5a9.8 9.8 0 0 1-.5 2.6c0 .1 0 .1.1.1z" opacity=".64"/><path fill="#363740" fill-rule="evenodd" d="M19.9 13h-.1c.1 11.5 4.6 23.4 4 37.5a17.6 17.6 0 0 1-.4 2.7h1.1a13.8 13.8 0 0 0 .3-2.5c.5-14.2-3.1-26.2-3.3-37.7h-1.6zm17 40.2h-.3V53h-.1v-.5a1.7 1.7 0 0 0-.1-.7v-6.3a.7.7 0 0 0 .1-.5v-.8c0-.3.1-.5.1-.8a1.3 1.3 0 0 1 .1-.6v-.9a1.3 1.3 0 0 0 .1-.6 7.7 7.7 0 0 0 .2-1.5 1.3 1.3 0 0 0 .1-.6h.1l.3-2.2a6.4 6.4 0 0 1 .2-.7c1.3-7.2 3.4-14 3.8-20.6a14.8 14.8 0 0 0 .1-2.1h-18c.1 11.5 4.4 23.4 3.8 37.5a15.1 15.1 0 0 1-.4 2.6h10z" opacity=".64"/><path fill="#363740" fill-rule="evenodd" d="M35.2 53.2a17.6 17.6 0 0 1-.4-2.7c-.6-14.1 3.9-26 4-37.5h-1.7c-.1 11.5-3.8 23.5-3.3 37.7 0 .6.2 1.5.3 2.5zM41.5 13a27.1 27.1 0 0 0-1.1-8c-1.1-3.1-21.6-3.1-22.2 0a27.1 27.1 0 0 0-1.1 8h24.4z" opacity=".64"/><path fill="#363740" fill-rule="evenodd" d="M41.5 13v-2.8a1.3 1.3 0 0 0-.1-.6v-.7a1.3 1.3 0 0 1-.1-.6 1.3 1.3 0 0 1-.1-.6c-.1-.2-.1-.4-.2-.6 0-.2-.1-.4-.1-.6a6.4 6.4 0 0 1-.2-.7H18a6.4 6.4 0 0 1-.2.7c0 .2-.1.4-.1.6a1.3 1.3 0 0 0-.1.6 1.3 1.3 0 0 0-.1.6h-.1v.6h-.1v.5a1.3 1.3 0 0 0-.1.6v.7a.8.8 0 0 0-.1.4V13h24.4z" opacity=".64"/><path fill="#363740" fill-rule="evenodd" d="M41.5 13v-2.3c0-.2-.1-.3-.1-.5v-.7a.9.9 0 0 0-.1-.5v-.8a1.3 1.3 0 0 1-.1-.6 1.3 1.3 0 0 1-.1-.6 1.3 1.3 0 0 1-.1-.6 1.5 1.5 0 0 1-.1-.7.4.4 0 0 1-.1-.3H24.3a.4.4 0 0 0-.1.3 2 2 0 0 0-.1.7 1.3 1.3 0 0 0-.1.6 1.3 1.3 0 0 0-.1.6 1.3 1.3 0 0 0-.1.6c0 .2-.1.4-.1.6v.5h-.1V11a.4.4 0 0 0-.1.3V13h18z" opacity=".64"/><path fill="#363740" fill-rule="evenodd" d="M38 4.9h-1.6a42.5 42.5 0 0 1 .7 8h1.7a35.6 35.6 0 0 0-.8-8z" opacity=".64"/><path fill="#5c6373" stroke="#fff" stroke-miterlimit="10" stroke-width=".25" d="M30.5 35.6c-5 0-8.3-2.8-8.3-7.8s3.2-7.9 8.4-7.9a13.2 13.2 0 0 1 6 1.3l-1.5 3.9a8.5 8.5 0 0 0-4.3-1.3 3.6 3.6 0 0 0-3.9 3.9c0 2.7 1.1 4.1 3.8 4.1a5.8 5.8 0 0 0 1.9-.3V30h-3.4v-3.6h7.6v7.8a13.1 13.1 0 0 1-6.3 1.4z"/></svg>