<svg xmlns="http://www.w3.org/2000/svg" id="Layer_1" width="32" height="32" viewBox="0 0 32 32"><path fill="#363740" fill-rule="evenodd" d="M20.7 5.8a14 14 0 0 0-.6-4.5C19.5-.4 8.8-.4 8.5 1.3a14 14 0 0 0-.6 4.5z" opacity=".64"/><path fill="#363740" fill-rule="evenodd" d="M17.8 32c2.5 0 .3-4.9.2-6.5-.5-9.2 4.3-16.6 2.1-24H8.5c-2.2 7.4 2.6 14.8 2.1 24-.1 1.6-2.3 6.5.2 6.5z" opacity=".64"/><path fill="#363740" fill-rule="evenodd" d="M17.8 32c2.5 0 .3-4.9.2-6.5-.5-9.2 4.3-16.6 2.1-24h-8.4c-1.6 7.4 1.9 14.8 1.5 24 0 1.6-1.6 6.5.2 6.5z" opacity=".64"/><path fill="#363740" fill-rule="evenodd" d="M10.5 1.5h-.8c-1.6 7.4 2.1 14.8 1.7 24 0 1.1-.8 3.7-.8 5.3s.7.5.7 0 .6-4.1.6-5.2c.4-9.2-2.7-16.7-1.4-24.1zm7.4 29.3c.1-1.6-.7-4.2-.7-5.3-.4-9.2 3.3-16.6 1.6-24H18c1.4 7.4-1.7 14.9-1.3 24.1 0 1.1.6 3.6.6 5.2a.3.3 0 0 0 .6 0z" opacity=".64"/><path fill="#363740" fill-rule="evenodd" d="M18.3 26.9c-.1-.6-.3-1.1-.3-1.4-.4-7.4 2.7-13.7 2.7-19.7H7.9c0 6 3.1 12.3 2.7 19.7 0 .3-.2.8-.3 1.4z" opacity=".64"/><path fill="#363740" fill-rule="evenodd" d="M9.3 5.8c0 6 2.4 12.3 2.1 19.7a11.5 11.5 0 0 1-.2 1.4h.6a6.6 6.6 0 0 0 .1-1.3c.3-7.5-1.6-13.8-1.7-19.8zm9 21.1H18v-4.5c0-.1.1-.2.1-.4v-1h.1v-.4c0-.3.1-.5.1-.8a.4.4 0 0 1 .1-.3 5 5 0 0 1 .2-1.2v-.4a97.3 97.3 0 0 0 2.1-11V5.8h-9.5c.1 6 2.4 12.3 2 19.7a11.5 11.5 0 0 1-.2 1.4z" opacity=".64"/><path fill="#363740" fill-rule="evenodd" d="M17.4 26.9a11.5 11.5 0 0 1-.2-1.4c-.3-7.4 2-13.7 2.1-19.7h-.9c-.1 6-2 12.3-1.7 19.8a6.6 6.6 0 0 0 .1 1.3zm3.3-21.1a12.4 12.4 0 0 0-.6-4.3C19.5-.1 8.8-.1 8.5 1.5a12.4 12.4 0 0 0-.6 4.3z" opacity=".64"/><path fill="#363740" fill-rule="evenodd" d="M20.7 5.8V4.3h-.1v-.7a.3.3 0 0 1-.1-.2v-.5a.4.4 0 0 1-.1-.3.4.4 0 0 0-.1-.3.4.4 0 0 0-.1-.3c0-.2 0-.3-.1-.4H8.5c-.1.1-.1.2-.1.4a.4.4 0 0 0-.1.3.4.4 0 0 0-.1.3c0 .1-.1.2-.1.3v.3a.3.3 0 0 0-.1.2v1.8h12.7z" opacity=".64"/><path fill="#363740" fill-rule="evenodd" d="M20.7 5.8V4.3c0-.1 0-.1-.1-.2v-.8c0-.1-.1-.2-.1-.3v-.4c0-.1-.1-.2-.1-.3v-.4a.8.8 0 0 1-.1-.4h-8.6c0 .1-.1.2-.1.4a.4.4 0 0 1-.1.3v.3a.4.4 0 0 1-.1.3v.5a.4.4 0 0 0-.1.3v1.5h9.4z" opacity=".64"/><path fill="#363740" fill-rule="evenodd" d="M18.8 1.5H18a20.2 20.2 0 0 1 .4 4.3h.9a15.4 15.4 0 0 0-.5-4.3z" opacity=".64"/><path fill="#5c6373" stroke="#fff" stroke-miterlimit="10" stroke-width=".25" d="M14.9 17.7c-2.6 0-4.4-1.5-4.4-4.1s1.7-4.2 4.5-4.2a6.4 6.4 0 0 1 3.1.7l-.8 2a4.9 4.9 0 0 0-2.2-.6 1.9 1.9 0 0 0-2.1 2c0 1.4.6 2.2 2 2.2l1-.2v-.8h-1.8v-1.9h4v4.1a6.4 6.4 0 0 1-3.3.8z"/></svg>