<svg xmlns="http://www.w3.org/2000/svg" id="Layer_1" width="16" height="16" viewBox="0 0 16 16"><path fill="#363740" fill-rule="evenodd" d="M11.2 2.9a9.1 9.1 0 0 0-.3-2.3c-.3-.8-5.7-.8-5.8 0a9.1 9.1 0 0 0-.3 2.3z" opacity=".64"/><path fill="#363740" fill-rule="evenodd" d="M9.8 16c1.2 0 .1-2.5.1-3.3-.3-4.6 2.1-8.3 1-11.9H5.1C4 4.4 6.4 8.1 6.2 12.7c-.1.8-1.2 3.3 0 3.3z" opacity=".64"/><path fill="#363740" fill-rule="evenodd" d="M9.8 16c1.2 0 .1-2.5.1-3.3-.3-4.6 2.1-8.3 1-11.9H6.7c-.8 3.6 1 7.3.8 11.9-.1.8-.9 3.3 0 3.3z" opacity=".64"/><path fill="#363740" fill-rule="evenodd" d="M6.1.8h-.4c-.8 3.6 1.1 7.3.9 11.9a11 11 0 0 0-.4 2.7.2.2 0 1 0 .3 0c0-.8.3-2.1.3-2.6.2-4.6-1.3-8.4-.7-12zm3.7 14.6a20.2 20.2 0 0 0-.3-2.7c-.2-4.6 1.6-8.3.8-11.9h-.4c.6 3.6-.9 7.4-.7 12 0 .5.3 1.8.3 2.6a.2.2 0 0 0 .3 0z" opacity=".64"/><path fill="#363740" fill-rule="evenodd" d="M10 13.5a2.5 2.5 0 0 1-.1-.8c-.2-3.7 1.3-6.8 1.3-9.8H4.8c0 3 1.6 6.1 1.4 9.8-.1.2-.1.5-.2.8z" opacity=".64"/><path fill="#363740" fill-rule="evenodd" d="M5.5 2.9c0 3 1.2 6.1 1.1 9.8 0 .2-.1.5-.1.8h.2a2 2 0 0 0 .1-.7C7 9.1 6 5.9 6 2.9zM10 13.5h-.1v-.4c-.1-.1-.1-.1 0-.2v-.4h.1V9.9a1.1 1.1 0 0 0 .1-.5v-.5c.3-2 .9-3.7 1-5.4v-.6H6.5c0 3 1.1 6.1 1 9.8 0 .2-.1.5-.1.8z" opacity=".64"/><path fill="#363740" fill-rule="evenodd" d="M9.6 13.5a2.5 2.5 0 0 1-.1-.8c-.2-3.7 1-6.8 1-9.8h-.4c-.1 3-1 6.2-.9 9.9a2 2 0 0 0 .1.7z" opacity=".64"/><path fill="#363740" fill-rule="evenodd" d="M11.2 2.9a7.6 7.6 0 0 0-.3-2.1c-.3-.9-5.7-.9-5.8 0a7.6 7.6 0 0 0-.3 2.1z" opacity=".64"/><path fill="#363740" fill-rule="evenodd" d="M11.2 2.9V1.6c0-.1-.1-.1-.1-.2V.9H5v.4h-.1v.2h6.3z" opacity=".64"/><path fill="#363740" fill-rule="evenodd" d="M11.2 2.9V1.6a.1.1 0 0 1-.1-.1v-.4c0-.1 0-.1-.1-.2H6.7c0 .1-.1.1-.1.2v.2c0 .1-.1.1-.1.2h4.7z" opacity=".64"/><path fill="#363740" fill-rule="evenodd" d="M10.3.8h-.4a14.9 14.9 0 0 1 .2 2.1h.4a7.5 7.5 0 0 0-.2-2.1z" opacity=".64"/><path fill="#5c6373" stroke="#fff" stroke-miterlimit="10" stroke-width=".25" d="M8.3 8.8a1.9 1.9 0 0 1-2.2-2 2 2 0 0 1 2.2-2.1 3.8 3.8 0 0 1 1.6.3l-.4 1.1a1.7 1.7 0 0 0-1.1-.4 1 1 0 0 0-1 1.1.9.9 0 0 0 1 1h.5v-.4H8v-1h2v2.1a4.3 4.3 0 0 1-1.7.3z"/></svg>