<svg xmlns="http://www.w3.org/2000/svg" id="Layer_1" width="256" height="256" viewBox="0 0 256 256"><path fill="#363740" fill-rule="evenodd" d="M170.1 48a.2.2 0 0 0 .2-.2 125.4 125.4 0 0 0-4.4-34.8C161-.4 76.9-.3 74.5 13a129.3 129.3 0 0 0-4.4 34.8c0 .1.1.2.3.2z" opacity=".64"/><path fill="#363740" fill-rule="evenodd" d="M147.9 253c19.1 0 2.1-38.3 1.3-50.8-4.1-70.6 32.2-127.8 17.6-184.1H73.6C59 74.4 95.3 131.6 91.2 202.2c-.8 12.5-17.8 50.8 1.3 50.8z" opacity=".64"/><path fill="#363740" fill-rule="evenodd" d="M147.9 253c19.1 0 2.1-38.3 1.3-50.8-4.2-71.9 33.7-130 16.7-187.4H99.6C87.1 72.2 115 130.3 111.9 202.2c-.6 12.5-13.1 50.8 1 50.8z" opacity=".64"/><path fill="#363740" fill-rule="evenodd" d="M90.9 14.8h-6.1l-.2.2c-13.1 57.4 16.3 115.3 13 187.2-.4 8.5-6.6 28.9-5.9 41.1.2 3.5 5.2 3.9 5.1 0-.2-12.5 4.6-32.1 4.9-40.4 2.7-72.2-21-130.5-10.8-188.1zm57.8 228.6c.8-12.2-5.5-32.7-5.9-41.2-3.3-71.9 26.1-129.8 13-187.2l-.2-.2h-6.1c10.2 57.6-13.5 115.9-10.8 188.1.3 8.4 5.2 28.2 4.9 40.6-.1 3.5 4.9 3.3 5.1-.1z" opacity=".64"/><path fill="#363740" fill-rule="evenodd" d="M151.2 213.2c.1 0 .2-.2.2-.3a72.7 72.7 0 0 1-2.2-10.7c-3.4-58 20.6-107 21.1-153.9a.3.3 0 0 0-.3-.3H70.4a.3.3 0 0 0-.3.3c.5 46.9 24.5 95.9 21.1 153.9a61.5 61.5 0 0 1-2.2 10.7.3.3 0 0 0 .3.3z" opacity=".64"/><path fill="#363740" fill-rule="evenodd" d="M81.4 48c-.1 0-.2.1-.2.3.4 46.9 19 95.9 16.4 153.9a78.9 78.9 0 0 1-1.7 11h4.6c.6-4.2 1.1-7.8 1.2-10.3 2.2-58.3-12.9-107.5-13.4-154.6 0-.2-.1-.3-.2-.3zm70.1 165.2v-2.9h-.1v-2.5l-.2-.7c0-.2-.1-.5-.1-.8v-.6h-.1v-.6h-.1c0-.4-.1-.8-.1-1.2a1.3 1.3 0 0 0-.1-.6c0-1.1-.1-2.1-.1-3.1v-1a14.8 14.8 0 0 1-.1-2.1V196a15.5 15.5 0 0 1-.1-2.2v-3.9c0-1 0-2 .1-3v-1a12.7 12.7 0 0 1 .1-2v-1.1c0-.7.1-1.3.1-2v-1c0-.8.1-1.6.1-2.4v-.6c0-1 .1-2 .2-3v-.4l.3-2.6V169l.3-2.3v-.8l.3-2.5v-.4c.2-2 .5-4 .8-6v-.6l.3-2.3v-.7l1.5-8.9.6-2.9c5.6-29.8 14-57.5 15.8-84.4V57c.2-2.9.3-5.8.4-8.7H96.6c-.1 0-.2.1-.2.3.3 46.9 18 95.9 15.5 153.9a87.2 87.2 0 0 1-1.6 10.7c0 .1.1.3.2.3z" opacity=".64"/><path fill="#363740" fill-rule="evenodd" d="M144.5 213.2a78.9 78.9 0 0 1-1.7-11c-2.6-58 16-107 16.4-153.9 0-.2-.1-.3-.2-.3h-6.7c-.1 0-.2.1-.2.3-.5 47.1-15.6 96.3-13.4 154.6a92.5 92.5 0 0 0 1.3 10.3z" opacity=".64"/><path fill="#363740" fill-rule="evenodd" d="M170.1 48a.2.2 0 0 0 .2-.2 113.1 113.1 0 0 0-4.4-33c-4.9-12.7-89-12.7-91.4 0a116.6 116.6 0 0 0-4.4 33c0 .1.1.2.3.2z" opacity=".64"/><path fill="#363740" fill-rule="evenodd" d="M170.3 48v-2.7a6.6 6.6 0 0 0-.1-1.4v-2.7a7.6 7.6 0 0 1-.1-1.5v-1c0-.7-.1-1.3-.1-1.9v-.7a18 18 0 0 0-.2-2.2v-.5l-.3-2.2v-.5l-.3-2.3v-.2c-.2-.9-.3-1.7-.4-2.5v-.2a18.4 18.4 0 0 0-.5-2.5v-.2l-.6-2.6c-.2-.8-.4-1.7-.7-2.6 0-.2-.1-.4-.1-.6L74 16.7c-.1.3-.1.5-.2.8-.2.9-.5 1.8-.7 2.6l-.6 2.6v.3c-.2.8-.3 1.6-.5 2.5v.2c-.2.8-.3 1.6-.5 2.5v.2l-.3 2.3v.5l-.3 2.2v.5a18 18 0 0 0-.2 2.2v.7c0 .6-.1 1.2-.1 1.9v2.5a5.7 5.7 0 0 0-.1 1.3v1.4a6.6 6.6 0 0 1-.1 1.4V48h99.9z" opacity=".64"/><path fill="#363740" fill-rule="evenodd" d="M170.3 48v-4.1c0-.4-.1-.9-.1-1.4v-1.3a7.6 7.6 0 0 0-.1-1.5v-1c0-.7-.1-1.3-.1-1.9v-.7c-.1-.7-.1-1.4-.2-2.2v-.5a15 15 0 0 1-.2-2.2v-.5c-.1-.7-.1-1.5-.2-2.3v-.2l-.3-2.5v-.2a18.7 18.7 0 0 0-.4-2.5v-.2c-.1-.8-.3-1.7-.4-2.6-.2-.8-.3-1.7-.5-2.6l-.3-1.3h-68l-.3 1.3c-.2.9-.4 1.8-.5 2.6-.2.9-.3 1.8-.4 2.6v.2l-.3 2.5v.2l-.3 2.5v.2a19.5 19.5 0 0 0-.2 2.3v.5c-.1.8-.1 1.5-.2 2.2v.5c-.1.8-.1 1.5-.2 2.2v.7a11.5 11.5 0 0 0-.1 1.9v2.5a5.7 5.7 0 0 1-.1 1.3V48h73.8z" opacity=".64"/><path fill="#363740" fill-rule="evenodd" d="M155.8 14.8h-6.3a174.2 174.2 0 0 1 2.6 33 .2.2 0 0 0 .2.2h6.7a.2.2 0 0 0 .2-.2 141.8 141.8 0 0 0-3.4-33z" opacity=".64"/><path fill="#5c6373" stroke="#fff" stroke-miterlimit="10" stroke-width="1.03" d="M125.2 140.9c-20.6 0-34.3-11.3-34.3-32s13.1-32.5 34.5-32.5c8.3 0 18.2 1.7 24.5 5.3l-6 16c-6.4-3.6-12-5-17.7-5-10 0-16 6.5-16 15.8 0 10.9 4.8 16.9 15.6 16.9a24.5 24.5 0 0 0 8-1.2V118h-14.1v-14.9H151v32.2c-6.8 3.5-15.7 5.6-25.8 5.6z"/></svg>