<svg xmlns="http://www.w3.org/2000/svg"><symbol id="beer" viewBox="0 0 800 800"><path fill="#828181" fill-rule="evenodd" stroke="#595650" stroke-miterlimit="10" d="M243.4 712.5c-21.8 0-39.6-12.8-39.6-28.5V364.2c0-62.7 54.8-108.1 56.4-130.1l8.6-141.5h58.7l8.6 141.5c1.4 22 56.4 67.4 56.4 130.1V684c0 15.7-17.9 28.5-39.6 28.5z" opacity=".64"/><path fill="#828181" fill-rule="evenodd" stroke="#595650" stroke-miterlimit="10" d="M308.3 92.6h19.2l8.6 141.5c1.4 22 56.4 67.4 56.4 130.1V684c0 15.7-17.8 28.5-39.6 28.5h-61.8c-14.8 0-26.9-12.8-26.9-28.5V364.2c0-62.7 37.3-108.1 38.3-130.1z" opacity=".64"/><path fill="#828181" fill-rule="evenodd" stroke="#595650" stroke-miterlimit="10" d="M317 92h4.2l5.5 142.1c.9 22 42.4 67.4 42.4 130.1V684c0 14.4-14.3 22.9-14.3 5.6V363.5c0-64-33.2-110.2-33.8-132.8zm-89.9 592V364.2c0-62.7 41.3-108.1 42.5-130.1l10.1-143.8h4.3l-8.7 140.4c-.9 22.5-33.8 68.8-33.8 132.8v326.1c0 17.3-14.4 8.8-14.4-5.6z" opacity=".64"/><path fill="#828181" fill-rule="evenodd" stroke="#595650" stroke-miterlimit="10" d="M278.1 82.7h40.1a13.3 13.3 0 0 1 13.3 13.2v8.7h-66.7v-8.7a13.3 13.3 0 0 1 13.3-13.2zm20 538.4c44.6 0 80.9-52.8 80.9-117.6s-36.3-117.7-80.9-117.7-80.8 52.9-80.8 117.7 36.3 117.6 80.8 117.6z" opacity=".64"/><path fill="#828181" fill-rule="evenodd" stroke="#595650" stroke-miterlimit="10" d="M227.1 559.9V447.1a123.2 123.2 0 0 1 14.4-27.5v167.8a127.7 127.7 0 0 1-14.4-27.5zm71-174.1c44.7 0 80.9 52.7 80.9 117.7s-36.2 117.6-80.9 117.6c-12.1 0-23.6-3.9-33.9-10.8V396.7c10.3-7 21.8-10.9 33.9-10.9z" opacity=".64"/><path fill="#828181" fill-rule="evenodd" stroke="#595650" stroke-miterlimit="10" d="M369.1 447.1v112.8a123.2 123.2 0 0 1-14.3 27.5V419.6a121.1 121.1 0 0 1 14.3 27.5zM299.7 82.7h18.5a13.3 13.3 0 0 1 13.3 13.2v8.7h-45v-8.7a13.3 13.3 0 0 1 13.2-13.2z" opacity=".64"/><path fill="#828181" fill-rule="evenodd" stroke="#595650" stroke-miterlimit="10" d="M288.4 82.7h5.3a13.3 13.3 0 0 0-13.3 13.2v8.7h-5.3v-8.7a13.3 13.3 0 0 1 13.3-13.2zm22.4 0h-5.3a13.3 13.3 0 0 1 13.3 13.2v8.7h5.3v-8.7a13.3 13.3 0 0 0-13.3-13.2zm286.1 304.1c.1-18.7-1.8-37.2-7-55.7-7.7-21.3-141.4-21.2-145.2 0a203.6 203.6 0 0 0-7 55.7z" opacity=".64"/><path fill="#828181" fill-rule="evenodd" stroke="#595650" stroke-miterlimit="10" d="M561.3 712.5c30.4 0 3.3-60.9 2.2-80.8-6.7-114.3 53.4-206.5 26.4-297.8H444.7c-27 91.3 33.2 183.5 26.5 297.8-1.2 19.9-28.3 80.8 2.1 80.8z" opacity=".64"/><path fill="#828181" fill-rule="evenodd" stroke="#595650" stroke-miterlimit="10" d="M561.3 712.5c30.4 0 3.3-60.9 2.2-80.8-6.7-114.3 53.4-206.5 26.4-297.8H484.6c-20 91.3 24.4 183.5 19.5 297.8-.9 19.9-20.9 80.8 1.6 80.8z" opacity=".64"/><path fill="#828181" fill-rule="evenodd" stroke="#595650" stroke-miterlimit="10" d="M470.8 333.9h-10c-21 91.3 25.8 183.5 20.6 297.8-.6 13.5-10.6 46-9.4 65.4.3 5.6 8.3 6.2 8.2 0-.4-19.8 7.3-51 7.7-64.2 4.3-114.7-33.4-207.3-17.1-299zm91.9 363.4c1.1-19.4-8.8-52-9.4-65.6-5.3-114.3 41.6-206.5 20.5-297.8h-9.9c16.3 91.7-21.4 184.3-17.2 299 .5 13.3 8.2 44.8 7.8 64.6-.2 5.5 7.8 5.2 8.2-.2z" opacity=".64"/><path fill="#828181" fill-rule="evenodd" stroke="#595650" stroke-miterlimit="10" d="M567 649.2c-1.8-7-3.3-13.2-3.5-17.5-5.4-92.3 32.8-170.2 33.4-244.9H437.7c.7 74.7 38.9 152.6 33.5 244.9-.3 4.3-1.7 10.5-3.5 17.5z" opacity=".64"/><path fill="#828181" fill-rule="evenodd" stroke="#595650" stroke-miterlimit="10" d="M455.3 386.8c.5 74.7 30.3 152.6 26.1 244.9a120.5 120.5 0 0 1-2.8 17.5h7.3a128.9 128.9 0 0 0 2-16.3c3.5-92.7-20.5-171.1-21.2-246.1zM567 649.2v-2.3l-.2-.6v-5.5l-.2-.9v-.2l-.2-1a5 5 0 0 1-.2-1.2l-.2-1h-.1v-.9l-.3-1.9v-1l-.3-4.8v-1.6c-.1-1.1-.1-2.2-.1-3.3v-6.6c0-1.4 0-2.8.1-4.2v-7c0-1.1 0-2.2.1-3.3v-1.7c0-1 .1-2.1.1-3.2v-1.6c.1-1.2.2-2.5.2-3.7v-1c.1-1.6.2-3.2.4-4.8v-.6c.1-1.4.3-2.8.4-4.1V579c.1-1.2.2-2.4.4-3.6v-1.2c.2-1.4.3-2.7.5-4v-.7c.4-3.2.9-6.3 1.3-9.5v-.9l.6-3.8.2-1c.7-4.8 1.5-9.5 2.3-14.2h.1c.2-1.6.5-3.1.8-4.6v-.3c8.9-47.4 22.3-91.4 25.1-134.2v-.2c.3-4.6.5-9.2.5-13.8H479.4c.5 74.7 28.7 152.6 24.7 244.9-.2 4.3-1.3 10.5-2.6 17.5z" opacity=".64"/><path fill="#828181" fill-rule="evenodd" stroke="#595650" stroke-miterlimit="10" d="M556 649.2c-1.4-7-2.6-13.2-2.7-17.5-4.3-92.3 25.5-170.2 26-244.9H568c-.7 75-24.7 153.4-21.3 246.1a150.6 150.6 0 0 0 2 16.3zm40.9-262.4c.1-17.8-1.8-35.3-7-52.9-7.7-20.1-141.4-20.1-145.2 0a184.1 184.1 0 0 0-7 52.9z" opacity=".64"/><path fill="#828181" fill-rule="evenodd" stroke="#595650" stroke-miterlimit="10" d="M596.9 386.8v-6.4a18.5 18.5 0 0 1-.1-2.3c0-.7-.1-1.4-.1-2.1s-.1-1.6-.1-2.4V372c-.1-1-.1-2-.2-3v-1.1l-.3-3.4v-.9c-.1-1.1-.3-2.3-.4-3.4v-.9l-.6-3.6v-.4c-.2-1.4-.5-2.7-.7-4v-.3c-.2-1.3-.5-2.7-.7-4v-.2l-.9-4.1v-.2c-.4-1.4-.7-2.8-1.1-4.1l-1.2-4.3H444.7l-1.2 4.3c-.3 1.3-.7 2.7-1 4.1v.2l-.9 4.1v.2c-.3 1.3-.6 2.7-.8 4v.3l-.6 4v.4c-.2 1.2-.4 2.4-.5 3.6v.9c-.2 1.1-.3 2.3-.4 3.4v.9c-.2 1.1-.3 2.2-.4 3.4v1.1l-.3 3v1.6a19.3 19.3 0 0 1-.1 2.4 14.8 14.8 0 0 1-.1 2.1v2.3a14.8 14.8 0 0 1-.1 2.1v4.3h158.6z" opacity=".64"/><path fill="#828181" fill-rule="evenodd" stroke="#595650" stroke-miterlimit="10" d="M596.9 386.8v-6.4c0-.8-.1-1.6-.1-2.3V376a19.3 19.3 0 0 1-.1-2.4V372c0-1-.1-2-.2-3v-1.1l-.3-3.4v-.9l-.3-3.4v-.9c-.1-1.2-.3-2.4-.4-3.6v-.4c-.2-1.4-.4-2.7-.5-4v-.3l-.6-4v-.2c-.2-1.4-.4-2.8-.7-4.1v-.2c-.2-1.4-.5-2.8-.8-4.1-.3-1.4-.5-2.8-.9-4.3H484.8l-.9 4.3c-.3 1.3-.5 2.7-.8 4.1v.2c-.2 1.3-.5 2.7-.7 4.1v.2l-.6 4v.3c-.2 1.3-.4 2.6-.5 4v.4c-.1 1.2-.2 2.4-.4 3.6v.9c-.1 1.1-.2 2.3-.2 3.4v.9l-.3 3.4v1.1c-.1 1-.1 2-.2 3v1.6a19.3 19.3 0 0 0-.1 2.4 14.8 14.8 0 0 0-.1 2.1v2.3a14.8 14.8 0 0 0-.1 2.1v4.3h117z" opacity=".64"/><path fill="#828181" fill-rule="evenodd" stroke="#595650" stroke-miterlimit="10" d="M573.8 333.9h-9.9a293.3 293.3 0 0 1 4.1 52.9h11.3a225.4 225.4 0 0 0-5.5-52.9z" opacity=".64"/></symbol><symbol id="champage" viewBox="0 0 800 800"><path fill="#828181" fill-rule="evenodd" stroke="#595650" stroke-miterlimit="10" d="M328.6 86.3c-34.5 0-33.9 18.5-25.3 52.7 4.4 17.5-6 6.3-8 23.4s6.8 13.1 6.8 24.8-4.6 96.6-22.1 137.5c-46.7 108.9-59.8 247.9-20.6 367.1 5.6 16.9 15.8 17.1 17.1 19.1 25.2.7 38.7 1.1 52.1 1.1s26.9-.4 52.2-1.1c1.2-2 11.4-2.2 17-19.1 39.2-119.2 26.1-258.2-20.5-367.1-17.6-40.9-22.3-121.2-22.3-132.9s13.8-10.7 11.8-27.8-17.8-3.6-13.5-21.1c8.6-34.2 9.9-56.6-24.7-56.6z"/><path fill="#828181" fill-rule="evenodd" stroke="#595650" stroke-miterlimit="10" d="M312 89.9c-12.1 6.9-13.7 23.7-8.7 49.1 3.4 17.5-6.5 6.3-8 23.4s6.8 13.1 6.8 24.8 2.3 96.6-11.3 137.5c-36.3 108.8-46.5 247.8-16.1 366.9 2.7 7.8 13.4 5.7 12.6 0-21.9-119.9-14.1-258.9 12.9-368 10.2-41.6 8.5-127.7 8.5-139.6s-6.3-7.9-5.1-25.2 8.5-6 6-23.8c-3.1-21.2-2.8-36.4 2.4-45.1z"/><path fill="#828181" fill-rule="evenodd" stroke="#595650" stroke-miterlimit="10" d="M344.7 711.8c9.4-.1 20.5-.5 36.1-.9 1.2-2 11.4-2.2 17-19.1 39.2-119.2 26.1-258.2-20.5-367.1-17.6-40.9-19.2-124.2-19.2-135.9s10.7-7.7 8.7-24.8-14.6-5.9-10.2-23.4c7-28 9-45.3-11.4-50.7-14.3 5.4-17.1 21.1-12.2 49.1 3.1 17.5-5.8 6.3-7.2 23.4s6.2 13.1 6.2 24.8 2.1 96.6-10.3 137.5c-32.8 108.9-42 247.9-14.4 367.1 3.9 16.9 11.1 17.1 12 19.1 10.9.4 18.8.8 25.4.9z"/><path fill="#828181" fill-rule="evenodd" stroke="#595650" stroke-miterlimit="10" d="M382.5 691.6c30.5-119.1 20.3-258.1-16-366.9-13.7-40.9-11.4-125.8-11.4-137.5s8.3-7.7 6.8-24.8-11.4-5.9-8-23.4c5-25.4 3.4-42.2-8.7-49.1 5.2 8.7 5.5 23.9 2.4 45.1-2.5 17.8 4.9 6.4 6 23.8s-5.1 13.3-5.1 25.2-1.7 98 8.5 139.6c27 109.1 34.8 248.1 12.9 368-1.6 7 10.5 7.3 12.6 0z"/><path fill="#828181" fill-rule="evenodd" stroke="#595650" stroke-miterlimit="10" d="M328.6 640.5c45.3 0 82.2-44.7 82.2-99.5s-36.9-99.4-82.2-99.4-82.3 44.7-82.3 99.4 37 99.5 82.3 99.5z"/><path fill="#828181" fill-rule="evenodd" stroke="#595650" stroke-miterlimit="10" d="M328.6 486.4c18.4 0 33.4-20.2 33.4-44.8s-15-44.8-33.4-44.8-33.4 20.1-33.4 44.8 15 44.8 33.4 44.8zm0-400.1c-34.5 0-41.1 18.5-32.6 52.7 4.4 17.5-8.2 6.3-10.2 23.4s8.8 13.1 8.8 24.8 2.2 75.5-8.7 119.3c8.4 13.6 24.4 22.8 42.7 22.8s34.3-9.2 42.7-22.8c-10.9-43.9-8.7-109.1-8.7-119.3s10.8-7.7 8.8-24.8-14.6-5.9-10.2-23.4c8.5-34.2 2-52.7-32.6-52.7z"/><path fill="#828181" fill-rule="evenodd" stroke="#595650" stroke-miterlimit="10" d="M293.4 315.7a46 46 0 0 0 7.3 5.7c9.7-42.4 8-125.7 8-137.4s-6.3-7.9-5.1-25.2 8.5-6 6-23.8c-3.1-21.2-2.8-36.4 2.4-45.1-12.1 6.9-13.7 23.7-8.7 49.1 3.4 17.5-6.5 6.3-8 23.4s6.8 13.1 6.8 24.8 2 85.2-8.7 128.5zm77.9-9.2c-9.1-36.4-9.1-79.5-8.7-118.2v-1.1c0-11.7 10.8-7.7 8.8-24.8s-14.8-4.3-9.9-24.9c3.5-14.4 6.9-35.3-7.2-45.1-2.6-1.9-9.2-6-23.5-6.1-2.3 14.6-2.7 24.7 2.2 52.7 3.1 17.5-5.8 6.3-7.2 23.4s6.2 13.1 6.2 24.8 2.1 96.6-10.3 137.5l-1.2 4c20.6 3.1 40.8-5.9 50.8-22.2z"/><path fill="#828181" fill-rule="evenodd" stroke="#595650" stroke-miterlimit="10" d="M356.5 321.3a44.3 44.3 0 0 0 7.4-5.7c-10.8-43.2-8.8-117.5-8.8-128.4s8.3-7.7 6.8-24.8-11.4-5.9-8-23.4c5-25.4 3.4-42.2-8.7-49.1 5.2 8.7 5.5 23.9 2.4 45.1-2.5 17.8 4.9 6.4 6 23.8s-5.1 13.3-5.1 25.2-1.6 95 8 137.3z"/><path fill="#828181" fill-rule="evenodd" stroke="#595650" stroke-miterlimit="10" d="M296.8 142.9c.5 3.9-.3 5.7-1.7 6.8h67c-1.4-1.1-2.2-2.9-1.7-6.8zm-3.2 39.1a12.3 12.3 0 0 1 1 5.2v1.6h68v-1.6a10.9 10.9 0 0 1 1.1-5.2z"/><path fill="#828181" fill-rule="evenodd" stroke="#595650" stroke-miterlimit="10" d="M354.7 149.7c-1.1-1.1-1.7-2.9-1.3-6.8h-6.2c.4 4.2 2.6 3.8 4.4 6.8zm.4 39.1v-1.6a14.5 14.5 0 0 1 .8-5.2h-7.3a12.7 12.7 0 0 0-.1 2v4.8zm-52.6-39.1h3.2c1.7-3 3.9-2.6 4.3-6.8h-6.1c.4 3.9-.3 5.7-1.4 6.8zm-.4 39.1h6.7c-.1-2.1-.1-3.7-.1-4.8a12.7 12.7 0 0 0-.1-2h-7.3a14.5 14.5 0 0 1 .8 5.2zM450.3 712h62.6a6.9 6.9 0 0 0 6.9-6.9 6.9 6.9 0 0 0-6.9-6.8h-62.6a6.9 6.9 0 0 0-6.9 6.8 6.9 6.9 0 0 0 6.9 6.9z"/><path fill="#828181" fill-rule="evenodd" stroke="#595650" stroke-miterlimit="10" d="M494.7 702.1c-3.5-5.8-8.4-9.4-8.4-29.6V568.3c0-21.7 6.8-32.3 14.1-41h-37.7c7.4 8.7 14.1 19.3 14.1 41v104.2c0 20.2-4.9 23.8-8.3 29.6 5 7.8 20.2 5.1 26.2 0z"/><path fill="#828181" fill-rule="evenodd" stroke="#595650" stroke-miterlimit="10" d="M463.4 528.1c7.1 8.5 13.4 19.2 13.4 40.2v104.2c0 15.8-3 21.5-6 26 10.4 1.1 9.7-26.2 9.7-34.6V559.7c0-9.6 0-27-3.6-32.4s-9.1 2.5-13.5.8zm-16 183.9h68.3c2.2 0 4.1-3.1 4.1-6.9h-76.4c0 3.8 1.8 6.9 4 6.9z"/><path fill="#828181" fill-rule="evenodd" stroke="#595650" stroke-miterlimit="10" d="M513.5 312.5h-63.9c-3.3 21.3-20.5 91.5-11.5 152.4 6.7 45.6 24.8 71.6 43.5 71.6s36.8-26 43.5-71.6c8.9-60.9-8.3-131.1-11.6-152.4z"/><path fill="#828181" fill-rule="evenodd" stroke="#595650" stroke-miterlimit="10" d="M461.7 312.5h-5.5c-2.6 20.5-16.3 88.1-9.2 146.8 2.9 23.4 8.3 41.4 14.9 53.2-3.2-11.6-5.8-26.4-7.4-44.1-5.6-62.4 5.1-134.1 7.2-155.9z"/><path fill="#828181" fill-rule="evenodd" stroke="#595650" stroke-miterlimit="10" d="M437.8 386c-2.6 25-3.6 52.8.3 78.9 6.7 45.6 24.8 71.6 43.5 71.6s36.8-26 43.5-71.6c3.8-26.1 2.8-53.9.2-78.9z"/><path fill="#828181" fill-rule="evenodd" stroke="#595650" stroke-miterlimit="10" d="M513.5 312.5h-40.1c-2.3 21.3-14.2 91.5-8 152.4 3.9 38.8 13.6 63.4 24.5 69.9 15.5-6.5 29.5-31.1 35.2-69.9a263.8 263.8 0 0 0 2.5-37.8c0-49.6-11.4-97.6-14.1-114.6z"/><path fill="#828181" fill-rule="evenodd" stroke="#595650" stroke-miterlimit="10" d="M507 312.5h-5.5c2 21.8 12.7 93.5 7.2 155.9-1.6 17.7-4.2 32.5-7.5 44.1 6.7-11.7 12.1-29.8 14.9-53.2 7.1-58.7-6.5-126.3-9.1-146.8z"/><path fill="#828181" fill-rule="evenodd" stroke="#595650" stroke-miterlimit="10" d="M465.2 386c-1.8 25-2.5 52.8.2 78.9 3.9 38.8 13.6 63.4 24.5 69.9 15.5-6.5 29.5-31.1 35.2-69.9a263.8 263.8 0 0 0 2.5-37.8 391.8 391.8 0 0 0-2.3-41.1zm-18.6 0c-1.9 23.4-2.5 49.1.4 73.3s8.3 41.4 14.9 53.2c-3.2-11.6-5.8-26.4-7.4-44.1-2.5-27.3-1.8-56.4-.1-82.4z"/><path fill="#828181" fill-rule="evenodd" stroke="#595650" stroke-miterlimit="10" d="M508.7 386c1.7 26 2.4 55.1 0 82.4-1.6 17.7-4.2 32.5-7.5 44.1 6.7-11.7 12.1-29.8 14.9-53.2s2.3-49.9.4-73.3zm-18.2 135.8a2.3 2.3 0 1 0-2.3-2.3 2.3 2.3 0 0 0 2.3 2.3zm-11.6-6.5a2.4 2.4 0 1 0-2.3-2.4 2.3 2.3 0 0 0 2.3 2.4zm5.8-6.2a2.4 2.4 0 1 0-2.3-2.3 2.4 2.4 0 0 0 2.3 2.3zm-8.1-11.6a2.4 2.4 0 1 0-2.3-2.4 2.3 2.3 0 0 0 2.3 2.4zm5.4-8.6a2.3 2.3 0 1 0-2.3-2.3 2.3 2.3 0 0 0 2.3 2.3zm-5-6.9a2.4 2.4 0 1 0-2.3-2.3 2.3 2.3 0 0 0 2.3 2.3zm7.3-3.1a2.4 2.4 0 1 0-2.3-2.3 2.4 2.4 0 0 0 2.3 2.3zm-8.9-19a2.3 2.3 0 1 0-2.3-2.3 2.3 2.3 0 0 0 2.3 2.3zm8.2-5.4a2.4 2.4 0 0 0 0-4.7 2.4 2.4 0 1 0 0 4.7z"/><path fill="#828181" fill-rule="evenodd" stroke="#595650" stroke-miterlimit="10" d="M481.2 454.5a2.4 2.4 0 1 0-2.3-2.3 2.4 2.4 0 0 0 2.3 2.3zm-3.4-4.7a2.3 2.3 0 1 0-2.4-2.3 2.3 2.3 0 0 0 2.4 2.3zm8.1-11.2a2.3 2.3 0 1 0-2.3-2.3 2.3 2.3 0 0 0 2.3 2.3zm-10.1-14.7a2.3 2.3 0 1 0-2.3-2.3 2.3 2.3 0 0 0 2.3 2.3zm6.6-5a2.4 2.4 0 1 0-2.3-2.3 2.3 2.3 0 0 0 2.3 2.3zm-6.2-5.8a2.4 2.4 0 1 0-2.3-2.4 2.3 2.3 0 0 0 2.3 2.4zm8.1-3.9a2.3 2.3 0 1 0-2.3-2.3 2.3 2.3 0 0 0 2.3 2.3zm-1.9-9.3a2.3 2.3 0 1 0-2.3-2.3 2.3 2.3 0 0 0 2.3 2.3zm2.7-7.7a2.4 2.4 0 1 0-2.3-2.4 2.3 2.3 0 0 0 2.3 2.4zm-12 .7a2.3 2.3 0 1 0-2.3-2.3 2.3 2.3 0 0 0 2.3 2.3z"/></symbol><symbol id="wine" viewBox="0 0 800 800"><path fill="#828181" fill-rule="evenodd" stroke="#595650" stroke-miterlimit="10" d="M266.4 709.6c-18.8 0-34.2-13.9-34.2-30.8V332.6c0-67.9 47.3-73.4 48.6-97.3l7.4-136.1h50.6l7.4 136.1c1.3 23.9 48.6 29.4 48.6 97.3v346.2c0 16.9-15.4 30.8-34.1 30.8z"/><path fill="#828181" fill-rule="evenodd" stroke="#595650" stroke-miterlimit="10" d="M346.2 235.3a4.5 4.5 0 0 1 .1 1.1c.1.4.1.8.2 1.1s.1.7.2 1.1l.3 1 .3 1 .4 1 .5 1 .5 1 .6.9a3.3 3.3 0 0 0 .6 1l.6.9a8.6 8.6 0 0 1 .7 1l.7.9.8.9.8.9.9 1 .9.9.9.9.9.9 1 1 1 1 1 .9 1 1 1.1 1 1 1 1.1 1 1.1 1.1 1.1 1.1 1.1 1.1 1.2 1.1 1.1 1.2 1.1 1.2a6.3 6.3 0 0 1 1.1 1.2l1.1 1.2 1.2 1.3a6.9 6.9 0 0 0 1.1 1.3 13.4 13.4 0 0 0 1.1 1.4l1 1.4 1.1 1.5 1.1 1.5 1 1.5a14 14 0 0 1 1 1.6 9.5 9.5 0 0 1 1 1.7l1 1.6.9 1.8 1 1.8c.3.6.5 1.2.8 1.9l.9 1.9.8 2 .8 2c.2.7.5 1.4.7 2.2a17.2 17.2 0 0 1 .7 2.1c.2.8.5 1.5.7 2.3l.6 2.3a20.5 20.5 0 0 1 .5 2.4l.6 2.5c.1.8.3 1.7.4 2.5a25.1 25.1 0 0 1 .4 2.7 21.9 21.9 0 0 1 .4 2.7l.3 2.8c.1.9.1 1.9.2 2.8s.1 2 .2 3 0 2 .1 3v349.4c0 16.9-15.4 30.8-34.1 30.8h-59.1c-15.8 0-25.3-17.4-25.3-28.8V332.6c0-67.9 31.4-73.4 31.5-97.3l.4-136.1h30.6z"/><path fill="#828181" fill-rule="evenodd" stroke="#595650" stroke-miterlimit="10" d="M250.5 678.8V332.6c0-39.3 12.2-57.7 22.8-70.8l3.8-4.7c5.1-6.2 11.5-6.5 8.5 0-.8 1.8-2 3.5-3 5.4-7.2 13.2-14.7 32-14.7 68.8v348.3c0 16-17.4 10.2-17.4-.8zm37.9-450.6l5.5-129h5.2l-3.8 129c-.2 6.7-6.7 6.3-6.9 0zm39.5-129h5.2l5.5 129c.2 5.7-6.7 6.2-6.8 0l-3.9-129zm22 157.9a60.6 60.6 0 0 1 4.4 5.4c10.4 13.1 22.2 31.5 22.2 70.1v346.2c0 17.5-17.3 15.3-17.3 1.9V331.3c0-36.3-7.4-55-14.4-68.2-1.2-2.1-3.1-3.9-3.4-6-1.2-6.9 3.5-4.9 8.5 0z"/><path fill="#828181" stroke="#595650" stroke-miterlimit="10" d="M240 341.1h147.1v204.57H240z"/><path fill="#828181" stroke="#595650" stroke-miterlimit="10" d="M250.5 341.1h17.4v204.57h-17.4zm25.8 0H387v204.57H276.3z"/><path fill="#828181" stroke="#595650" stroke-miterlimit="10" d="M359.2 341.1h17.4v204.57h-17.4z"/><path fill="#828181" fill-rule="evenodd" stroke="#595650" stroke-miterlimit="10" d="M283.1 193l5.1-93.8h50.6l5.1 93.8z"/><path fill="#828181" fill-rule="evenodd" stroke="#595650" stroke-miterlimit="10" d="M293.9 99.2h5.2l-2.8 93.8h-6.4l4-93.8z"/><path fill="#828181" fill-rule="evenodd" stroke="#595650" stroke-miterlimit="10" d="M287.3 115.1l.9-15.9h50.6l.9 15.9z"/><path fill="#828181" fill-rule="evenodd" stroke="#595650" stroke-miterlimit="10" d="M293.9 99.2h5.2l-.4 15.9h-5.5l.7-15.9z"/><rect width="72.1" height="27.46" x="277.5" y="85" fill="#828181" stroke="#595650" stroke-miterlimit="10" rx="5.7" ry="5.7"/><path fill="#828181" fill-rule="evenodd" stroke="#595650" stroke-miterlimit="10" d="M339.5 112.5l4.4 80.5h-36l.2-80.7a5.9 5.9 0 0 1-5.1-5.6v-16a5.9 5.9 0 0 1 5.1-5.6h35.1c3.5 0 6.3 2.6 6.3 5.7v16a6.1 6.1 0 0 1-6.3 5.8z"/><path fill="#828181" fill-rule="evenodd" stroke="#595650" stroke-miterlimit="10" d="M337.1 193h-6.4l-2.8-80.5h5.2l4 80.5z"/><path fill="#828181" fill-rule="evenodd" stroke="#595650" stroke-miterlimit="10" d="M339.5 112.5l.2 2.6h-31.6l.1-2.6h31.3z"/><path fill="#828181" fill-rule="evenodd" stroke="#595650" stroke-miterlimit="10" d="M333.3 115.1H328l-.1-2.6h5.2l.2 2.6zm2.2-30.1v27.5h6.3l-.3-27.5zm-42 0v27.5h-6.3l.4-27.5h5.9zm155.9 624.6H559a6.5 6.5 0 0 0 6.5-6.4 6.5 6.5 0 0 0-6.5-6.5H449.4a6.5 6.5 0 0 0-6.4 6.5 6.4 6.4 0 0 0 6.4 6.4z"/><path fill="#828181" fill-rule="evenodd" stroke="#595650" stroke-miterlimit="10" d="M525.2 700.3c-5.5-5.4-13.4-8.8-13.4-27.8v-98.1c0-20.4 10.9-30.4 22.7-38.5H474c11.8 8.1 22.6 18.1 22.6 38.5v98.1c0 19-7.9 22.4-13.4 27.8 8 7.3 32.4 4.9 42 0z"/><path fill="#828181" fill-rule="evenodd" stroke="#595650" stroke-miterlimit="10" d="M475 536.6c11.4 8 21.6 18 21.6 37.8v98.1c0 14.9-4.8 20.2-9.6 24.4 16.7 1.1 15.6-24.6 15.6-32.5v-98c0-9.1 0-25.5-5.9-30.5s-14.6 2.3-21.7.7zm-25.6 173H559a6.5 6.5 0 0 0 6.5-6.4H443a6.4 6.4 0 0 0 6.4 6.4z"/><path fill="#828181" fill-rule="evenodd" stroke="#595650" stroke-miterlimit="10" d="M555.5 333.8H452.9c-5.2 20-32.9 86-18.5 143.3 10.8 42.9 39.8 67.4 69.8 67.4s59.1-24.5 69.8-67.4c14.4-57.3-13.2-123.3-18.5-143.3z"/><path fill="#828181" fill-rule="evenodd" stroke="#595650" stroke-miterlimit="10" d="M472.3 333.8h-8.8c-4.2 19.2-26.1 82.8-14.7 138.1 4.5 22 13.2 39 23.9 50-5.2-10.9-9.4-24.8-11.9-41.5-9-58.6 8.2-126.2 11.5-146.6z"/><path fill="#828181" fill-rule="evenodd" stroke="#595650" stroke-miterlimit="10" d="M434 402.9c-4.2 23.5-5.7 49.7.4 74.2 10.8 42.9 39.8 67.4 69.8 67.4s59.1-24.5 69.8-67.4c6.2-24.5 4.6-50.7.4-74.2z"/><path fill="#828181" fill-rule="evenodd" stroke="#595650" stroke-miterlimit="10" d="M555.5 333.8h-64.4c-3.6 20-22.8 86-12.9 143.3 6.4 36.5 22 59.7 39.3 65.8 25-6.1 47.4-29.3 56.5-65.8a141.8 141.8 0 0 0 4.1-35.5c0-46.7-18.4-91.9-22.6-107.8z"/><path fill="#828181" fill-rule="evenodd" stroke="#595650" stroke-miterlimit="10" d="M545 333.8h-8.8c3.2 20.4 20.4 88 11.5 146.6-2.6 16.7-6.7 30.6-12 41.5 10.7-11 19.4-28 24-50 11.4-55.3-10.6-118.9-14.7-138.1z"/><path fill="#828181" fill-rule="evenodd" stroke="#595650" stroke-miterlimit="10" d="M478 402.9c-3 23.5-4 49.7.2 74.2 6.4 36.5 22 59.7 39.3 65.8 25-6.1 47.4-29.3 56.5-65.8a141.8 141.8 0 0 0 4.1-35.5 222.7 222.7 0 0 0-3.7-38.7zm-29.9 0c-3.1 22-4 46.2.7 69s13.2 39 23.9 50c-5.2-10.9-9.4-24.8-11.9-41.5-4-25.7-2.9-53.1-.1-77.5z"/><path fill="#828181" fill-rule="evenodd" stroke="#595650" stroke-miterlimit="10" d="M547.8 402.9c2.7 24.4 3.8 51.8-.1 77.5-2.6 16.7-6.7 30.6-12 41.5 10.7-11 19.4-28 24-50s3.7-47 .6-69z"/></symbol><symbol id="beer" viewBox="0 0 800 800"><path fill="#828181" fill-rule="evenodd" stroke="#595650" stroke-miterlimit="10" d="M243.4 712.5c-21.8 0-39.6-12.8-39.6-28.5V364.2c0-62.7 54.8-108.1 56.4-130.1l8.6-141.5h58.7l8.6 141.5c1.4 22 56.4 67.4 56.4 130.1V684c0 15.7-17.9 28.5-39.6 28.5z" opacity=".64"/><path fill="#828181" fill-rule="evenodd" stroke="#595650" stroke-miterlimit="10" d="M308.3 92.6h19.2l8.6 141.5c1.4 22 56.4 67.4 56.4 130.1V684c0 15.7-17.8 28.5-39.6 28.5h-61.8c-14.8 0-26.9-12.8-26.9-28.5V364.2c0-62.7 37.3-108.1 38.3-130.1z" opacity=".64"/><path fill="#828181" fill-rule="evenodd" stroke="#595650" stroke-miterlimit="10" d="M317 92h4.2l5.5 142.1c.9 22 42.4 67.4 42.4 130.1V684c0 14.4-14.3 22.9-14.3 5.6V363.5c0-64-33.2-110.2-33.8-132.8zm-89.9 592V364.2c0-62.7 41.3-108.1 42.5-130.1l10.1-143.8h4.3l-8.7 140.4c-.9 22.5-33.8 68.8-33.8 132.8v326.1c0 17.3-14.4 8.8-14.4-5.6z" opacity=".64"/><path fill="#828181" fill-rule="evenodd" stroke="#595650" stroke-miterlimit="10" d="M278.1 82.7h40.1a13.3 13.3 0 0 1 13.3 13.2v8.7h-66.7v-8.7a13.3 13.3 0 0 1 13.3-13.2zm20 538.4c44.6 0 80.9-52.8 80.9-117.6s-36.3-117.7-80.9-117.7-80.8 52.9-80.8 117.7 36.3 117.6 80.8 117.6z" opacity=".64"/><path fill="#828181" fill-rule="evenodd" stroke="#595650" stroke-miterlimit="10" d="M227.1 559.9V447.1a123.2 123.2 0 0 1 14.4-27.5v167.8a127.7 127.7 0 0 1-14.4-27.5zm71-174.1c44.7 0 80.9 52.7 80.9 117.7s-36.2 117.6-80.9 117.6c-12.1 0-23.6-3.9-33.9-10.8V396.7c10.3-7 21.8-10.9 33.9-10.9z" opacity=".64"/><path fill="#828181" fill-rule="evenodd" stroke="#595650" stroke-miterlimit="10" d="M369.1 447.1v112.8a123.2 123.2 0 0 1-14.3 27.5V419.6a121.1 121.1 0 0 1 14.3 27.5zM299.7 82.7h18.5a13.3 13.3 0 0 1 13.3 13.2v8.7h-45v-8.7a13.3 13.3 0 0 1 13.2-13.2z" opacity=".64"/><path fill="#828181" fill-rule="evenodd" stroke="#595650" stroke-miterlimit="10" d="M288.4 82.7h5.3a13.3 13.3 0 0 0-13.3 13.2v8.7h-5.3v-8.7a13.3 13.3 0 0 1 13.3-13.2zm22.4 0h-5.3a13.3 13.3 0 0 1 13.3 13.2v8.7h5.3v-8.7a13.3 13.3 0 0 0-13.3-13.2zm286.1 304.1c.1-18.7-1.8-37.2-7-55.7-7.7-21.3-141.4-21.2-145.2 0a203.6 203.6 0 0 0-7 55.7z" opacity=".64"/><path fill="#828181" fill-rule="evenodd" stroke="#595650" stroke-miterlimit="10" d="M561.3 712.5c30.4 0 3.3-60.9 2.2-80.8-6.7-114.3 53.4-206.5 26.4-297.8H444.7c-27 91.3 33.2 183.5 26.5 297.8-1.2 19.9-28.3 80.8 2.1 80.8z" opacity=".64"/><path fill="#828181" fill-rule="evenodd" stroke="#595650" stroke-miterlimit="10" d="M561.3 712.5c30.4 0 3.3-60.9 2.2-80.8-6.7-114.3 53.4-206.5 26.4-297.8H484.6c-20 91.3 24.4 183.5 19.5 297.8-.9 19.9-20.9 80.8 1.6 80.8z" opacity=".64"/><path fill="#828181" fill-rule="evenodd" stroke="#595650" stroke-miterlimit="10" d="M470.8 333.9h-10c-21 91.3 25.8 183.5 20.6 297.8-.6 13.5-10.6 46-9.4 65.4.3 5.6 8.3 6.2 8.2 0-.4-19.8 7.3-51 7.7-64.2 4.3-114.7-33.4-207.3-17.1-299zm91.9 363.4c1.1-19.4-8.8-52-9.4-65.6-5.3-114.3 41.6-206.5 20.5-297.8h-9.9c16.3 91.7-21.4 184.3-17.2 299 .5 13.3 8.2 44.8 7.8 64.6-.2 5.5 7.8 5.2 8.2-.2z" opacity=".64"/><path fill="#828181" fill-rule="evenodd" stroke="#595650" stroke-miterlimit="10" d="M567 649.2c-1.8-7-3.3-13.2-3.5-17.5-5.4-92.3 32.8-170.2 33.4-244.9H437.7c.7 74.7 38.9 152.6 33.5 244.9-.3 4.3-1.7 10.5-3.5 17.5z" opacity=".64"/><path fill="#828181" fill-rule="evenodd" stroke="#595650" stroke-miterlimit="10" d="M455.3 386.8c.5 74.7 30.3 152.6 26.1 244.9a120.5 120.5 0 0 1-2.8 17.5h7.3a128.9 128.9 0 0 0 2-16.3c3.5-92.7-20.5-171.1-21.2-246.1zM567 649.2v-2.3l-.2-.6v-5.5l-.2-.9v-.2l-.2-1a5 5 0 0 1-.2-1.2l-.2-1h-.1v-.9l-.3-1.9v-1l-.3-4.8v-1.6c-.1-1.1-.1-2.2-.1-3.3v-6.6c0-1.4 0-2.8.1-4.2v-7c0-1.1 0-2.2.1-3.3v-1.7c0-1 .1-2.1.1-3.2v-1.6c.1-1.2.2-2.5.2-3.7v-1c.1-1.6.2-3.2.4-4.8v-.6c.1-1.4.3-2.8.4-4.1V579c.1-1.2.2-2.4.4-3.6v-1.2c.2-1.4.3-2.7.5-4v-.7c.4-3.2.9-6.3 1.3-9.5v-.9l.6-3.8.2-1c.7-4.8 1.5-9.5 2.3-14.2h.1c.2-1.6.5-3.1.8-4.6v-.3c8.9-47.4 22.3-91.4 25.1-134.2v-.2c.3-4.6.5-9.2.5-13.8H479.4c.5 74.7 28.7 152.6 24.7 244.9-.2 4.3-1.3 10.5-2.6 17.5z" opacity=".64"/><path fill="#828181" fill-rule="evenodd" stroke="#595650" stroke-miterlimit="10" d="M556 649.2c-1.4-7-2.6-13.2-2.7-17.5-4.3-92.3 25.5-170.2 26-244.9H568c-.7 75-24.7 153.4-21.3 246.1a150.6 150.6 0 0 0 2 16.3zm40.9-262.4c.1-17.8-1.8-35.3-7-52.9-7.7-20.1-141.4-20.1-145.2 0a184.1 184.1 0 0 0-7 52.9z" opacity=".64"/><path fill="#828181" fill-rule="evenodd" stroke="#595650" stroke-miterlimit="10" d="M596.9 386.8v-6.4a18.5 18.5 0 0 1-.1-2.3c0-.7-.1-1.4-.1-2.1s-.1-1.6-.1-2.4V372c-.1-1-.1-2-.2-3v-1.1l-.3-3.4v-.9c-.1-1.1-.3-2.3-.4-3.4v-.9l-.6-3.6v-.4c-.2-1.4-.5-2.7-.7-4v-.3c-.2-1.3-.5-2.7-.7-4v-.2l-.9-4.1v-.2c-.4-1.4-.7-2.8-1.1-4.1l-1.2-4.3H444.7l-1.2 4.3c-.3 1.3-.7 2.7-1 4.1v.2l-.9 4.1v.2c-.3 1.3-.6 2.7-.8 4v.3l-.6 4v.4c-.2 1.2-.4 2.4-.5 3.6v.9c-.2 1.1-.3 2.3-.4 3.4v.9c-.2 1.1-.3 2.2-.4 3.4v1.1l-.3 3v1.6a19.3 19.3 0 0 1-.1 2.4 14.8 14.8 0 0 1-.1 2.1v2.3a14.8 14.8 0 0 1-.1 2.1v4.3h158.6z" opacity=".64"/><path fill="#828181" fill-rule="evenodd" stroke="#595650" stroke-miterlimit="10" d="M596.9 386.8v-6.4c0-.8-.1-1.6-.1-2.3V376a19.3 19.3 0 0 1-.1-2.4V372c0-1-.1-2-.2-3v-1.1l-.3-3.4v-.9l-.3-3.4v-.9c-.1-1.2-.3-2.4-.4-3.6v-.4c-.2-1.4-.4-2.7-.5-4v-.3l-.6-4v-.2c-.2-1.4-.4-2.8-.7-4.1v-.2c-.2-1.4-.5-2.8-.8-4.1-.3-1.4-.5-2.8-.9-4.3H484.8l-.9 4.3c-.3 1.3-.5 2.7-.8 4.1v.2c-.2 1.3-.5 2.7-.7 4.1v.2l-.6 4v.3c-.2 1.3-.4 2.6-.5 4v.4c-.1 1.2-.2 2.4-.4 3.6v.9c-.1 1.1-.2 2.3-.2 3.4v.9l-.3 3.4v1.1c-.1 1-.1 2-.2 3v1.6a19.3 19.3 0 0 0-.1 2.4 14.8 14.8 0 0 0-.1 2.1v2.3a14.8 14.8 0 0 0-.1 2.1v4.3h117z" opacity=".64"/><path fill="#828181" fill-rule="evenodd" stroke="#595650" stroke-miterlimit="10" d="M573.8 333.9h-9.9a293.3 293.3 0 0 1 4.1 52.9h11.3a225.4 225.4 0 0 0-5.5-52.9z" opacity=".64"/></symbol><symbol id="champage" viewBox="0 0 800 800"><path fill="#828181" fill-rule="evenodd" stroke="#595650" stroke-miterlimit="10" d="M328.6 86.3c-34.5 0-33.9 18.5-25.3 52.7 4.4 17.5-6 6.3-8 23.4s6.8 13.1 6.8 24.8-4.6 96.6-22.1 137.5c-46.7 108.9-59.8 247.9-20.6 367.1 5.6 16.9 15.8 17.1 17.1 19.1 25.2.7 38.7 1.1 52.1 1.1s26.9-.4 52.2-1.1c1.2-2 11.4-2.2 17-19.1 39.2-119.2 26.1-258.2-20.5-367.1-17.6-40.9-22.3-121.2-22.3-132.9s13.8-10.7 11.8-27.8-17.8-3.6-13.5-21.1c8.6-34.2 9.9-56.6-24.7-56.6z"/><path fill="#828181" fill-rule="evenodd" stroke="#595650" stroke-miterlimit="10" d="M312 89.9c-12.1 6.9-13.7 23.7-8.7 49.1 3.4 17.5-6.5 6.3-8 23.4s6.8 13.1 6.8 24.8 2.3 96.6-11.3 137.5c-36.3 108.8-46.5 247.8-16.1 366.9 2.7 7.8 13.4 5.7 12.6 0-21.9-119.9-14.1-258.9 12.9-368 10.2-41.6 8.5-127.7 8.5-139.6s-6.3-7.9-5.1-25.2 8.5-6 6-23.8c-3.1-21.2-2.8-36.4 2.4-45.1z"/><path fill="#828181" fill-rule="evenodd" stroke="#595650" stroke-miterlimit="10" d="M344.7 711.8c9.4-.1 20.5-.5 36.1-.9 1.2-2 11.4-2.2 17-19.1 39.2-119.2 26.1-258.2-20.5-367.1-17.6-40.9-19.2-124.2-19.2-135.9s10.7-7.7 8.7-24.8-14.6-5.9-10.2-23.4c7-28 9-45.3-11.4-50.7-14.3 5.4-17.1 21.1-12.2 49.1 3.1 17.5-5.8 6.3-7.2 23.4s6.2 13.1 6.2 24.8 2.1 96.6-10.3 137.5c-32.8 108.9-42 247.9-14.4 367.1 3.9 16.9 11.1 17.1 12 19.1 10.9.4 18.8.8 25.4.9z"/><path fill="#828181" fill-rule="evenodd" stroke="#595650" stroke-miterlimit="10" d="M382.5 691.6c30.5-119.1 20.3-258.1-16-366.9-13.7-40.9-11.4-125.8-11.4-137.5s8.3-7.7 6.8-24.8-11.4-5.9-8-23.4c5-25.4 3.4-42.2-8.7-49.1 5.2 8.7 5.5 23.9 2.4 45.1-2.5 17.8 4.9 6.4 6 23.8s-5.1 13.3-5.1 25.2-1.7 98 8.5 139.6c27 109.1 34.8 248.1 12.9 368-1.6 7 10.5 7.3 12.6 0z"/><path fill="#828181" fill-rule="evenodd" stroke="#595650" stroke-miterlimit="10" d="M328.6 640.5c45.3 0 82.2-44.7 82.2-99.5s-36.9-99.4-82.2-99.4-82.3 44.7-82.3 99.4 37 99.5 82.3 99.5z"/><path fill="#828181" fill-rule="evenodd" stroke="#595650" stroke-miterlimit="10" d="M328.6 486.4c18.4 0 33.4-20.2 33.4-44.8s-15-44.8-33.4-44.8-33.4 20.1-33.4 44.8 15 44.8 33.4 44.8zm0-400.1c-34.5 0-41.1 18.5-32.6 52.7 4.4 17.5-8.2 6.3-10.2 23.4s8.8 13.1 8.8 24.8 2.2 75.5-8.7 119.3c8.4 13.6 24.4 22.8 42.7 22.8s34.3-9.2 42.7-22.8c-10.9-43.9-8.7-109.1-8.7-119.3s10.8-7.7 8.8-24.8-14.6-5.9-10.2-23.4c8.5-34.2 2-52.7-32.6-52.7z"/><path fill="#828181" fill-rule="evenodd" stroke="#595650" stroke-miterlimit="10" d="M293.4 315.7a46 46 0 0 0 7.3 5.7c9.7-42.4 8-125.7 8-137.4s-6.3-7.9-5.1-25.2 8.5-6 6-23.8c-3.1-21.2-2.8-36.4 2.4-45.1-12.1 6.9-13.7 23.7-8.7 49.1 3.4 17.5-6.5 6.3-8 23.4s6.8 13.1 6.8 24.8 2 85.2-8.7 128.5zm77.9-9.2c-9.1-36.4-9.1-79.5-8.7-118.2v-1.1c0-11.7 10.8-7.7 8.8-24.8s-14.8-4.3-9.9-24.9c3.5-14.4 6.9-35.3-7.2-45.1-2.6-1.9-9.2-6-23.5-6.1-2.3 14.6-2.7 24.7 2.2 52.7 3.1 17.5-5.8 6.3-7.2 23.4s6.2 13.1 6.2 24.8 2.1 96.6-10.3 137.5l-1.2 4c20.6 3.1 40.8-5.9 50.8-22.2z"/><path fill="#828181" fill-rule="evenodd" stroke="#595650" stroke-miterlimit="10" d="M356.5 321.3a44.3 44.3 0 0 0 7.4-5.7c-10.8-43.2-8.8-117.5-8.8-128.4s8.3-7.7 6.8-24.8-11.4-5.9-8-23.4c5-25.4 3.4-42.2-8.7-49.1 5.2 8.7 5.5 23.9 2.4 45.1-2.5 17.8 4.9 6.4 6 23.8s-5.1 13.3-5.1 25.2-1.6 95 8 137.3z"/><path fill="#828181" fill-rule="evenodd" stroke="#595650" stroke-miterlimit="10" d="M296.8 142.9c.5 3.9-.3 5.7-1.7 6.8h67c-1.4-1.1-2.2-2.9-1.7-6.8zm-3.2 39.1a12.3 12.3 0 0 1 1 5.2v1.6h68v-1.6a10.9 10.9 0 0 1 1.1-5.2z"/><path fill="#828181" fill-rule="evenodd" stroke="#595650" stroke-miterlimit="10" d="M354.7 149.7c-1.1-1.1-1.7-2.9-1.3-6.8h-6.2c.4 4.2 2.6 3.8 4.4 6.8zm.4 39.1v-1.6a14.5 14.5 0 0 1 .8-5.2h-7.3a12.7 12.7 0 0 0-.1 2v4.8zm-52.6-39.1h3.2c1.7-3 3.9-2.6 4.3-6.8h-6.1c.4 3.9-.3 5.7-1.4 6.8zm-.4 39.1h6.7c-.1-2.1-.1-3.7-.1-4.8a12.7 12.7 0 0 0-.1-2h-7.3a14.5 14.5 0 0 1 .8 5.2zM450.3 712h62.6a6.9 6.9 0 0 0 6.9-6.9 6.9 6.9 0 0 0-6.9-6.8h-62.6a6.9 6.9 0 0 0-6.9 6.8 6.9 6.9 0 0 0 6.9 6.9z"/><path fill="#828181" fill-rule="evenodd" stroke="#595650" stroke-miterlimit="10" d="M494.7 702.1c-3.5-5.8-8.4-9.4-8.4-29.6V568.3c0-21.7 6.8-32.3 14.1-41h-37.7c7.4 8.7 14.1 19.3 14.1 41v104.2c0 20.2-4.9 23.8-8.3 29.6 5 7.8 20.2 5.1 26.2 0z"/><path fill="#828181" fill-rule="evenodd" stroke="#595650" stroke-miterlimit="10" d="M463.4 528.1c7.1 8.5 13.4 19.2 13.4 40.2v104.2c0 15.8-3 21.5-6 26 10.4 1.1 9.7-26.2 9.7-34.6V559.7c0-9.6 0-27-3.6-32.4s-9.1 2.5-13.5.8zm-16 183.9h68.3c2.2 0 4.1-3.1 4.1-6.9h-76.4c0 3.8 1.8 6.9 4 6.9z"/><path fill="#828181" fill-rule="evenodd" stroke="#595650" stroke-miterlimit="10" d="M513.5 312.5h-63.9c-3.3 21.3-20.5 91.5-11.5 152.4 6.7 45.6 24.8 71.6 43.5 71.6s36.8-26 43.5-71.6c8.9-60.9-8.3-131.1-11.6-152.4z"/><path fill="#828181" fill-rule="evenodd" stroke="#595650" stroke-miterlimit="10" d="M461.7 312.5h-5.5c-2.6 20.5-16.3 88.1-9.2 146.8 2.9 23.4 8.3 41.4 14.9 53.2-3.2-11.6-5.8-26.4-7.4-44.1-5.6-62.4 5.1-134.1 7.2-155.9z"/><path fill="#828181" fill-rule="evenodd" stroke="#595650" stroke-miterlimit="10" d="M437.8 386c-2.6 25-3.6 52.8.3 78.9 6.7 45.6 24.8 71.6 43.5 71.6s36.8-26 43.5-71.6c3.8-26.1 2.8-53.9.2-78.9z"/><path fill="#828181" fill-rule="evenodd" stroke="#595650" stroke-miterlimit="10" d="M513.5 312.5h-40.1c-2.3 21.3-14.2 91.5-8 152.4 3.9 38.8 13.6 63.4 24.5 69.9 15.5-6.5 29.5-31.1 35.2-69.9a263.8 263.8 0 0 0 2.5-37.8c0-49.6-11.4-97.6-14.1-114.6z"/><path fill="#828181" fill-rule="evenodd" stroke="#595650" stroke-miterlimit="10" d="M507 312.5h-5.5c2 21.8 12.7 93.5 7.2 155.9-1.6 17.7-4.2 32.5-7.5 44.1 6.7-11.7 12.1-29.8 14.9-53.2 7.1-58.7-6.5-126.3-9.1-146.8z"/><path fill="#828181" fill-rule="evenodd" stroke="#595650" stroke-miterlimit="10" d="M465.2 386c-1.8 25-2.5 52.8.2 78.9 3.9 38.8 13.6 63.4 24.5 69.9 15.5-6.5 29.5-31.1 35.2-69.9a263.8 263.8 0 0 0 2.5-37.8 391.8 391.8 0 0 0-2.3-41.1zm-18.6 0c-1.9 23.4-2.5 49.1.4 73.3s8.3 41.4 14.9 53.2c-3.2-11.6-5.8-26.4-7.4-44.1-2.5-27.3-1.8-56.4-.1-82.4z"/><path fill="#828181" fill-rule="evenodd" stroke="#595650" stroke-miterlimit="10" d="M508.7 386c1.7 26 2.4 55.1 0 82.4-1.6 17.7-4.2 32.5-7.5 44.1 6.7-11.7 12.1-29.8 14.9-53.2s2.3-49.9.4-73.3zm-18.2 135.8a2.3 2.3 0 1 0-2.3-2.3 2.3 2.3 0 0 0 2.3 2.3zm-11.6-6.5a2.4 2.4 0 1 0-2.3-2.4 2.3 2.3 0 0 0 2.3 2.4zm5.8-6.2a2.4 2.4 0 1 0-2.3-2.3 2.4 2.4 0 0 0 2.3 2.3zm-8.1-11.6a2.4 2.4 0 1 0-2.3-2.4 2.3 2.3 0 0 0 2.3 2.4zm5.4-8.6a2.3 2.3 0 1 0-2.3-2.3 2.3 2.3 0 0 0 2.3 2.3zm-5-6.9a2.4 2.4 0 1 0-2.3-2.3 2.3 2.3 0 0 0 2.3 2.3zm7.3-3.1a2.4 2.4 0 1 0-2.3-2.3 2.4 2.4 0 0 0 2.3 2.3zm-8.9-19a2.3 2.3 0 1 0-2.3-2.3 2.3 2.3 0 0 0 2.3 2.3zm8.2-5.4a2.4 2.4 0 0 0 0-4.7 2.4 2.4 0 1 0 0 4.7z"/><path fill="#828181" fill-rule="evenodd" stroke="#595650" stroke-miterlimit="10" d="M481.2 454.5a2.4 2.4 0 1 0-2.3-2.3 2.4 2.4 0 0 0 2.3 2.3zm-3.4-4.7a2.3 2.3 0 1 0-2.4-2.3 2.3 2.3 0 0 0 2.4 2.3zm8.1-11.2a2.3 2.3 0 1 0-2.3-2.3 2.3 2.3 0 0 0 2.3 2.3zm-10.1-14.7a2.3 2.3 0 1 0-2.3-2.3 2.3 2.3 0 0 0 2.3 2.3zm6.6-5a2.4 2.4 0 1 0-2.3-2.3 2.3 2.3 0 0 0 2.3 2.3zm-6.2-5.8a2.4 2.4 0 1 0-2.3-2.4 2.3 2.3 0 0 0 2.3 2.4zm8.1-3.9a2.3 2.3 0 1 0-2.3-2.3 2.3 2.3 0 0 0 2.3 2.3zm-1.9-9.3a2.3 2.3 0 1 0-2.3-2.3 2.3 2.3 0 0 0 2.3 2.3zm2.7-7.7a2.4 2.4 0 1 0-2.3-2.4 2.3 2.3 0 0 0 2.3 2.4zm-12 .7a2.3 2.3 0 1 0-2.3-2.3 2.3 2.3 0 0 0 2.3 2.3z"/></symbol><symbol id="wine" viewBox="0 0 800 800"><path fill="#828181" fill-rule="evenodd" stroke="#595650" stroke-miterlimit="10" d="M266.4 709.6c-18.8 0-34.2-13.9-34.2-30.8V332.6c0-67.9 47.3-73.4 48.6-97.3l7.4-136.1h50.6l7.4 136.1c1.3 23.9 48.6 29.4 48.6 97.3v346.2c0 16.9-15.4 30.8-34.1 30.8z"/><path fill="#828181" fill-rule="evenodd" stroke="#595650" stroke-miterlimit="10" d="M346.2 235.3a4.5 4.5 0 0 1 .1 1.1c.1.4.1.8.2 1.1s.1.7.2 1.1l.3 1 .3 1 .4 1 .5 1 .5 1 .6.9a3.3 3.3 0 0 0 .6 1l.6.9a8.6 8.6 0 0 1 .7 1l.7.9.8.9.8.9.9 1 .9.9.9.9.9.9 1 1 1 1 1 .9 1 1 1.1 1 1 1 1.1 1 1.1 1.1 1.1 1.1 1.1 1.1 1.2 1.1 1.1 1.2 1.1 1.2a6.3 6.3 0 0 1 1.1 1.2l1.1 1.2 1.2 1.3a6.9 6.9 0 0 0 1.1 1.3 13.4 13.4 0 0 0 1.1 1.4l1 1.4 1.1 1.5 1.1 1.5 1 1.5a14 14 0 0 1 1 1.6 9.5 9.5 0 0 1 1 1.7l1 1.6.9 1.8 1 1.8c.3.6.5 1.2.8 1.9l.9 1.9.8 2 .8 2c.2.7.5 1.4.7 2.2a17.2 17.2 0 0 1 .7 2.1c.2.8.5 1.5.7 2.3l.6 2.3a20.5 20.5 0 0 1 .5 2.4l.6 2.5c.1.8.3 1.7.4 2.5a25.1 25.1 0 0 1 .4 2.7 21.9 21.9 0 0 1 .4 2.7l.3 2.8c.1.9.1 1.9.2 2.8s.1 2 .2 3 0 2 .1 3v349.4c0 16.9-15.4 30.8-34.1 30.8h-59.1c-15.8 0-25.3-17.4-25.3-28.8V332.6c0-67.9 31.4-73.4 31.5-97.3l.4-136.1h30.6z"/><path fill="#828181" fill-rule="evenodd" stroke="#595650" stroke-miterlimit="10" d="M250.5 678.8V332.6c0-39.3 12.2-57.7 22.8-70.8l3.8-4.7c5.1-6.2 11.5-6.5 8.5 0-.8 1.8-2 3.5-3 5.4-7.2 13.2-14.7 32-14.7 68.8v348.3c0 16-17.4 10.2-17.4-.8zm37.9-450.6l5.5-129h5.2l-3.8 129c-.2 6.7-6.7 6.3-6.9 0zm39.5-129h5.2l5.5 129c.2 5.7-6.7 6.2-6.8 0l-3.9-129zm22 157.9a60.6 60.6 0 0 1 4.4 5.4c10.4 13.1 22.2 31.5 22.2 70.1v346.2c0 17.5-17.3 15.3-17.3 1.9V331.3c0-36.3-7.4-55-14.4-68.2-1.2-2.1-3.1-3.9-3.4-6-1.2-6.9 3.5-4.9 8.5 0z"/><path fill="#828181" stroke="#595650" stroke-miterlimit="10" d="M240 341.1h147.1v204.57H240z"/><path fill="#828181" stroke="#595650" stroke-miterlimit="10" d="M250.5 341.1h17.4v204.57h-17.4zm25.8 0H387v204.57H276.3z"/><path fill="#828181" stroke="#595650" stroke-miterlimit="10" d="M359.2 341.1h17.4v204.57h-17.4z"/><path fill="#828181" fill-rule="evenodd" stroke="#595650" stroke-miterlimit="10" d="M283.1 193l5.1-93.8h50.6l5.1 93.8z"/><path fill="#828181" fill-rule="evenodd" stroke="#595650" stroke-miterlimit="10" d="M293.9 99.2h5.2l-2.8 93.8h-6.4l4-93.8z"/><path fill="#828181" fill-rule="evenodd" stroke="#595650" stroke-miterlimit="10" d="M287.3 115.1l.9-15.9h50.6l.9 15.9z"/><path fill="#828181" fill-rule="evenodd" stroke="#595650" stroke-miterlimit="10" d="M293.9 99.2h5.2l-.4 15.9h-5.5l.7-15.9z"/><rect width="72.1" height="27.46" x="277.5" y="85" fill="#828181" stroke="#595650" stroke-miterlimit="10" rx="5.7" ry="5.7"/><path fill="#828181" fill-rule="evenodd" stroke="#595650" stroke-miterlimit="10" d="M339.5 112.5l4.4 80.5h-36l.2-80.7a5.9 5.9 0 0 1-5.1-5.6v-16a5.9 5.9 0 0 1 5.1-5.6h35.1c3.5 0 6.3 2.6 6.3 5.7v16a6.1 6.1 0 0 1-6.3 5.8z"/><path fill="#828181" fill-rule="evenodd" stroke="#595650" stroke-miterlimit="10" d="M337.1 193h-6.4l-2.8-80.5h5.2l4 80.5z"/><path fill="#828181" fill-rule="evenodd" stroke="#595650" stroke-miterlimit="10" d="M339.5 112.5l.2 2.6h-31.6l.1-2.6h31.3z"/><path fill="#828181" fill-rule="evenodd" stroke="#595650" stroke-miterlimit="10" d="M333.3 115.1H328l-.1-2.6h5.2l.2 2.6zm2.2-30.1v27.5h6.3l-.3-27.5zm-42 0v27.5h-6.3l.4-27.5h5.9zm155.9 624.6H559a6.5 6.5 0 0 0 6.5-6.4 6.5 6.5 0 0 0-6.5-6.5H449.4a6.5 6.5 0 0 0-6.4 6.5 6.4 6.4 0 0 0 6.4 6.4z"/><path fill="#828181" fill-rule="evenodd" stroke="#595650" stroke-miterlimit="10" d="M525.2 700.3c-5.5-5.4-13.4-8.8-13.4-27.8v-98.1c0-20.4 10.9-30.4 22.7-38.5H474c11.8 8.1 22.6 18.1 22.6 38.5v98.1c0 19-7.9 22.4-13.4 27.8 8 7.3 32.4 4.9 42 0z"/><path fill="#828181" fill-rule="evenodd" stroke="#595650" stroke-miterlimit="10" d="M475 536.6c11.4 8 21.6 18 21.6 37.8v98.1c0 14.9-4.8 20.2-9.6 24.4 16.7 1.1 15.6-24.6 15.6-32.5v-98c0-9.1 0-25.5-5.9-30.5s-14.6 2.3-21.7.7zm-25.6 173H559a6.5 6.5 0 0 0 6.5-6.4H443a6.4 6.4 0 0 0 6.4 6.4z"/><path fill="#828181" fill-rule="evenodd" stroke="#595650" stroke-miterlimit="10" d="M555.5 333.8H452.9c-5.2 20-32.9 86-18.5 143.3 10.8 42.9 39.8 67.4 69.8 67.4s59.1-24.5 69.8-67.4c14.4-57.3-13.2-123.3-18.5-143.3z"/><path fill="#828181" fill-rule="evenodd" stroke="#595650" stroke-miterlimit="10" d="M472.3 333.8h-8.8c-4.2 19.2-26.1 82.8-14.7 138.1 4.5 22 13.2 39 23.9 50-5.2-10.9-9.4-24.8-11.9-41.5-9-58.6 8.2-126.2 11.5-146.6z"/><path fill="#828181" fill-rule="evenodd" stroke="#595650" stroke-miterlimit="10" d="M434 402.9c-4.2 23.5-5.7 49.7.4 74.2 10.8 42.9 39.8 67.4 69.8 67.4s59.1-24.5 69.8-67.4c6.2-24.5 4.6-50.7.4-74.2z"/><path fill="#828181" fill-rule="evenodd" stroke="#595650" stroke-miterlimit="10" d="M555.5 333.8h-64.4c-3.6 20-22.8 86-12.9 143.3 6.4 36.5 22 59.7 39.3 65.8 25-6.1 47.4-29.3 56.5-65.8a141.8 141.8 0 0 0 4.1-35.5c0-46.7-18.4-91.9-22.6-107.8z"/><path fill="#828181" fill-rule="evenodd" stroke="#595650" stroke-miterlimit="10" d="M545 333.8h-8.8c3.2 20.4 20.4 88 11.5 146.6-2.6 16.7-6.7 30.6-12 41.5 10.7-11 19.4-28 24-50 11.4-55.3-10.6-118.9-14.7-138.1z"/><path fill="#828181" fill-rule="evenodd" stroke="#595650" stroke-miterlimit="10" d="M478 402.9c-3 23.5-4 49.7.2 74.2 6.4 36.5 22 59.7 39.3 65.8 25-6.1 47.4-29.3 56.5-65.8a141.8 141.8 0 0 0 4.1-35.5 222.7 222.7 0 0 0-3.7-38.7zm-29.9 0c-3.1 22-4 46.2.7 69s13.2 39 23.9 50c-5.2-10.9-9.4-24.8-11.9-41.5-4-25.7-2.9-53.1-.1-77.5z"/><path fill="#828181" fill-rule="evenodd" stroke="#595650" stroke-miterlimit="10" d="M547.8 402.9c2.7 24.4 3.8 51.8-.1 77.5-2.6 16.7-6.7 30.6-12 41.5 10.7-11 19.4-28 24-50s3.7-47 .6-69z"/></symbol><symbol id="beer" viewBox="0 0 256 256"><path fill="#828181" stroke="#595650" stroke-miterlimit="10" stroke-width=".34" d="M74.5 238c-7.4 0-13.4-4.4-13.4-9.7V119.5c0-21.3 18.6-36.8 19.2-44.3l2.9-48.1h20l2.9 48.1c.5 7.5 19.2 23 19.2 44.3v108.8c0 5.3-6.1 9.7-13.5 9.7z" opacity=".64" style="isolation:isolate"/><path fill="#828181" stroke="#595650" stroke-miterlimit="10" stroke-width=".34" d="M96.6 27.1h6.6l2.9 48.1c.5 7.5 19.2 23 19.2 44.3v108.8c0 5.3-6.1 9.7-13.5 9.7h-21a9.5 9.5 0 0 1-9.2-9.7V119.5c0-21.3 12.7-36.8 13-44.3z" opacity=".64" style="isolation:isolate"/><path fill="#828181" stroke="#595650" stroke-miterlimit="10" stroke-width=".34" d="M99.6 26.9h1.4l1.9 48.3c.3 7.5 14.4 23 14.4 44.3v108.8c0 4.9-4.9 7.8-4.9 1.9v-111c0-21.7-11.3-37.5-11.5-45.1zM69 228.3V119.5c0-21.3 14-36.8 14.5-44.3l3.4-48.9h1.5l-3 47.8c-.3 7.6-11.5 23.4-11.5 45.1v111c0 5.9-4.9 3-4.9-1.9z" opacity=".64" style="isolation:isolate"/><path fill="#828181" stroke="#595650" stroke-miterlimit="10" stroke-width=".34" d="M86.3 23.7H100a4.5 4.5 0 0 1 4.5 4.5v3H81.8v-3a4.5 4.5 0 0 1 4.5-4.5zm6.9 183.2c15.1 0 27.5-18 27.5-40s-12.4-40.1-27.5-40.1-27.5 18-27.5 40.1 12.3 40 27.5 40z" opacity=".64" style="isolation:isolate"/><path fill="#828181" stroke="#595650" stroke-miterlimit="10" stroke-width=".34" d="M69 186.1v-38.4a42.1 42.1 0 0 1 4.9-9.4v57.1a41.4 41.4 0 0 1-4.9-9.3zm24.2-59.3c15.2 0 27.5 18 27.5 40.1s-12.3 40-27.5 40a20.2 20.2 0 0 1-11.6-3.7v-72.7a21 21 0 0 1 11.6-3.7z" opacity=".64" style="isolation:isolate"/><path fill="#828181" stroke="#595650" stroke-miterlimit="10" stroke-width=".34" d="M117.3 147.7v38.4a37.7 37.7 0 0 1-4.9 9.3v-57.1a38.3 38.3 0 0 1 4.9 9.4zm-23.6-124h6.3a4.5 4.5 0 0 1 4.5 4.5v3H89.2v-3a4.5 4.5 0 0 1 4.5-4.5z" opacity=".64" style="isolation:isolate"/><path fill="#828181" stroke="#595650" stroke-miterlimit="10" stroke-width=".34" d="M89.9 23.7h1.8a4.6 4.6 0 0 0-4.6 4.5v3h-1.8v-3a4.6 4.6 0 0 1 4.6-4.5zm7.6 0h-1.8a4.5 4.5 0 0 1 4.5 4.5v3h1.8v-3a4.5 4.5 0 0 0-4.5-4.5zm97.3 103.5a64.8 64.8 0 0 0-2.4-19c-2.6-7.2-48.1-7.2-49.4 0a71.7 71.7 0 0 0-2.3 19z" opacity=".64" style="isolation:isolate"/><path fill="#828181" stroke="#595650" stroke-miterlimit="10" stroke-width=".34" d="M182.7 238c10.4 0 1.1-20.7.8-27.5-2.3-38.9 18.1-70.3 8.9-101.3H143c-9.2 31 11.3 62.4 9.1 101.3-.5 6.8-9.7 27.5.7 27.5z" opacity=".64" style="isolation:isolate"/><path fill="#828181" stroke="#595650" stroke-miterlimit="10" stroke-width=".34" d="M182.7 238c10.4 0 1.1-20.7.8-27.5-2.3-38.9 18.1-70.3 8.9-101.3h-35.8c-6.8 31 8.3 62.4 6.6 101.3-.3 6.8-7.1 27.5.6 27.5z" opacity=".64" style="isolation:isolate"/><path fill="#828181" stroke="#595650" stroke-miterlimit="10" stroke-width=".34" d="M151.9 109.2h-3.4c-7.1 31 8.8 62.4 7 101.3-.2 4.6-3.6 15.7-3.2 22.3a1.4 1.4 0 1 0 2.8 0c-.1-6.8 2.5-17.4 2.6-21.9 1.5-39-11.3-70.5-5.8-101.7zm31.3 123.6c.4-6.6-3-17.7-3.2-22.3-1.8-38.9 14.1-70.3 7-101.3h-3.4c5.5 31.2-7.3 62.7-5.9 101.7.2 4.5 2.8 15.3 2.7 22-.1 1.9 2.7 1.8 2.8-.1z" opacity=".64" style="isolation:isolate"/><path fill="#828181" stroke="#595650" stroke-miterlimit="10" stroke-width=".34" d="M184.6 216.5a28.6 28.6 0 0 1-1.1-6c-1.9-31.4 11.1-57.9 11.3-83.3h-54.1c.2 25.4 13.2 51.9 11.4 83.3a57.1 57.1 0 0 1-1.2 6z" opacity=".64" style="isolation:isolate"/><path fill="#828181" stroke="#595650" stroke-miterlimit="10" stroke-width=".34" d="M146.6 127.2c.2 25.4 10.4 51.9 8.9 83.3a41.4 41.4 0 0 1-.9 6h2.5a53.2 53.2 0 0 0 .6-5.6c1.2-31.5-6.9-58.2-7.2-83.7zm38 89.3v-7.7a4.9 4.9 0 0 1-.1-1.2v-2.2a6.1 6.1 0 0 1 .1-1.4v-5.7a6.2 6.2 0 0 0 .1-1.3v-.3c0-.6.1-1.1.1-1.7v-.2c.1-.5.1-.9.2-1.4v-.7a6.2 6.2 0 0 1 .1-1.3v-.4c.1-.4.1-.9.2-1.3v-.3c.1-1 .3-2.1.4-3.2v-.3l.2-1.3v-.3c.2-1.7.5-3.3.8-4.9l.3-1.5c3-16.2 7.6-31.1 8.5-45.7.1-1.5.2-3.1.2-4.7h-40.9c.2 25.5 9.8 52 8.4 83.4a44.4 44.4 0 0 1-.8 5.9z" opacity=".64" style="isolation:isolate"/><path fill="#828181" stroke="#595650" stroke-miterlimit="10" stroke-width=".34" d="M180.9 216.5a33.6 33.6 0 0 1-.9-6c-1.5-31.4 8.7-57.9 8.8-83.3H185c-.2 25.5-8.4 52.2-7.3 83.7.2 1.9.4 3.7.7 5.6zm13.9-89.3a58.3 58.3 0 0 0-2.4-18c-2.6-6.9-48.1-6.9-49.4 0a64 64 0 0 0-2.3 18z" opacity=".64" style="isolation:isolate"/><path fill="#828181" stroke="#595650" stroke-miterlimit="10" stroke-width=".34" d="M194.8 127.2v-3.7c0-.2-.1-.5-.1-.8v-3.4a5 5 0 0 1-.2-1.2v-.3l-.2-1.2a7.8 7.8 0 0 1-.2-1.4l-.3-1.4-.3-1.4-.3-1.4-.5-1.5H143l-.4 1.5-.3 1.4-.3 1.4-.3 1.4-.2 1.4c-.1.4-.1.8-.2 1.2v.3c0 .4-.1.8-.1 1.2v.3a4.1 4.1 0 0 0-.1 1.1v2a2.2 2.2 0 0 1-.1.8v3.7z" opacity=".64" style="isolation:isolate"/><path fill="#828181" stroke="#595650" stroke-miterlimit="10" stroke-width=".34" d="M194.8 127.2v-3.7a2.2 2.2 0 0 1 0-.8v-.6c0-.3-.1-.6-.1-1v-3.3c-.1-.4-.1-.8-.2-1.2 0-.5-.1-1-.1-1.4l-.2-1.4-.3-1.4a5.9 5.9 0 0 0-.2-1.4l-.3-1.5h-36.7l-.3 1.5-.3 1.4a5.9 5.9 0 0 0-.2 1.4l-.2 1.4a5.9 5.9 0 0 0-.2 1.4c0 .4-.1.8-.1 1.2v.3a4.9 4.9 0 0 0-.1 1.2v1.8a3.8 3.8 0 0 0-.1 1v1.4c0 .2-.1.5-.1.7v3z" opacity=".64" style="isolation:isolate"/><path fill="#828181" stroke="#595650" stroke-miterlimit="10" stroke-width=".34" d="M187 109.2h-3.4a97.9 97.9 0 0 1 1.4 18h3.8a77.5 77.5 0 0 0-1.8-18z" opacity=".64" style="isolation:isolate"/></symbol><symbol id="champagne" viewBox="0 0 256 256"><path fill="#828181" stroke="#595650" stroke-miterlimit="10" stroke-width=".38" d="M103 14.3c-13 0-12.7 7-9.5 19.8 1.7 6.6-2.2 2.4-3 8.9s2.6 4.9 2.6 9.3-1.8 36.4-8.4 51.8c-17.6 41-22.5 93.4-7.7 138.2 2.1 6.4 5.9 6.5 6.4 7.2 9.5.3 14.6.5 19.6.5s10.2-.2 19.7-.5c.5-.7 4.3-.8 6.4-7.2 14.8-44.8 9.8-97.2-7.7-138.2-6.6-15.4-8.4-45.7-8.4-50.1s5.2-4 4.4-10.4-6.7-1.4-5.1-8c3.3-12.9 3.8-21.3-9.3-21.3z"/><path fill="#828181" stroke="#595650" stroke-miterlimit="10" stroke-width=".38" d="M96.8 15.7c-4.6 2.6-5.2 8.9-3.3 18.4 1.3 6.6-2.4 2.4-3 8.9s2.6 4.9 2.6 9.3.8 36.4-4.3 51.8c-13.7 41-17.5 93.3-6.1 138.2 1.1 2.9 5.1 2.1 4.8 0-8.3-45.2-5.3-97.5 4.8-138.6 3.9-15.7 3.2-48.1 3.2-52.6s-2.3-3-1.9-9.5 3.2-2.3 2.3-9-1.1-13.7.9-16.9z"/><path fill="#828181" stroke="#595650" stroke-miterlimit="10" stroke-width=".38" d="M109.1 249.9l13.6-.4c.5-.7 4.3-.8 6.4-7.2 14.8-44.8 9.8-97.2-7.7-138.2-6.6-15.4-7.2-46.8-7.2-51.2s4-2.9 3.2-9.3-5.5-2.3-3.8-8.8c2.6-10.6 3.4-17.1-4.3-19.1-5.4 2-6.4 7.9-4.6 18.4 1.2 6.6-2.2 2.4-2.7 8.9s2.3 4.9 2.3 9.3.8 36.4-3.9 51.8c-12.3 41-15.8 93.4-5.4 138.2 1.5 6.4 4.2 6.5 4.5 7.2l9.6.4z"/><path fill="#828181" stroke="#595650" stroke-miterlimit="10" stroke-width=".38" d="M123.3 242.3c11.5-44.9 7.7-97.2-6-138.2-5.1-15.4-4.3-47.4-4.3-51.8s3.1-2.9 2.6-9.3-4.3-2.3-3-8.9c1.9-9.5 1.2-15.8-3.3-18.4 2 3.2 2.1 9 .9 16.9s1.8 2.5 2.3 9-2 5-2 9.5-.6 36.9 3.2 52.6c10.2 41.1 13.1 93.4 4.9 138.6-.6 2.6 4 2.7 4.7 0z"/><path fill="#828181" stroke="#595650" stroke-miterlimit="10" stroke-width=".38" d="M103 223c17.1 0 31-16.8 31-37.4s-13.9-37.5-31-37.5-31 16.9-31 37.5S86 223 103 223z"/><path fill="#828181" stroke="#595650" stroke-miterlimit="10" stroke-width=".38" d="M103 165c7 0 12.6-7.6 12.6-16.9s-5.6-16.9-12.6-16.9-12.5 7.6-12.5 16.9S96.1 165 103 165zm0-150.7c-13 0-15.4 7-12.2 19.8 1.6 6.6-3.1 2.4-3.9 8.9s3.3 4.9 3.3 9.3.9 28.4-3.2 44.9a18.4 18.4 0 0 0 16 8.6c6.9 0 13-3.4 16.1-8.6-4.1-16.5-3.3-41.1-3.3-44.9s4.1-2.9 3.4-9.3-5.5-2.3-3.9-8.9c3.2-12.8.8-19.8-12.3-19.8z"/><path fill="#828181" stroke="#595650" stroke-miterlimit="10" stroke-width=".38" d="M89.8 100.7a13.9 13.9 0 0 0 2.7 2.1c3.7-15.9 3-47.3 3-51.7s-2.3-3-1.9-9.5 3.2-2.3 2.3-9-1.1-13.7.9-16.9c-4.6 2.6-5.2 8.9-3.3 18.4 1.3 6.6-2.4 2.4-3 8.9s2.6 4.9 2.6 9.3.7 32.1-3.3 48.4zm29.3-3.5c-3.4-13.7-3.4-29.9-3.3-44.5v-.4c0-4.4 4.1-2.9 3.4-9.3s-5.6-1.7-3.8-9.4c1.4-5.4 2.6-13.3-2.7-17-1-.7-3.4-2.3-8.8-2.3-.9 5.5-1 9.3.8 19.8 1.2 6.6-2.2 2.4-2.7 8.9s2.3 4.9 2.3 9.3.8 36.4-3.9 51.8l-.4 1.5c7.7 1.2 15.4-2.2 19.1-8.4z"/><path fill="#828181" stroke="#595650" stroke-miterlimit="10" stroke-width=".38" d="M113.5 102.8a12.1 12.1 0 0 0 2.8-2.1c-4-16.3-3.3-44.3-3.3-48.4s3.1-2.9 2.6-9.3-4.3-2.3-3-8.9c1.9-9.5 1.2-15.8-3.3-18.4 2 3.2 2.1 9 .9 16.9s1.8 2.5 2.3 9-2 5-2 9.5-.6 35.8 3 51.7z"/><path fill="#828181" stroke="#595650" stroke-miterlimit="10" stroke-width=".38" d="M91.1 35.6c.2 1.5-.1 2.2-.7 2.6h25.3c-.6-.4-.9-1.1-.7-2.6zm-1.2 14.7a4.6 4.6 0 0 1 .3 2v.6h25.6v-.6a4.9 4.9 0 0 1 .5-2z"/><path fill="#828181" stroke="#595650" stroke-miterlimit="10" stroke-width=".38" d="M112.9 38.2c-.4-.4-.7-1.1-.5-2.6H110c.2 1.6 1 1.4 1.7 2.6zm.1 14.7v-.6a6.9 6.9 0 0 1 .3-2h-2.7a2.2 2.2 0 0 0-.1.8v1.8zM93.2 38.2h1.2c.7-1.2 1.5-1 1.6-2.6h-2.3c.2 1.5-.1 2.2-.5 2.6zm-.1 14.7h2.5a13.6 13.6 0 0 1-.1-1.8 2.2 2.2 0 0 0 0-.8h-2.7a6.9 6.9 0 0 1 .3 2zM148.9 250h23.6a2.6 2.6 0 0 0 2.6-2.6 2.6 2.6 0 0 0-2.6-2.6h-23.6a2.6 2.6 0 0 0 0 5.2z"/><path fill="#828181" stroke="#595650" stroke-miterlimit="10" stroke-width=".38" d="M165.6 246.2c-1.3-2.2-3.2-3.5-3.2-11.1v-39.3c0-8.1 2.6-12.1 5.3-15.4h-14.2c2.8 3.3 5.4 7.3 5.4 15.4v39.3c0 7.6-1.9 8.9-3.2 11.1 1.9 3 7.6 1.9 9.9 0z"/><path fill="#828181" stroke="#595650" stroke-miterlimit="10" stroke-width=".38" d="M153.8 180.7c2.7 3.2 5.1 7.2 5.1 15.1v39.3c0 5.9-1.2 8.1-2.3 9.8 3.9.4 3.7-9.9 3.7-13.1v-39.2c0-3.6 0-10.2-1.4-12.2s-3.4.9-5.1.3zm-6 69.3h25.7c.8 0 1.6-1.2 1.6-2.6h-28.8c0 1.4.7 2.6 1.5 2.6z"/><path fill="#828181" stroke="#595650" stroke-miterlimit="10" stroke-width=".38" d="M172.7 99.5h-24.1c-1.2 8-7.7 34.5-4.3 57.4 2.5 17.2 9.3 27 16.4 27s13.8-9.8 16.3-27c3.4-22.9-3.1-49.4-4.3-57.4z"/><path fill="#828181" stroke="#595650" stroke-miterlimit="10" stroke-width=".38" d="M153.2 99.5h-2.1c-1 7.7-6.1 33.2-3.5 55.3 1.1 8.8 3.2 15.6 5.6 20a97.3 97.3 0 0 1-2.7-16.6c-2.2-23.5 1.9-50.5 2.7-58.7z"/><path fill="#828181" stroke="#595650" stroke-miterlimit="10" stroke-width=".38" d="M144.2 127.2c-1 9.4-1.4 19.9.1 29.7 2.5 17.2 9.3 27 16.4 27s13.8-9.8 16.3-27c1.5-9.8 1.1-20.3.1-29.7z"/><path fill="#828181" stroke="#595650" stroke-miterlimit="10" stroke-width=".38" d="M172.7 99.5h-15.1c-.9 8-5.4 34.5-3 57.4 1.4 14.6 5.1 23.9 9.2 26.3 5.8-2.4 11.1-11.7 13.2-26.3a96.9 96.9 0 0 0 1-14.2c0-18.7-4.3-36.8-5.3-43.2z"/><path fill="#828181" stroke="#595650" stroke-miterlimit="10" stroke-width=".38" d="M170.2 99.5h-2c.7 8.2 4.7 35.2 2.7 58.7a86.6 86.6 0 0 1-2.9 16.6c2.6-4.4 4.6-11.2 5.7-20 2.6-22.1-2.5-47.6-3.5-55.3z"/><path fill="#828181" stroke="#595650" stroke-miterlimit="10" stroke-width=".38" d="M154.5 127.2a163.8 163.8 0 0 0 .1 29.7c1.4 14.6 5.1 23.9 9.2 26.3 5.8-2.4 11.1-11.7 13.2-26.3a96.9 96.9 0 0 0 1-14.2 133 133 0 0 0-.9-15.5zm-7 0a141.5 141.5 0 0 0 .1 27.6c1.1 9.1 3.2 15.6 5.6 20a97.3 97.3 0 0 1-2.7-16.6 200.7 200.7 0 0 1-.1-31z"/><path fill="#828181" stroke="#595650" stroke-miterlimit="10" stroke-width=".38" d="M170.9 127.2a213.8 213.8 0 0 1 0 31 86.6 86.6 0 0 1-2.9 16.6c2.6-4.4 4.6-11.2 5.7-20a149.7 149.7 0 0 0 .1-27.6zm-6.9 51.1a.9.9 0 0 0 .9-.8.9.9 0 0 0-.9-.9.8.8 0 0 0-.8.9.8.8 0 0 0 .8.8zm-4.4-2.4a1 1 0 0 0 1-.9.9.9 0 0 0-.9-.9.8.8 0 0 0-.9.8.9.9 0 0 0 .8.9zm2.2-2.4a.8.8 0 0 0 1-.8 1.1 1.1 0 0 0-.9-1 .9.9 0 0 0-.9.9.9.9 0 0 0 .8.9zm-3-4.3a.9.9 0 0 0 .9-.9.8.8 0 0 0-.8-.9.8.8 0 0 0-1 .8 1.1 1.1 0 0 0 .8.9zm2-3.3a.9.9 0 0 0 .9-.8.9.9 0 0 0-1.8 0 .9.9 0 0 0 .9.8zm-1.9-2.6a.8.8 0 0 0 1-.8 1 1 0 0 0-.9-1 .9.9 0 0 0-.9.9.9.9 0 0 0 .8.9zm2.8-1.1a.9.9 0 0 0 .9-.9.8.8 0 0 0-.8-.9.8.8 0 0 0-1 .8c0 .6.4.9.9 1zm-3.4-7.2a.9.9 0 0 0 .9-.9.9.9 0 0 0-.9-.8.9.9 0 0 0-.8.8.9.9 0 0 0 .8.9zm3.1-2a.9.9 0 0 0 .7-1.1 1 1 0 0 0-.7-.7 1 1 0 0 0-1.1.7 1 1 0 0 0 .8 1.1z"/><path fill="#828181" stroke="#595650" stroke-miterlimit="10" stroke-width=".38" d="M160.5 153a1.1 1.1 0 0 0 1-.9 1 1 0 0 0-1.9-.1c.1.6.4 1 .9 1zm-1.3-1.8a.9.9 0 0 0 .9-.9.9.9 0 0 0-.9-.8.9.9 0 0 0-.9.8.9.9 0 0 0 .9.9zm3.1-4.2a.9.9 0 0 0 .9-.9.9.9 0 0 0-1.8 0 .9.9 0 0 0 .9.9zm-3.8-5.6a.7.7 0 0 0 .8-.8.8.8 0 0 0-.8-.9.9.9 0 0 0-.9.9.8.8 0 0 0 .9.8zm2.5-1.8a.9.9 0 0 0 0-1.8.8.8 0 0 0-.9.8.9.9 0 0 0 .9 1zm-2.4-2.2a1 1 0 0 0 1-.9.9.9 0 0 0-.9-.9.8.8 0 0 0-.9.8.8.8 0 0 0 .8.9zm3.1-1.5a.8.8 0 0 0 .8-.9.8.8 0 0 0-.8-.8.9.9 0 0 0-.9.8.9.9 0 0 0 .9.9zm-.7-3.5a.9.9 0 0 0 .8-.9.9.9 0 0 0-.8-.8.9.9 0 0 0-.9.8.9.9 0 0 0 .9.9zm1-2.9a.9.9 0 0 0 .9-.9.8.8 0 0 0-.8-.9 1 1 0 0 0-1 .9.9.9 0 0 0 .8.9zm-4.5.3a.9.9 0 0 0 0-1.8.9.9 0 0 0-.9.9.9.9 0 0 0 .9.9z"/></symbol><symbol id="facebook" viewBox="0 0 256 256"><circle id="_Group_" cx="123.5" cy="128.4" r="121.4" fill="#fff" transform="rotate(-.8 128.013 129.813)"/><path id="_Path_" fill="#d3d3d3" d="M134.2 100V88.5c0-5.6 3.8-6.9 6.4-6.9h16.1V56.9h-22.2c-24.7 0-30.3 18.4-30.3 30.2v13H90v28.7h14.4v71.9h28.7v-72h21.4l1-11.3 1.6-17.4z"/></symbol><symbol id="instagram" viewBox="0 0 256 256"><path id="_Path_" fill="#fff" d="M253.1 127A124.1 124.1 0 1 1 129 3a124.1 124.1 0 0 1 124.1 124z"/><path fill="#d3d3d3" d="M173.7 53.3l-90.1.5a28.5 28.5 0 0 0-28.3 28.6l.2 30v11l.3 49.1a28.4 28.4 0 0 0 28.6 28.2l90.1-.5a28.3 28.3 0 0 0 28.2-28.5l-.2-49.1v-11l-.2-30a28.4 28.4 0 0 0-28.6-28.3zm8.2 16.9h3.3v24.9l-24.8.2-.2-24.9zM108 112.1a25.8 25.8 0 0 1 41.9-.3c.6.8 1.1 1.7 1.6 2.5a25.5 25.5 0 0 1 3.4 12.6 25.9 25.9 0 1 1-48.5-12.4zm80.4 59.7a14 14 0 0 1-14 14.1l-90.1.5a14.1 14.1 0 0 1-14.2-14l-.3-52.5v-7.6h21.9c-.5 1.3-1 2.7-1.4 4.1a39.8 39.8 0 0 0-1.4 10.9 40.2 40.2 0 1 0 80.3-.4 39.4 39.4 0 0 0-1.6-10.9c-.4-1.4-.9-2.8-1.4-4.1l21.9-.2v7.7z"/></symbol><symbol id="twitter" viewBox="0 0 256 256"><path id="_Path_" fill="#fff" d="M256.5 127.4A126.4 126.4 0 1 1 130.2 1a126.3 126.3 0 0 1 126.3 126.4z"/><path id="_Path_2" fill="#d3d3d3" d="M205 88.8a64.5 64.5 0 0 1-17.6 4.8 30.8 30.8 0 0 0 13.5-16.8 62 62 0 0 1-19.5 7.4 30.9 30.9 0 0 0-22.4-9.6 30.5 30.5 0 0 0-30.7 30.3 30.8 30.8 0 0 0 .8 6.8 87.6 87.6 0 0 1-63.3-31.5 28.9 28.9 0 0 0-4.2 15.2 30.2 30.2 0 0 0 13.7 25.1 29.8 29.8 0 0 1-13.9-3.8v.4a28.7 28.7 0 0 0 2.1 11A30.6 30.6 0 0 0 86 146.8a35.9 35.9 0 0 1-8.1 1 36.8 36.8 0 0 1-5.8-.5 30.8 30.8 0 0 0 28.7 21 62.1 62.1 0 0 1-38.1 12.9 61.2 61.2 0 0 1-7.4-.4 88 88 0 0 0 47.1 13.6c48 0 77.5-33.3 85.3-67.8a81.4 81.4 0 0 0 2.1-18.2c0-1.3 0-2.6-.1-3.9A61.7 61.7 0 0 0 205 88.8z"/></symbol><symbol id="wine" viewBox="0 0 256 256"><path fill="#828181" stroke="#595650" stroke-miterlimit="10" stroke-width=".37" d="M83.7 241.6c-6.9 0-12.5-5.1-12.5-11.3V103.4c0-24.9 17.3-26.9 17.8-35.7l2.7-49.9h18.6l2.7 49.9c.5 8.8 17.8 10.8 17.8 35.7v126.9c0 6.2-5.6 11.3-12.5 11.3z"/><path fill="#828181" stroke="#595650" stroke-miterlimit="10" stroke-width=".37" d="M113 67.7v.4a.8.8 0 0 1 .1.4c0 .2 0 .3.1.4V70l.2.4.2.4.2.3a.8.8 0 0 1 .2.4l.3.3c.1.1.1.2.2.4l.3.3.3.3.3.4.3.3.3.4.4.3.3.3.4.4.3.4.4.3.4.3.4.4.3.4.4.3.4.5.4.4.4.4.5.4.4.4.4.4.4.5.4.4.4.5.4.5.4.5.4.5.4.6.4.5.4.6.3.5a1.6 1.6 0 0 1 .4.7l.4.5.3.7.4.7.3.7.3.7.3.7.3.7a2.4 2.4 0 0 1 .2.8l.3.8a3.1 3.1 0 0 1 .2.8l.3.9a2.9 2.9 0 0 0 .2.9l.2.9c0 .3.1.6.1.9s.1.7.2 1 .1.6.1 1v1a3.4 3.4 0 0 1 .1 1 3.7 3.7 0 0 0 .1 1.1v129.2c0 6.2-5.6 11.3-12.5 11.3H96.6c-5.8 0-9.2-6.4-9.2-10.6V103.4c0-24.9 11.5-26.9 11.5-35.7l.2-49.9h11.2z"/><path fill="#828181" stroke="#595650" stroke-miterlimit="10" stroke-width=".37" d="M77.9 230.3V103.4c0-14.4 4.5-21.1 8.4-25.9l1.4-1.8c1.8-2.2 4.2-2.4 3.1 0-.3.7-.8 1.3-1.1 2-2.7 4.8-5.4 11.7-5.4 25.2v127.7c0 5.9-6.4 3.7-6.4-.3zM91.8 65.1l2-47.3h1.9l-1.4 47.3c0 2.5-2.4 2.3-2.5 0zm14.5-47.3h1.9l2 47.3c.1 2.1-2.5 2.3-2.5 0l-1.4-47.3zm8 57.9c.6.7 1.2 1.3 1.7 2 3.8 4.8 8.1 11.6 8.1 25.7v126.9c0 6.4-6.3 5.6-6.3.7V102.9c0-13.3-2.8-20.1-5.3-25a5.6 5.6 0 0 1-1.3-2.2c-.4-2.5 1.3-1.8 3.1 0z"/><path fill="#828181" stroke="#595650" stroke-miterlimit="10" stroke-width=".37" d="M74.1 106.5H128v75H74.1z"/><path fill="#828181" stroke="#595650" stroke-miterlimit="10" stroke-width=".37" d="M77.9 106.5h6.4v75h-6.4zm9.5 0h40.5v75H87.4z"/><path fill="#828181" stroke="#595650" stroke-miterlimit="10" stroke-width=".37" d="M117.8 106.5h6.3v75h-6.3zM89.9 52.2l1.8-34.4h18.6l1.8 34.4z"/><path fill="#828181" stroke="#595650" stroke-miterlimit="10" stroke-width=".37" d="M93.8 17.8h1.9l-1 34.4h-2.3l1.4-34.4z"/><path fill="#828181" stroke="#595650" stroke-miterlimit="10" stroke-width=".37" d="M91.4 23.7l.3-5.9h18.6l.3 5.9z"/><path fill="#828181" stroke="#595650" stroke-miterlimit="10" stroke-width=".37" d="M93.8 17.8h1.9v5.9h-2l.2-5.9z"/><rect width="26.4" height="10.07" x="87.8" y="12.6" fill="#828181" stroke="#595650" stroke-miterlimit="10" stroke-width=".37" rx="2.1" ry="2.1"/><path fill="#828181" stroke="#595650" stroke-miterlimit="10" stroke-width=".37" d="M110.5 22.7l1.6 29.5H98.9V22.7a2.2 2.2 0 0 1-1.8-2.1v-5.9a2 2 0 0 1 1.8-2h12.9a2.2 2.2 0 0 1 2.3 2.1v5.8a2.3 2.3 0 0 1-2.3 2.2z"/><path fill="#828181" stroke="#595650" stroke-miterlimit="10" stroke-width=".37" d="M109.7 52.2h-2.4l-1-29.5h1.9l1.5 29.5z"/><path fill="#828181" stroke="#595650" stroke-miterlimit="10" stroke-width=".37" d="M110.5 22.7v1H99v-1z"/><path fill="#828181" stroke="#595650" stroke-miterlimit="10" stroke-width=".37" d="M108.3 23.7h-2v-1h1.9v1zm.8-11.1v10.1h2.3V12.6zm-15.4 0v10.1h-2.3V12.6zm57.1 229H191a2.4 2.4 0 1 0 0-4.7h-40.2a2.4 2.4 0 0 0 0 4.7z"/><path fill="#828181" stroke="#595650" stroke-miterlimit="10" stroke-width=".37" d="M178.6 238.2c-2-2-4.9-3.2-4.9-10.2v-36c0-7.4 4-11.1 8.3-14.1h-22.2c4.4 3 8.3 6.7 8.3 14.1v36c0 7-2.9 8.2-4.9 10.2 2.9 2.7 11.9 1.8 15.4 0z"/><path fill="#828181" stroke="#595650" stroke-miterlimit="10" stroke-width=".37" d="M160.2 178.2c4.2 2.9 7.9 6.6 7.9 13.8v36c0 5.5-1.7 7.4-3.5 8.9 6.1.4 5.7-9 5.7-11.9v-35.9c0-3.3 0-9.3-2.1-11.2s-5.4.9-8 .3zm-9.4 63.4H191a2.3 2.3 0 0 0 2.4-2.3h-44.9a2.3 2.3 0 0 0 2.3 2.3z"/><path fill="#828181" stroke="#595650" stroke-miterlimit="10" stroke-width=".37" d="M189.7 103.8h-37.6c-1.9 7.4-12.1 31.6-6.8 52.6 4 15.7 14.6 24.7 25.6 24.7s21.7-9 25.6-24.7c5.3-21-4.8-45.2-6.8-52.6z"/><path fill="#828181" stroke="#595650" stroke-miterlimit="10" stroke-width=".37" d="M159.2 103.8H156c-1.6 7.1-9.6 30.4-5.4 50.7 1.6 8 4.8 14.3 8.8 18.3a54 54 0 0 1-4.4-15.2c-3.3-21.5 3-46.3 4.2-53.8z"/><path fill="#828181" stroke="#595650" stroke-miterlimit="10" stroke-width=".37" d="M145.2 129.2c-1.6 8.6-2.1 18.2.1 27.2 4 15.7 14.6 24.7 25.6 24.7s21.7-9 25.6-24.7c2.3-9 1.7-18.6.1-27.2z"/><path fill="#828181" stroke="#595650" stroke-miterlimit="10" stroke-width=".37" d="M189.7 103.8h-23.6c-1.3 7.4-8.4 31.6-4.7 52.6 2.3 13.4 8 21.9 14.4 24.1 9.1-2.2 17.4-10.7 20.7-24.1a57.6 57.6 0 0 0 1.5-13c0-17.2-6.8-33.7-8.3-39.6z"/><path fill="#828181" stroke="#595650" stroke-miterlimit="10" stroke-width=".37" d="M185.9 103.8h-3.3c1.2 7.5 7.5 32.3 4.3 53.8a57.5 57.5 0 0 1-4.4 15.2c3.9-4 7.1-10.3 8.7-18.3 4.2-20.3-3.8-43.6-5.3-50.7z"/><path fill="#828181" stroke="#595650" stroke-miterlimit="10" stroke-width=".37" d="M161.3 129.2c-1.1 8.6-1.5 18.2.1 27.2 2.3 13.4 8 21.9 14.4 24.1 9.1-2.2 17.4-10.7 20.7-24.1a57.6 57.6 0 0 0 1.5-13 75.1 75.1 0 0 0-1.4-14.2zm-11 0c-1.1 8-1.4 16.9.3 25.3s4.8 14.3 8.8 18.3a54 54 0 0 1-4.4-15.2c-1.5-9.4-1.1-19.5 0-28.4z"/><path fill="#828181" stroke="#595650" stroke-miterlimit="10" stroke-width=".37" d="M186.9 129.2c1 8.9 1.4 19 0 28.4a57.5 57.5 0 0 1-4.4 15.2c3.9-4 7.1-10.3 8.7-18.3s1.4-17.3.3-25.3z"/></symbol></svg>