<svg xmlns="http://www.w3.org/2000/svg" width="256" height="256" viewBox="0 0 256 256"><path fill="#fff" d="M256.5 127.4A126.4 126.4 0 1 1 130.2 1a126.3 126.3 0 0 1 126.3 126.4z"/><path fill="#d3d3d3" d="M205 88.8a64.5 64.5 0 0 1-17.6 4.8 30.8 30.8 0 0 0 13.5-16.8 62 62 0 0 1-19.5 7.4 30.9 30.9 0 0 0-22.4-9.6 30.5 30.5 0 0 0-30.7 30.3 30.8 30.8 0 0 0 .8 6.8 87.6 87.6 0 0 1-63.3-31.5 28.9 28.9 0 0 0-4.2 15.2 30.2 30.2 0 0 0 13.7 25.1 29.8 29.8 0 0 1-13.9-3.8v.4a28.7 28.7 0 0 0 2.1 11A30.6 30.6 0 0 0 86 146.8a35.9 35.9 0 0 1-8.1 1 36.8 36.8 0 0 1-5.8-.5 30.8 30.8 0 0 0 28.7 21 62.1 62.1 0 0 1-38.1 12.9 61.2 61.2 0 0 1-7.4-.4 88 88 0 0 0 47.1 13.6c48 0 77.5-33.3 85.3-67.8a81.4 81.4 0 0 0 2.1-18.2c0-1.3 0-2.6-.1-3.9A61.7 61.7 0 0 0 205 88.8z"/></svg>