<svg xmlns="http://www.w3.org/2000/svg" id="_1" width="256" height="256" viewBox="0 0 256 256"><path fill="#828181" stroke="#595650" stroke-miterlimit="10" stroke-width=".34" d="M74.5 238c-7.4 0-13.4-4.4-13.4-9.7V119.5c0-21.3 18.6-36.8 19.2-44.3l2.9-48.1h20l2.9 48.1c.5 7.5 19.2 23 19.2 44.3v108.8c0 5.3-6.1 9.7-13.5 9.7z" opacity=".64" style="isolation:isolate"/><path fill="#828181" stroke="#595650" stroke-miterlimit="10" stroke-width=".34" d="M96.6 27.1h6.6l2.9 48.1c.5 7.5 19.2 23 19.2 44.3v108.8c0 5.3-6.1 9.7-13.5 9.7h-21a9.5 9.5 0 0 1-9.2-9.7V119.5c0-21.3 12.7-36.8 13-44.3z" opacity=".64" style="isolation:isolate"/><path fill="#828181" stroke="#595650" stroke-miterlimit="10" stroke-width=".34" d="M99.6 26.9h1.4l1.9 48.3c.3 7.5 14.4 23 14.4 44.3v108.8c0 4.9-4.9 7.8-4.9 1.9v-111c0-21.7-11.3-37.5-11.5-45.1zM69 228.3V119.5c0-21.3 14-36.8 14.5-44.3l3.4-48.9h1.5l-3 47.8c-.3 7.6-11.5 23.4-11.5 45.1v111c0 5.9-4.9 3-4.9-1.9z" opacity=".64" style="isolation:isolate"/><path fill="#828181" stroke="#595650" stroke-miterlimit="10" stroke-width=".34" d="M86.3 23.7H100a4.5 4.5 0 0 1 4.5 4.5v3H81.8v-3a4.5 4.5 0 0 1 4.5-4.5zm6.9 183.2c15.1 0 27.5-18 27.5-40s-12.4-40.1-27.5-40.1-27.5 18-27.5 40.1 12.3 40 27.5 40z" opacity=".64" style="isolation:isolate"/><path fill="#828181" stroke="#595650" stroke-miterlimit="10" stroke-width=".34" d="M69 186.1v-38.4a42.1 42.1 0 0 1 4.9-9.4v57.1a41.4 41.4 0 0 1-4.9-9.3zm24.2-59.3c15.2 0 27.5 18 27.5 40.1s-12.3 40-27.5 40a20.2 20.2 0 0 1-11.6-3.7v-72.7a21 21 0 0 1 11.6-3.7z" opacity=".64" style="isolation:isolate"/><path fill="#828181" stroke="#595650" stroke-miterlimit="10" stroke-width=".34" d="M117.3 147.7v38.4a37.7 37.7 0 0 1-4.9 9.3v-57.1a38.3 38.3 0 0 1 4.9 9.4zm-23.6-124h6.3a4.5 4.5 0 0 1 4.5 4.5v3H89.2v-3a4.5 4.5 0 0 1 4.5-4.5z" opacity=".64" style="isolation:isolate"/><path fill="#828181" stroke="#595650" stroke-miterlimit="10" stroke-width=".34" d="M89.9 23.7h1.8a4.6 4.6 0 0 0-4.6 4.5v3h-1.8v-3a4.6 4.6 0 0 1 4.6-4.5zm7.6 0h-1.8a4.5 4.5 0 0 1 4.5 4.5v3h1.8v-3a4.5 4.5 0 0 0-4.5-4.5zm97.3 103.5a64.8 64.8 0 0 0-2.4-19c-2.6-7.2-48.1-7.2-49.4 0a71.7 71.7 0 0 0-2.3 19z" opacity=".64" style="isolation:isolate"/><path fill="#828181" stroke="#595650" stroke-miterlimit="10" stroke-width=".34" d="M182.7 238c10.4 0 1.1-20.7.8-27.5-2.3-38.9 18.1-70.3 8.9-101.3H143c-9.2 31 11.3 62.4 9.1 101.3-.5 6.8-9.7 27.5.7 27.5z" opacity=".64" style="isolation:isolate"/><path fill="#828181" stroke="#595650" stroke-miterlimit="10" stroke-width=".34" d="M182.7 238c10.4 0 1.1-20.7.8-27.5-2.3-38.9 18.1-70.3 8.9-101.3h-35.8c-6.8 31 8.3 62.4 6.6 101.3-.3 6.8-7.1 27.5.6 27.5z" opacity=".64" style="isolation:isolate"/><path fill="#828181" stroke="#595650" stroke-miterlimit="10" stroke-width=".34" d="M151.9 109.2h-3.4c-7.1 31 8.8 62.4 7 101.3-.2 4.6-3.6 15.7-3.2 22.3a1.4 1.4 0 1 0 2.8 0c-.1-6.8 2.5-17.4 2.6-21.9 1.5-39-11.3-70.5-5.8-101.7zm31.3 123.6c.4-6.6-3-17.7-3.2-22.3-1.8-38.9 14.1-70.3 7-101.3h-3.4c5.5 31.2-7.3 62.7-5.9 101.7.2 4.5 2.8 15.3 2.7 22-.1 1.9 2.7 1.8 2.8-.1z" opacity=".64" style="isolation:isolate"/><path fill="#828181" stroke="#595650" stroke-miterlimit="10" stroke-width=".34" d="M184.6 216.5a28.6 28.6 0 0 1-1.1-6c-1.9-31.4 11.1-57.9 11.3-83.3h-54.1c.2 25.4 13.2 51.9 11.4 83.3a57.1 57.1 0 0 1-1.2 6z" opacity=".64" style="isolation:isolate"/><path fill="#828181" stroke="#595650" stroke-miterlimit="10" stroke-width=".34" d="M146.6 127.2c.2 25.4 10.4 51.9 8.9 83.3a41.4 41.4 0 0 1-.9 6h2.5a53.2 53.2 0 0 0 .6-5.6c1.2-31.5-6.9-58.2-7.2-83.7zm38 89.3v-7.7a4.9 4.9 0 0 1-.1-1.2v-2.2a6.1 6.1 0 0 1 .1-1.4v-5.7a6.2 6.2 0 0 0 .1-1.3v-.3c0-.6.1-1.1.1-1.7v-.2c.1-.5.1-.9.2-1.4v-.7a6.2 6.2 0 0 1 .1-1.3v-.4c.1-.4.1-.9.2-1.3v-.3c.1-1 .3-2.1.4-3.2v-.3l.2-1.3v-.3c.2-1.7.5-3.3.8-4.9l.3-1.5c3-16.2 7.6-31.1 8.5-45.7.1-1.5.2-3.1.2-4.7h-40.9c.2 25.5 9.8 52 8.4 83.4a44.4 44.4 0 0 1-.8 5.9z" opacity=".64" style="isolation:isolate"/><path fill="#828181" stroke="#595650" stroke-miterlimit="10" stroke-width=".34" d="M180.9 216.5a33.6 33.6 0 0 1-.9-6c-1.5-31.4 8.7-57.9 8.8-83.3H185c-.2 25.5-8.4 52.2-7.3 83.7.2 1.9.4 3.7.7 5.6zm13.9-89.3a58.3 58.3 0 0 0-2.4-18c-2.6-6.9-48.1-6.9-49.4 0a64 64 0 0 0-2.3 18z" opacity=".64" style="isolation:isolate"/><path fill="#828181" stroke="#595650" stroke-miterlimit="10" stroke-width=".34" d="M194.8 127.2v-3.7c0-.2-.1-.5-.1-.8v-3.4a5 5 0 0 1-.2-1.2v-.3l-.2-1.2a7.8 7.8 0 0 1-.2-1.4l-.3-1.4-.3-1.4-.3-1.4-.5-1.5H143l-.4 1.5-.3 1.4-.3 1.4-.3 1.4-.2 1.4c-.1.4-.1.8-.2 1.2v.3c0 .4-.1.8-.1 1.2v.3a4.1 4.1 0 0 0-.1 1.1v2a2.2 2.2 0 0 1-.1.8v3.7z" opacity=".64" style="isolation:isolate"/><path fill="#828181" stroke="#595650" stroke-miterlimit="10" stroke-width=".34" d="M194.8 127.2v-3.7a2.2 2.2 0 0 1 0-.8v-.6c0-.3-.1-.6-.1-1v-3.3c-.1-.4-.1-.8-.2-1.2 0-.5-.1-1-.1-1.4l-.2-1.4-.3-1.4a5.9 5.9 0 0 0-.2-1.4l-.3-1.5h-36.7l-.3 1.5-.3 1.4a5.9 5.9 0 0 0-.2 1.4l-.2 1.4a5.9 5.9 0 0 0-.2 1.4c0 .4-.1.8-.1 1.2v.3a4.9 4.9 0 0 0-.1 1.2v1.8a3.8 3.8 0 0 0-.1 1v1.4c0 .2-.1.5-.1.7v3z" opacity=".64" style="isolation:isolate"/><path fill="#828181" stroke="#595650" stroke-miterlimit="10" stroke-width=".34" d="M187 109.2h-3.4a97.9 97.9 0 0 1 1.4 18h3.8a77.5 77.5 0 0 0-1.8-18z" opacity=".64" style="isolation:isolate"/></svg>