<svg xmlns="http://www.w3.org/2000/svg" id="_1" width="256" height="256" viewBox="0 0 256 256"><path id="_Path_" fill="#fff" d="M253.1 127A124.1 124.1 0 1 1 129 3a124.1 124.1 0 0 1 124.1 124z"/><path fill="#d3d3d3" d="M173.7 53.3l-90.1.5a28.5 28.5 0 0 0-28.3 28.6l.2 30v11l.3 49.1a28.4 28.4 0 0 0 28.6 28.2l90.1-.5a28.3 28.3 0 0 0 28.2-28.5l-.2-49.1v-11l-.2-30a28.4 28.4 0 0 0-28.6-28.3zm8.2 16.9h3.3v24.9l-24.8.2-.2-24.9zM108 112.1a25.8 25.8 0 0 1 41.9-.3c.6.8 1.1 1.7 1.6 2.5a25.5 25.5 0 0 1 3.4 12.6 25.9 25.9 0 1 1-48.5-12.4zm80.4 59.7a14 14 0 0 1-14 14.1l-90.1.5a14.1 14.1 0 0 1-14.2-14l-.3-52.5v-7.6h21.9c-.5 1.3-1 2.7-1.4 4.1a39.8 39.8 0 0 0-1.4 10.9 40.2 40.2 0 1 0 80.3-.4 39.4 39.4 0 0 0-1.6-10.9c-.4-1.4-.9-2.8-1.4-4.1l21.9-.2v7.7z"/></svg>